<svg xmlns="http://www.w3.org/2000/svg">
<defs>
<font id="GTSectraFine-Regular" horiz-adv-x="620" >
  <font-face 
    font-family="GT Sectra Fine"
    font-weight="400"
    font-stretch="normal"
    units-per-em="1000"
    panose-1="0 0 5 0 0 0 0 0 0 0"
    ascent="750"
    descent="-250"
    x-height="468"
    cap-height="701"
    bbox="-480 -245 1164 922"
    underline-thickness="50"
    underline-position="-100"
    unicode-range="U+000D-FB02"
  />
<missing-glyph horiz-adv-x="625" 
d="M462 -29l-30 1l-24 18h-14l-8 8l7 76l-4 47l-61 1l-3 -52l-2 -56v-20l-15 -6l-8 6l-30 -10h-32l-1 11l11 11l50 21l-6 96l-98 -6l-147 140l-4 115l-13 10l-10 36v26l15 8l-3 78l92 -62l9 47l10 36l22 35l28 35l39 29l78 29h22l-68 22l4 17h7l79 -20l-4 51l16 12h32l19 -5
l29 -25l32 -8l32 -10l15 -13v-20l-20 -31l30 -28l28 -32l18 -34l15 -41l9 -54l-3 -41l-8 -35l-12 -31l-3 -156l-21 -7l-50 70l-27 -7l-19 -140l-32 4l-7 -4l-4 -94l30 -19l16 -14zM208 540h5l36 24h32l18 -12l8 3l4 14l7 5l10 -4v-18h8l10 22l11 8l-5 6l-3 8l1 21l-30 -10
l-10 -8l-8 5l4 21l14 10l11 11l38 -2l12 13l-4 8h-49l-45 -13l-53 -26l-29 -23l-25 -34l29 12l13 -15l-17 -20l-10 -3zM388 608l3 17l-7 17l-8 -9v-19zM436 564h13l6 6l-9 18l17 28l-15 9v5l-25 7v-20l-13 -5v-9l-9 -6l-3 -12l5 -6l19 11l8 -2zM515 406l18 12h23l6 11l-18 6
l-5 9l9 42h7l14 -20l17 -1l-8 37l-19 50l-20 36l-23 28l-34 21h-11l17 -19l25 -10l11 -11l3 -33l-25 13l-15 -29l12 -8v-19l15 3l-12 26l15 -5l10 -20l-5 -12l-8 -7h-23l-3 11l-12 2l1 -22h-14l14 -18l-7 -10l-21 5l-3 -27l41 6l8 17l22 -2l6 -28l-16 -13v-15zM461 514l2 7
l-2 9l-8 -4v-9zM184 498l59 12l-4 12zM366 491l3 4l-48 25l-4 -12zM72 254v180l57 -32l7 10l-68 38v18l59 -34l43 -28l28 -14l3 10l-103 64l-13 7l-41 33l2 -78l19 -17v-5h-21l19 -14l1 -11l-20 7l18 -18l-4 -7l3 -97zM227 432l11 5l16 12l6 12l2 13l-22 -4l6 -10l-12 -13
l-14 -1l-6 8l1 4l14 2l-13 6l2 7l-20 -1l3 -19l14 -15zM329 430l18 10l6 9l5 20l-30 2l7 -5l1 -11l-7 -11h-12l-5 7l11 8l-15 2v6l-23 4l3 -17l8 -14l20 -9zM201 130l18 4l2 40l41 -3l3 9l-44 6v16l48 -6l1 9l-47 7l1 22l43 -3l3 6l-45 9l3 94h74l11 10h-79l2 9h74l8 7h-82

<glyph glyph-name="fi" unicode="fi" horiz-adv-x="580" 
d="M36 -1l-2 23l67 8v402h-76v9l15 22h61v11q0 45 11 76t39 61l92 99h252v-101h-17l-77 23h-179l-11 -18q-15 -31 -15 -115v-38h186l79 12l30 2v-445l69 -8l-3 -23l-112 2l-103 -2l-2 24l56 7v385l3 20l-18 -3h-185v-402l89 -7l-2 -23l-134 1z" />
    <glyph glyph-name="fl" unicode="fl" horiz-adv-x="580" 
d="M38 -1l-3 23l66 8v402h-76v9l15 22h61v11q0 84 50 137l92 99h147l67 2h39v-682l69 -8l-3 -23l-111 2l-109 -2l-2 23l61 8v402h-205v-402l94 -7l-2 -24l-138 2zM196 461h205v182l-28 -11h-151l-11 -18q-15 -31 -15 -115v-38z" />
    <glyph glyph-name="f_f" unicode="ff" horiz-adv-x="635" 
d="M36 -1l-2 23l67 8v402h-76v9l15 22h61v3q0 46 13 76t41 60l88 95h164l-72 -78h-113l-11 -18q-15 -31 -15 -113v-27h205v13q0 84 50 137l93 99h116v-78h-138l-11 -18q-15 -31 -15 -115v-38h124v-29h-124v-402l110 -7l-2 -24l-153 2l-104 -2l-2 23l56 8v402h-205v-402
l94 -7l-2 -24l-139 2z" />
    <glyph glyph-name="f_f_i" unicode="ffi" horiz-adv-x="880" 
d="M36 -1l-2 23l67 8v402h-76v9l15 22h61v3q0 46 13 76t41 60l88 95h164l-72 -78h-113l-11 -18q-15 -31 -15 -113v-27h205v13q0 84 50 137l93 99h251v-101h-17l-77 23h-179l-11 -18q-15 -28 -15 -115v-38h186l79 13l30 1v-445l69 -8l-3 -23l-112 2l-103 -2l-2 24l56 7v385
l3 20l-18 -3h-185v-402l89 -7l-2 -24l-132 2l-114 -2l-3 23l67 8v402h-205v-402l94 -7l-2 -24l-138 2z" />
    <glyph glyph-name="f_f_l" unicode="ffl" horiz-adv-x="879" 
d="M36 -1l-2 23l67 8v402h-76v9l15 22h61v3q0 46 13 76t41 60l88 95h165l-72 -78h-114l-11 -18q-15 -31 -15 -113v-27h205v13q0 84 49 137l94 99h151l51 2h50v-682l68 -8l-2 -23l-110 2l-110 -2l-2 23l61 8v402h-205v-402l94 -7l-2 -24l-138 2l-103 -2l-2 23l56 8v402h-205
v-402l94 -7l-2 -24l-139 2zM496 461h205v181l-29 -10h-150l-11 -18q-15 -31 -15 -115v-38z" />
    <glyph glyph-name="T_h.liga" unicode="Th" horiz-adv-x="1058" 
d="M144 -1l-2 23l104 10v637l-146 -1l-59 -155h-25v188h539l95 13h23v-335l164 104q77 0 104 -34.5t27 -125.5v-293l73 -8l-2 -23l-117 2l-96 -2l-2 23l48 8v305q0 78 -62 78q-34 0 -104 -43l-33 -21v-319l51 -8l-2 -23l-95 2l-108 -2l-2 23l61 8v641l-18 -3l-208 1v-637
l101 -10l-3 -23l-150 2z" />
    <glyph glyph-name="f_b.liga" unicode="fb" horiz-adv-x="859" 
d="M573 -15q-97 0 -173 41v617l-28 -11h-150l-11 -19q-15 -31 -15 -116v-36h122v-29h-122v-402l110 -6l-3 -25l-154 2l-113 -2l-2 23l67 8v402h-76v9l15 22h61v11q0 84 50 137l92 99h138l57 2h57v-325l139 96q79 0 133 -59.5t54 -159.5q0 -237 -248 -279zM589 19
q57 0 93.5 57t36.5 153q0 85 -28 134t-79 49q-37 0 -90 -37l-27 -19v-295q30 -42 94 -42z" />
    <glyph glyph-name="f_f_b.liga" unicode="ffb" horiz-adv-x="1159" 
d="M873 -15q-95 0 -173 41v617l-29 -11h-149l-11 -19q-15 -29 -15 -116v-36h122v-29h-122v-402l110 -6l-2 -25l-154 2l-104 -2l-2 23l57 8v402h-205v-402l94 -7l-2 -24l-139 2l-113 -2l-2 23l67 8v402h-76v9l15 22h61v3q0 46 13 76t41 60l88 95h164l-72 -78h-113l-11 -18
q-15 -31 -15 -113v-27h205v13q0 84 50 137l93 99h148l40 2h63v-325l139 96q79 0 133 -59.5t54 -159.5q0 -237 -248 -279zM889 19q57 0 93.5 57t36.5 153q0 85 -28.5 134t-79.5 49q-35 0 -90 -37l-26 -19v-295q30 -42 94 -42z" />
    <glyph glyph-name="f_f_h.liga" unicode="ffh" horiz-adv-x="1181" 
d="M36 -1l-2 23l67 8v402h-76v9l15 22h61v3q0 46 13 76t41 60l88 95h164l-72 -78h-113l-11 -18q-15 -31 -15 -113v-27h205v13q0 84 50 137l93 99h149l40 2h63v-333l164 104q79 0 105 -35.5t26 -124.5v-293l73 -8l-3 -23l-115 2l-97 -2l-2 23l48 8v305q0 78 -63 78
q-15 0 -35 -7.5t-29 -12.5t-39 -23l-33 -21v-319l51 -8l-2 -23l-95 2l-108 -2l-2 23l61 8v613l-28 -11h-151l-11 -19q-15 -29 -15 -116v-36h122v-29h-122v-402l95 -6l-2 -25l-140 2l-103 -2l-2 23l57 8v402h-205v-402l94 -7l-2 -24l-139 2z" />
    <glyph glyph-name="f_f_j.liga" unicode="ffj" horiz-adv-x="852" 
d="M573 -236v88h102l6 18q13 39 13 109v436l3 21l-18 -4h-183v-402l95 -7l-3 -24l-136 2l-106 -2l-3 23l58 8v402h-205v-402l94 -7l-2 -24l-138 2l-114 -2l-2 23l67 8v402h-76v9l15 22h61v3q0 46 13 76t41 60l88 95h164l-72 -78h-113l-11 -18q-15 -31 -15 -113v-27h205v13
q0 84 50 137l92 99h251v-101h-18l-77 23h-177l-11 -18q-15 -31 -15 -115v-38h184l79 12l30 2v-477q0 -43 -12 -71t-40 -59l-90 -104h-74z" />
    <glyph glyph-name="f_f_k.liga" unicode="ffk" horiz-adv-x="1143" 
d="M36 -1l-2 23l67 8v402h-76v9l15 22h61v2q0 46 13 76.5t41 60.5l88 95h164l-72 -78h-113l-11 -18q-15 -31 -15 -113v-27h205v13q0 47 11 78t38 59l93 99h150l102 2v-445l14 6l196 165l-51 8v23l83 -2l77 2l3 -23l-60 -8l-209 -169h47l200 -239l43 -8l-2 -23l-84 2l-62 -2
l-189 242l-6 13v-224l59 -8l-3 -23l-102 2l-112 -2l-3 23l67 8v613l-29 -11h-151l-11 -19q-14 -29 -14 -116v-36h122v-29h-122v-402l94 -6l-3 -25l-138 2l-112 -2l-2 23l66 8v402h-205v-402l94 -7l-2 -24l-142 2z" />
    <glyph glyph-name="f_h.liga" unicode="fh" horiz-adv-x="881" 
d="M36 -1l-2 23l67 8v402h-76v9l15 22h61v11q0 84 50 137l92 99h152l52 2h49v-333l164 104q79 0 105 -35.5t26 -124.5v-293l73 -8l-2 -23l-115 2l-98 -2l-2 23l48 8v305q0 78 -62 78q-16 0 -36 -7.5t-29 -13t-39 -22.5l-33 -21v-319l51 -8l-2 -23l-94 2l-109 -2l-2 23l61 8
v613l-28 -11h-151l-11 -19q-15 -31 -15 -116v-36h122v-29h-122v-402l95 -6l-2 -25l-140 2z" />
    <glyph glyph-name="f_j.liga" unicode="fj" horiz-adv-x="552" 
d="M273 -236v88h102l6 18q13 39 13 109v436l3 21l-18 -4h-183v-402l95 -7l-3 -24l-138 2l-114 -2l-2 23l67 8v402h-76v9l15 22h61v11q0 84 50 137l92 99h251v-101h-18l-77 23h-177l-11 -18q-15 -31 -15 -115v-38h184l79 12l30 2v-477q0 -43 -12 -71t-40 -59l-90 -104h-74z
" />
    <glyph glyph-name="f_k.liga" unicode="fk" horiz-adv-x="844" 
d="M36 -1l-2 23l67 8v402h-76v9l15 22h61v11q0 84 50 137l92 99h151l102 2v-445l13 6l196 165l-51 8v23l83 -2l78 2l3 -23l-61 -8l-209 -169h47l200 -239l44 -8l-2 -23l-86 2l-61 -2l-188 242l-6 13v-224l59 -8l-3 -23l-102 2l-112 -2l-3 23l66 8v613l-28 -11h-151l-11 -19
q-15 -31 -15 -116v-36h122v-29h-122v-402l94 -6l-2 -25l-140 2z" />
    <glyph glyph-name="f_t.liga" unicode="ft" horiz-adv-x="650" 
d="M513 -15q-118 0 -118 127v320h-199v-402l104 -6l-2 -25l-146 2l-116 -2l-2 23l67 8v402h-76v9l15 22h61v13q0 44 11 74.5t39 60.5l92 99h174l-76 -78h-119l-11 -19q-15 -29 -15 -116v-36h200v73l79 59h14v-134h146v-27h-145v-316q0 -64 56 -64q37 0 88 27l11 -22z" />
    <glyph glyph-name="f_y.liga" unicode="fy" horiz-adv-x="817" 
d="M366 -235v97h98l103 168l-63 -25l-166 434h-142v-409l110 -6l-3 -25l-153 2l-114 -2l-2 23l67 8v404h-76v9l15 22h61v11q0 46 11.5 76t38.5 59l92 99h117v-78h-138l-11 -19q-15 -31 -15 -114v-31h306l3 -22l-61 -8l127 -342l4 -36l131 378l-57 8l2 23l83 -2l76 2l2 -23
l-61 -8l-152 -411l-119 -262h-114z" />
    <glyph glyph-name="g_g.liga" unicode="gg" horiz-adv-x="1013" 
d="M217 -243q-198 0 -198 131v18l112 84q-48 14 -66 39t-18 62v11l100 71q-47 17 -74.5 52t-27.5 81q0 65 47 108t147 69q53 0 94.5 -20.5t62.5 -55.5l53 76h38l2 -88h-62l-19 -12q10 -20 10 -46q0 -65 -47 -108.5t-146 -68.5q-31 0 -53 6l-47 -50q0 -49 51 -49h161
q58 0 88.5 -28t30.5 -71q0 -65 -65 -120.5t-174 -90.5zM703 -243q-101 0 -150.5 31.5t-49.5 99.5v18l106 84q-54 14 -73 38.5t-19 62.5v11l99 71q-47 17 -74.5 52t-27.5 81q0 65 47 108t146 69q53 0 94.5 -20t62.5 -56l54 76h50v-88h-72l-19 -12q10 -23 10 -46
q-1 -65 -47.5 -108.5t-146.5 -68.5q-28 0 -52 6l-47 -50q0 -49 52 -49h182q58 0 88.5 -28t30.5 -71q0 -65 -66.5 -120.5t-177.5 -90.5zM240 193q39 0 61 30t22 83q0 57 -23.5 100.5t-76.5 43.5q-39 0 -61 -31.5t-22 -86.5t23.5 -97t76.5 -42zM709 193q39 0 60.5 30t21.5 83
q0 58 -23 101t-76 43q-40 0 -61.5 -31.5t-21.5 -86.5q0 -35 8 -64t31.5 -52t60.5 -23zM225 -192q64 0 108.5 35t44.5 84q0 58 -87 58h-137q-48 -47 -48 -88q0 -40 32.5 -65t86.5 -24zM712 -192q65 0 111 35t46 84q0 58 -87 58h-150q-43 -46 -43 -88q0 -40 33 -65t90 -24z
" />
    <glyph glyph-name="k_y.liga" unicode="ky" horiz-adv-x="991" 
d="M539 -235v97h99l102 168l-63 -25l-164 433l-58 -1l-208 -168h47l199 -239l45 -8l-3 -23l-87 1l-59 -1l-189 242l-6 13v-224l59 -8l-3 -23l-101 2l-113 -2l-3 23l66 8v634l-65 -6l-4 22l134 32l30 2v-447l14 6l195 165l-50 9v21h323l3 -22l-61 -8l127 -342l4 -36l130 378
l-57 8l3 23l83 -2l75 2l3 -23l-61 -8l-154 -411l-118 -262h-114z" />
    <glyph glyph-name="t_t.liga" unicode="tt" horiz-adv-x="659" 
d="M209 -15q-119 0 -119 127v320h-85v8l18 23h69v71l79 59h14v-134h213v75l78 59h15v-134h155v-27h-155v-316q0 -64 56 -64q38 0 89 27l11 -22l-133 -72q-118 0 -118 127v320h-211v-318q0 -62 53 -62q35 0 85 26l11 -21z" />
    <glyph glyph-name="t_y.liga" unicode="ty" horiz-adv-x="796" 
d="M344 -235v97h99l102 168l-63 -25l-166 435h-131v-324q0 -64 57 -64q40 0 84 25l11 -22l-128 -70q-119 0 -119 127v323h-85v8l18 23h69v68l79 59h14v-125h296l2 -22l-61 -8l127 -342l4 -36l131 378l-57 8l2 23l84 -2l75 2l3 -23l-62 -8l-153 -411l-118 -262h-114z" />
    <glyph glyph-name=".notdef" horiz-adv-x="625" 
d="M462 -29l-30 1l-24 18h-14l-8 8l7 76l-4 47l-61 1l-3 -52l-2 -56v-20l-15 -6l-8 6l-30 -10h-32l-1 11l11 11l50 21l-6 96l-98 -6l-147 140l-4 115l-13 10l-10 36v26l15 8l-3 78l92 -62l9 47l10 36l22 35l28 35l39 29l78 29h22l-68 22l4 17h7l79 -20l-4 51l16 12h32l19 -5
l29 -25l32 -8l32 -10l15 -13v-20l-20 -31l30 -28l28 -32l18 -34l15 -41l9 -54l-3 -41l-8 -35l-12 -31l-3 -156l-21 -7l-50 70l-27 -7l-19 -140l-32 4l-7 -4l-4 -94l30 -19l16 -14zM208 540h5l36 24h32l18 -12l8 3l4 14l7 5l10 -4v-18h8l10 22l11 8l-5 6l-3 8l1 21l-30 -10
l-10 -8l-8 5l4 21l14 10l11 11l38 -2l12 13l-4 8h-49l-45 -13l-53 -26l-29 -23l-25 -34l29 12l13 -15l-17 -20l-10 -3zM388 608l3 17l-7 17l-8 -9v-19zM436 564h13l6 6l-9 18l17 28l-15 9v5l-25 7v-20l-13 -5v-9l-9 -6l-3 -12l5 -6l19 11l8 -2zM515 406l18 12h23l6 11l-18 6
l-5 9l9 42h7l14 -20l17 -1l-8 37l-19 50l-20 36l-23 28l-34 21h-11l17 -19l25 -10l11 -11l3 -33l-25 13l-15 -29l12 -8v-19l15 3l-12 26l15 -5l10 -20l-5 -12l-8 -7h-23l-3 11l-12 2l1 -22h-14l14 -18l-7 -10l-21 5l-3 -27l41 6l8 17l22 -2l6 -28l-16 -13v-15zM461 514l2 7
l-2 9l-8 -4v-9zM184 498l59 12l-4 12zM366 491l3 4l-48 25l-4 -12zM72 254v180l57 -32l7 10l-68 38v18l59 -34l43 -28l28 -14l3 10l-103 64l-13 7l-41 33l2 -78l19 -17v-5h-21l19 -14l1 -11l-20 7l18 -18l-4 -7l3 -97zM227 432l11 5l16 12l6 12l2 13l-22 -4l6 -10l-12 -13
l-14 -1l-6 8l1 4l14 2l-13 6l2 7l-20 -1l3 -19l14 -15zM329 430l18 10l6 9l5 20l-30 2l7 -5l1 -11l-7 -11h-12l-5 7l11 8l-15 2v6l-23 4l3 -17l8 -14l20 -9zM201 130l18 4l2 40l41 -3l3 9l-44 6v16l48 -6l1 9l-47 7l1 22l43 -3l3 6l-45 9l3 94h74l11 10h-79l2 9h74l8 7h-82
l2 22l117 4l140 -4v11l-4 7h-205l-66 -3l-7 -9l-6 -44l-48 20l-11 -4l57 -27l1 -45l-5 -73v-91zM529 386h5l5 7v7l-10 -4v-10zM350 336h53l4 30l-54 5zM173 231l-1 60l4 40l-66 39v-7l-2 -13l1 -27v-48zM510 300l8 2l20 15l13 13l11 18l-7 5h-14l-10 3l-14 7l-17 -3l-6 -48z
M437 346l44 4l4 9h-48v-13zM449 142l12 79l4 36l-15 3l-1 8l20 1l5 3l-28 16l2 5l30 -6l-30 15l5 5l21 -5l4 10l3 19l-54 1l-1 -24v-6l-2 -31l19 -3l-8 -61l-48 3l-8 -6l51 -5l-2 -9h-49l-4 -5l53 -7l-6 -35zM291 302h73v10h-73v-10zM559 234v78l-6 -3l-33 -27zM364 271v10
l-72 7l-6 -13zM286 250h68v6l-68 4v-10zM172 189l4 14l-74 50l20 -23zM350 161v53l-64 4v-51z" />
    <glyph glyph-name=".null" horiz-adv-x="0" 
 />
    <glyph glyph-name="nonmarkingreturn" horiz-adv-x="333" 
 />
    <glyph glyph-name="CR" unicode="&#xd;" horiz-adv-x="320" 
 />
    <glyph glyph-name="space" unicode=" " horiz-adv-x="239" 
 />
    <glyph glyph-name="exclam" unicode="!" horiz-adv-x="273" 
d="M121 217l-30 189l-6 304h102l-6 -303l-30 -190h-30zM114 -5l-27 5l-5 54l7 44l69 5l27 -5l5 -52l-7 -46z" />
    <glyph glyph-name="quotedbl" unicode="&#x22;" horiz-adv-x="371" 
d="M98 450l-49 191l12 64h91l11 -64l-48 -191h-17zM259 450l-48 191l11 64h92l11 -64l-48 -191h-18z" />
    <glyph glyph-name="numbersign" unicode="#" horiz-adv-x="618" 
d="M149 0l24 201h-133l4 37h134l22 178h-133l5 37h132l25 202h40l-25 -202h160l25 202h40l-25 -202h134l-4 -37h-134l-22 -178h134l-5 -37h-134l-24 -201h-40l24 201h-160l-24 -201h-40zM218 238h161l21 178h-160z" />
    <glyph glyph-name="dollar" unicode="$" horiz-adv-x="552" 
d="M506 203q0 -146 -200 -208v-75h-31v67q-5 -2 -15 -4q-115 0 -204 63l-11 151h40l40 -99q62 -71 150 -72v285l-91 47q-60 31 -91.5 67t-31.5 95q0 72 56 121.5t158 71.5v68h31v-64q99 -5 173 -50v-148h-30l-41 108q-46 46 -102 52v-262l64 -33q67 -34 101.5 -76t34.5 -105
zM252 445l23 -12v247q-56 -2 -88.5 -33t-32.5 -80q0 -41 24.5 -69.5t73.5 -52.5zM306 28q50 8 79 41.5t29 83.5q0 87 -108 141v-266z" />
    <glyph glyph-name="percent" unicode="%" horiz-adv-x="802" 
d="M195 357q-68 0 -109 47t-41 121q0 77 43 120.5t135 59.5q69 0 109.5 -46.5t40.5 -121.5q0 -153 -178 -180zM139 -5l494 710h49l-494 -710h-49zM216 381q77 0 77 138q0 75 -22.5 118.5t-68.5 43.5q-38 0 -58 -37.5t-20 -99.5q0 -76 23 -119.5t69 -43.5zM579 -5
q-69 0 -110 46.5t-41 121.5q0 77 43 120.5t134 59.5q70 0 111 -47t41 -122q0 -151 -178 -179zM598 19q39 0 59 37t20 100q0 75 -22.5 119t-68.5 44q-39 0 -59 -37.5t-20 -100.5q0 -75 22.5 -118.5t68.5 -43.5z" />
    <glyph glyph-name="ampersand" unicode="&#x26;" horiz-adv-x="699" 
d="M266 -17q-94 0 -157.5 48.5t-63.5 125.5q0 33 10.5 62t23.5 48.5t38 41t40.5 32.5t44.5 29q-63 71 -83 105t-20 72q0 62 46.5 101.5t149.5 69.5q79 0 126 -39t47 -94q0 -52 -39.5 -93.5t-121.5 -91.5l164 -188l95 126l-56 7l2 22l80 -2l82 2l3 -22l-66 -8l-117 -150
l137 -156l53 -8l-3 -23l-92 1l-62 -1l-96 109q-70 -77 -165 -126zM288 422q46 35 63.5 71.5t17.5 85.5q0 45 -24.5 74.5t-63.5 29.5t-63.5 -26t-24.5 -72q0 -31 22.5 -67.5t72.5 -95.5zM279 60q64 0 129 74l-186 214q-81 -56 -81 -148q0 -58 40 -99t98 -41z" />
    <glyph glyph-name="quotesingle" unicode="'" horiz-adv-x="205" 
d="M98 450l-49 189l12 66h91l11 -66l-48 -189h-17z" />
    <glyph glyph-name="parenleft" unicode="(" horiz-adv-x="280" 
d="M250 -236q-117 135 -161 234.5t-44 247.5q0 149 44.5 250t160.5 227l16 -15q-78 -93 -111 -203.5t-33 -257.5q0 -295 144 -469z" />
    <glyph glyph-name="parenright" unicode=")" horiz-adv-x="280" 
d="M30 -236l-15 14q143 174 143 469q0 147 -33 257.5t-110 203.5l15 15q116 -125 161 -226.5t45 -250.5q0 -148 -44.5 -248t-161.5 -234z" />
    <glyph glyph-name="asterisk" unicode="*" horiz-adv-x="408" 
d="M147 412l-66 48l102 94l-138 15l25 78l120 -67l-27 135h82l-27 -135l120 67l25 -78l-137 -15l101 -93l-65 -49l-58 124z" />
    <glyph glyph-name="plus" unicode="+" 
d="M287 0v232h-235v44h235v239h45v-239h235v-44h-235v-232h-45z" />
    <glyph glyph-name="comma" unicode="," horiz-adv-x="223" 
d="M106 -144l-23 9q32 72 49 132l-18 -2l-34 5l-5 58l7 47l73 5l30 -5l5 -56l-7 -49z" />
    <glyph glyph-name="hyphen" unicode="-" horiz-adv-x="370" 
d="M34 252v48h302v-48h-302z" />
    <glyph glyph-name="period" unicode="." horiz-adv-x="225" 
d="M103 -5l-28 5l-5 57l7 48l74 5l29 -5l5 -56l-7 -49z" />
    <glyph glyph-name="slash" unicode="/" horiz-adv-x="478" 
d="M-10 -230l453 948h43l-451 -948h-45z" />
    <glyph glyph-name="zero" unicode="0" horiz-adv-x="575" 
d="M274 -15q-102 0 -168 67.5t-66 172.5t66 167.5t195 90.5q102 0 168 -67.5t66 -172.5q0 -207 -261 -258zM298 23q62 0 95.5 55t33.5 138q0 102 -38 165t-114 63q-62 0 -95 -55t-33 -137q0 -103 37.5 -166t113.5 -63z" />
    <glyph glyph-name="one" unicode="1" horiz-adv-x="440" 
d="M34 -1l-2 23l148 12v363l2 9l-21 -10l-122 -37l-11 24l223 94h26v-443l145 -12l-2 -23l-190 2z" />
    <glyph glyph-name="two" unicode="2" horiz-adv-x="492" 
d="M33 0l-13 26l141 108q85 65 120 115t35 98q0 47 -23 72t-65 25q-27 0 -63 -17l-32 -118h-78v100l193 78q85 0 129.5 -36t44.5 -93q0 -65 -49.5 -118t-151.5 -111l-100 -55l55 13h286v-20l-27 -67h-402z" />
    <glyph glyph-name="three" unicode="3" horiz-adv-x="473" 
d="M26 -230v89h222q77 53 77 134q0 61 -51.5 98.5t-135.5 37.5l-6 20l48 24q64 29 92 66.5t28 92.5q0 48 -25.5 78.5t-64.5 30.5q-35 0 -67 -17l-36 -118h-77v105l211 76q72 0 115.5 -35.5t43.5 -93.5q0 -114 -158 -177q81 -5 134 -48t53 -104q0 -67 -42.5 -113.5
t-147.5 -94.5l-110 -51h-103z" />
    <glyph glyph-name="four" unicode="4" horiz-adv-x="549" 
d="M305 -230v228h-273l-21 26l314 446h109v-23l-370 -416l20 7h221v142l81 56h14v-198h136v-40h-136v-228h-95z" />
    <glyph glyph-name="five" unicode="5" horiz-adv-x="478" 
d="M43 -229v89h197q100 61 100 167q0 59 -33 94t-90 35q-53 0 -109 -28l-37 -18l-17 10l40 352h344v-16l-18 -70h-302l-27 -236l156 83q90 0 143.5 -47t53.5 -120q0 -80 -47.5 -134.5t-159.5 -106.5l-110 -54h-84z" />
    <glyph glyph-name="six" unicode="6" horiz-adv-x="548" 
d="M317 448q86 0 135 -59t49 -147q0 -200 -241 -257q-99 0 -156 79.5t-57 201.5q0 154 91 274t275 181l10 -26q-148 -61 -206.5 -146.5t-61.5 -223.5zM282 23q55 0 86 48t31 137q0 79 -27.5 124t-73.5 45q-23 0 -45 -13t-64 -45l-34 -26q1 -129 35 -199.5t92 -70.5z" />
    <glyph glyph-name="seven" unicode="7" horiz-adv-x="485" 
d="M95 -228v21l293 579l10 11h-378v89h432l13 -15l-286 -685h-84z" />
    <glyph glyph-name="eight" unicode="8" horiz-adv-x="547" 
d="M368 357q62 -42 95.5 -82.5t33.5 -92.5q0 -77 -58 -124t-177 -73q-91 1 -152 50t-61 130q0 117 157 186l-25 20q-114 76 -114 167q0 126 213 177q96 -1 149.5 -40t53.5 -107q0 -107 -152 -182zM168 581q0 -45 34.5 -85t100.5 -87l7 -6q72 59 72 147q0 57 -30 93t-85 36
q-44 0 -71.5 -26t-27.5 -72zM278 21q48 0 83 30t35 89q0 13 -2 25t-8.5 23.5t-10.5 20t-15.5 20t-16.5 17.5t-20.5 18t-20.5 15.5t-23 16.5t-21 15l-32 25q-77 -59 -77 -151q0 -71 38.5 -117.5t90.5 -46.5z" />
    <glyph glyph-name="nine" unicode="9" horiz-adv-x="544" 
d="M276 487q97 0 155 -77.5t58 -204.5q0 -155 -93.5 -271t-270.5 -177l-9 26q136 60 197 143.5t67 220.5l-158 -123q-83 0 -135 58t-52 151q0 194 241 254zM343 150l38 30q0 121 -32 195t-97 74q-53 0 -84 -48.5t-31 -132.5q0 -79 28.5 -124.5t78.5 -45.5q21 0 40 10.5
t59 41.5z" />
    <glyph glyph-name="colon" unicode=":" horiz-adv-x="240" 
d="M108 366l-28 6l-5 57l7 47l74 6l29 -6l5 -55l-7 -49zM108 -5l-28 5l-5 57l7 48l74 5l29 -5l5 -56l-7 -49z" />
    <glyph glyph-name="semicolon" unicode=";" horiz-adv-x="260" 
d="M108 366l-28 6l-5 57l7 47l74 6l29 -6l5 -55l-7 -49zM106 -144l-23 9q32 72 49 132l-18 -2l-34 5l-5 58l7 47l73 5l30 -5l5 -56l-7 -49z" />
    <glyph glyph-name="less" unicode="&#x3c;" 
d="M570 33l-520 235v37l520 235v-52l-457 -201l457 -201v-53z" />
    <glyph glyph-name="equal" unicode="=" 
d="M51 319v45h517v-45h-517zM51 126v45h517v-45h-517z" />
    <glyph glyph-name="greater" unicode="&#x3e;" 
d="M50 33v53l457 201l-457 201v52l520 -235v-37z" />
    <glyph glyph-name="question" unicode="?" horiz-adv-x="413" 
d="M137 214l-12 135l39 26q96 65 96 170q0 58 -26 94t-81 38l-33 -101h-60v119l96 13q102 -8 154 -55.5t52 -112.5q0 -118 -128 -175l-53 -25l-6 -126h-38zM136 -7l-26 5l-5 53l7 45l69 4l27 -4l5 -53l-7 -45z" />
    <glyph glyph-name="at" unicode="@" horiz-adv-x="913" 
d="M447 -114q-177 0 -287 104t-110 266q0 143 94 254.5t248 160.5l93 29q181 0 282 -82.5t101 -212.5q0 -127 -92 -220.5t-211 -96.5l-57 64l33 112l-146 -178q-55 3 -94.5 45t-39.5 107q0 81 47.5 147t127.5 103l108 49l111 -65l-79 -360q77 2 145.5 80.5t68.5 197.5
q0 125 -76.5 199t-206.5 74q-69 0 -135.5 -26.5t-120 -74t-86 -121t-32.5 -161.5q0 -84 29.5 -151t80 -108.5t114 -63t134.5 -21.5q87 0 185 54l10 -18q-122 -67 -239 -86zM425 162l111 124l36 148l-84 55q-77 -37 -110 -97.5t-33 -121.5q0 -95 80 -108z" />
    <glyph glyph-name="A" unicode="A" horiz-adv-x="720" 
d="M10 -1l-3 23l75 9l242 654l67 26l248 -680l74 -9l-2 -23l-139 2l-132 -2l-2 23l84 10l-73 212h-248l-74 -212l86 -10l-2 -23l-108 2zM212 274h226l-106 309l-3 27z" />
    <glyph glyph-name="B" unicode="B" horiz-adv-x="633" 
d="M31 -1l-2 23l85 10v636l-85 10l2 23l136 -2l196 2q92 0 142.5 -45t50.5 -108q0 -67 -53 -115t-131 -59q108 -3 165.5 -51t57.5 -121q0 -179 -265 -203l-168 2zM220 383h90q63 0 99.5 45.5t36.5 113.5q0 60 -32.5 95.5t-92.5 36.5l-101 -6v-285zM309 26q92 0 134 49
t42 123q0 72 -43.5 114t-115.5 42h-106v-322z" />
    <glyph glyph-name="C" unicode="C" horiz-adv-x="690" 
d="M394 -17q-147 0 -251 95t-104 260q0 167 99 263t271 116q123 0 234 -65v-151h-33l-47 116q-63 67 -162 67q-108 0 -176 -85t-68 -240q0 -140 69 -240t193 -100q76 0 140 60l57 130h33l-13 -156q-117 -54 -242 -70z" />
    <glyph glyph-name="D" unicode="D" horiz-adv-x="731" 
d="M31 -1l-2 23l89 10v636l-89 10l2 23l138 -2l189 2q156 0 245.5 -88t89.5 -247q0 -161 -86.5 -258t-253.5 -109l-185 2zM346 27q103 0 166.5 91t63.5 240q0 143 -63 229.5t-187 86.5l-102 -6v-633z" />
    <glyph glyph-name="E" unicode="E" horiz-adv-x="616" 
d="M31 -1l-2 23l85 10v636l-85 10l2 23l134 -2l404 2l4 -182h-22l-62 149l-269 2v-289l149 2l42 112h23l-5 -126l5 -130h-23l-42 111l-149 2v-322l278 2l66 154h25l-18 -187l-406 2z" />
    <glyph glyph-name="F" unicode="F" horiz-adv-x="587" 
d="M31 -1l-2 23l85 10v636l-85 10l2 23l135 -2l402 2l5 -185h-23l-62 152l-268 2v-303l149 2l42 118h23l-5 -132l5 -136h-23l-42 118l-149 2v-307l103 -10l-3 -23l-154 2z" />
    <glyph glyph-name="G" unicode="G" horiz-adv-x="733" 
d="M386 -17q-147 0 -247 95t-100 261t97.5 262t271.5 116q69 0 131.5 -19.5t102.5 -45.5v-151h-30l-48 114q-61 69 -164 69q-112 0 -177.5 -89.5t-65.5 -239.5q0 -89 28.5 -165t86.5 -124t135 -48q84 0 134 56v213l-84 11l2 23l136 -1l112 1l2 -23l-62 -11v-234
q-129 -58 -261 -70z" />
    <glyph glyph-name="H" unicode="H" horiz-adv-x="754" 
d="M31 -1l-2 23l85 10v636l-85 10l2 23l136 -2l132 2l2 -23l-81 -10v-288h317v288l-84 10l2 23l135 -2l132 2l3 -23l-82 -10v-636l82 -10l-3 -23l-132 2l-135 -2l-2 23l84 10v315h-317v-315l81 -10l-2 -23l-132 2z" />
    <glyph glyph-name="I" unicode="I" horiz-adv-x="333" 
d="M31 -1l-2 24l85 9v636l-85 10l2 23l136 -2l135 2l3 -23l-85 -10v-636l85 -9l-3 -24l-135 2z" />
    <glyph glyph-name="J" unicode="J" horiz-adv-x="340" 
d="M1 -175v91h110l5 21q12 35 12 155v576l-105 10l2 23l156 -2l132 2l3 -23l-82 -10v-562q0 -62 -15 -101t-46 -74l-94 -106h-78z" />
    <glyph glyph-name="K" unicode="K" horiz-adv-x="701" 
d="M31 -1l-2 23l85 10v636l-85 10l2 23l138 -2l125 2l3 -23l-77 -10v-299l14 9l307 290l-81 10l2 23l103 -2l98 2l2 -23l-81 -11l-307 -294l52 3l305 -346l57 -8l-2 -23l-97 2l-75 -2l-290 339l-7 15v-321l77 -10l-3 -23l-125 2z" />
    <glyph glyph-name="L" unicode="L" horiz-adv-x="575" 
d="M31 -1l-2 23l85 10v636l-85 10l2 23l136 -2l135 2l3 -23l-85 -10v-637l252 2l69 156h24l-17 -190l-381 2z" />
    <glyph glyph-name="M" unicode="M" horiz-adv-x="920" 
d="M34 -1l-3 23l80 10v635l-82 11l2 23l104 -2l101 2l224 -563l4 -29l227 592l84 -2l114 2l2 -23l-83 -10v-636l81 -10l-3 -23l-126 2l-135 -2l-2 23l79 10v554l7 58l-249 -647h-58l-232 593l-18 58v-616l81 -10l-4 -23l-95 2z" />
    <glyph glyph-name="N" unicode="N" horiz-adv-x="716" 
d="M565 -4l-402 607l-9 36v-607l84 -10l-2 -23l-100 2l-105 -2l-2 23l85 10v633l-83 13l2 23l110 -2l75 2l352 -524l11 -30v521l-84 10l2 23l99 -2l105 2l3 -23l-85 -10v-672h-56z" />
    <glyph glyph-name="O" unicode="O" horiz-adv-x="771" 
d="M375 -17q-148 0 -242 100t-94 252q0 164 87.5 258.5t268.5 123.5q149 0 243 -100t94 -252q0 -164 -87.5 -258.5t-269.5 -123.5zM403 22q102 0 156.5 87t54.5 224q0 91 -27 168t-84.5 127t-134.5 50q-101 0 -156 -87t-55 -224q0 -143 65.5 -244t180.5 -101z" />
    <glyph glyph-name="P" unicode="P" horiz-adv-x="587" 
d="M31 -1l-2 23l85 10v636l-85 10l2 23l133 -2l196 2q94 0 154.5 -47t60.5 -132q0 -47 -20 -84t-57.5 -61.5t-77.5 -40.5t-92 -28h-108v-276l104 -10l-3 -23l-155 2zM220 341h82q70 0 114 47.5t44 122.5q0 73 -36.5 118t-109.5 45l-94 -6v-327z" />
    <glyph glyph-name="Q" unicode="Q" horiz-adv-x="771" 
d="M526 -41l119 -93l52 -11l-2 -23h-152l-167 151h-1q-148 0 -242 100t-94 252q0 164 87.5 258.5t268.5 123.5q149 0 243 -100t94 -252q0 -155 -78.5 -248t-241.5 -127zM157 367q0 -143 65.5 -244t180.5 -101q102 0 156.5 87t54.5 224q0 91 -27 168t-84.5 127t-134.5 50
q-101 0 -156 -87t-55 -224z" />
    <glyph glyph-name="R" unicode="R" horiz-adv-x="667" 
d="M611 32l51 -11l-2 -22l-89 2l-68 -2l-206 322l-5 6h-72v-295l79 -10l-2 -23l-130 2l-136 -2l-2 23l85 10v636l-85 10l2 23l137 -2l186 2q95 0 156.5 -43t61.5 -131q0 -82 -64.5 -129t-167.5 -65l95 -35zM220 356h63q81 0 127 45t46 119t-39.5 113.5t-103.5 40.5l-93 -6
v-312z" />
    <glyph glyph-name="S" unicode="S" horiz-adv-x="545" 
d="M256 -17q-115 0 -204 63l-11 151h40l40 -99q63 -72 152 -72q63 0 100 35t37 92q0 87 -109 142l-121 63q-60 31 -91.5 67t-31.5 95q0 75 60.5 125.5t170.5 71.5q104 0 187 -50v-148h-30l-41 108q-53 53 -125 53q-59 0 -94 -31t-35 -82q0 -41 24.5 -69.5t73.5 -52.5
l118 -61q67 -34 101.5 -76t34.5 -105q0 -163 -246 -220z" />
    <glyph glyph-name="T" unicode="T" horiz-adv-x="589" 
d="M140 -1l-2 23l104 10v637h-146l-59 -157h-24v189l282 -2l282 2v-189h-25l-58 157h-146v-637l102 -10l-3 -23l-152 2z" />
    <glyph glyph-name="U" unicode="U" horiz-adv-x="694" 
d="M360 -17q-263 0 -263 264v421l-84 10l2 23l134 -2l136 2l3 -23l-83 -10v-433q0 -94 45.5 -149.5t131.5 -55.5q77 0 122 56.5t45 149.5v432l-86 10l3 23l109 -2l104 2l3 -23l-83 -10v-426q0 -104 -52 -168t-187 -91z" />
    <glyph glyph-name="V" unicode="V" horiz-adv-x="716" 
d="M334 -14l-255 683l-74 9l3 23l134 -2l136 2l3 -23l-83 -10l192 -543l2 -28l199 571l-86 10l3 23l107 -2l93 2l3 -23l-76 -9l-239 -660z" />
    <glyph glyph-name="W" unicode="W" horiz-adv-x="994" 
d="M292 -10l-222 679l-60 9l2 23l123 -2l128 2l3 -23l-83 -10l164 -523l1 -29l127 417l-44 136l-62 9l2 23l126 -2l127 2l2 -23l-83 -10l165 -523l1 -29l170 553l-87 9l3 23l104 -2l83 2l2 -23l-62 -9l-210 -660l-59 -19l-153 464l-1 30l-148 -475z" />
    <glyph glyph-name="X" unicode="X" horiz-adv-x="709" 
d="M13 -1l-3 24l90 8l208 298l-218 341l-72 8l2 23l137 -2l138 2l2 -23l-79 -9l152 -247l6 -19l178 265l-97 10l2 23l117 -2l112 2l2 -23l-88 -9l-202 -292l226 -346l68 -8l-2 -24l-129 2l-145 -2l-2 24l81 9l-157 249l-8 21l-183 -270l94 -9l-2 -24l-117 2z" />
    <glyph glyph-name="Y" unicode="Y" horiz-adv-x="700" 
d="M191 -1l-2 23l113 10v242l-223 396l-74 8l3 23l137 -2l138 2l2 -23l-86 -9l186 -333l3 -20l186 353l-91 9l3 23l112 -2l94 2l3 -22l-75 -9l-212 -390v-248l112 -10l-3 -23l-160 2z" />
    <glyph glyph-name="Z" unicode="Z" horiz-adv-x="571" 
d="M24 0l-5 29l388 624l20 17l-287 -2l-63 -153h-28v185h486l5 -26l-389 -626l-20 -18l306 2l77 160h29l-18 -192h-501z" />
    <glyph glyph-name="bracketleft" unicode="[" horiz-adv-x="321" 
d="M84 -231v946l67 -1l135 1v-23l-130 -8q-2 -278 -2 -410q0 -156 2 -474l130 -8v-23l-135 2z" />
    <glyph glyph-name="backslash" unicode="\" horiz-adv-x="432" 
d="M419 -230l-451 948h43l453 -948h-45z" />
    <glyph glyph-name="bracketright" unicode="]" horiz-adv-x="319" 
d="M35 -231v23l130 8q2 165 2 484q0 266 -2 400l-130 8v23l136 -1l63 1v-946l-64 2z" />
    <glyph glyph-name="asciicircum" unicode="^" horiz-adv-x="375" 
d="M50 460l124 245h28l123 -245h-50l-87 188l-88 -188h-50z" />
    <glyph glyph-name="underscore" unicode="_" horiz-adv-x="600" 
d="M23 -113v39h555v-39h-555z" />
    <glyph glyph-name="grave" unicode="`" horiz-adv-x="600" 
d="M271 548l-128 162h102l53 -162h-27z" />
    <glyph glyph-name="a" unicode="a" horiz-adv-x="467" 
d="M170 -15q-63 0 -102 32.5t-39 90.5q0 56 45 98l220 72v59q0 26 -2 40.5t-8.5 30t-22 22t-40.5 6.5q-27 0 -70 -15l-20 -94h-86v75l184 81q95 0 128 -33t33 -120v-207q0 -46 17 -83l52 3l3 -22l-138 -27l-25 82zM191 49q27 0 70 27l33 24v154l-134 -54q-33 -30 -33 -74
q0 -37 18 -57t46 -20z" />
    <glyph glyph-name="b" unicode="b" horiz-adv-x="538" 
d="M252 -15q-95 0 -173 41v638l-65 -7l-4 23l134 32l30 2v-327l139 96q79 0 133 -59.5t54 -159.5q0 -237 -248 -279zM269 19q57 0 93.5 57t36.5 153q0 85 -28.5 134t-79.5 49q-37 0 -90 -37l-27 -19v-295q30 -42 95 -42z" />
    <glyph glyph-name="c" unicode="c" horiz-adv-x="445" 
d="M259 -15q-99 0 -161 62.5t-62 171.5q0 111 68 177t170 87q33 0 73 -15.5t64 -35.5v-96h-75l-32 99q-21 11 -47 11q-54 0 -90.5 -48.5t-36.5 -135.5q0 -88 44.5 -145.5t118.5 -57.5q57 0 117 44l10 -23q-71 -59 -161 -95z" />
    <glyph glyph-name="d" unicode="d" horiz-adv-x="554" 
d="M231 -15q-87 0 -142 65t-55 164q0 111 60.5 180.5t172.5 88.5q46 0 93 -26v207l-66 -7l-3 23l133 32l31 2v-591q0 -47 17 -81l60 4l3 -23l-144 -29l-27 86zM246 57q38 0 88 38l26 19v293q-32 40 -90 40q-64 0 -99.5 -53.5t-35.5 -146.5q0 -84 31 -137t80 -53z" />
    <glyph glyph-name="e" unicode="e" horiz-adv-x="469" 
d="M424 103l11 -23q-71 -57 -172 -95q-96 0 -162.5 63t-66.5 173q0 108 60 173.5t163 88.5q90 0 132.5 -49.5t42.5 -134.5v-36h-306q2 -94 48 -148.5t125 -54.5q59 0 125 43zM235 445q-48 0 -76.5 -40.5t-32.5 -115.5l203 5v8q0 70 -20 106.5t-74 36.5z" />
    <glyph glyph-name="f" unicode="f" horiz-adv-x="335" 
d="M36 -1l-2 23l67 8v402h-76v9l15 22h61v11q0 84 50 137l92 99h117v-78h-138l-11 -19q-15 -31 -15 -116v-36h125v-29h-125v-402l110 -6l-3 -25l-154 2z" />
    <glyph glyph-name="g" unicode="g" horiz-adv-x="506" 
d="M227 -243q-104 0 -156 31.5t-52 99.5v18l112 84q-48 14 -66 39t-18 62v11l100 71q-47 17 -74.5 52t-27.5 81q0 65 47 108t147 69q53 0 94.5 -20.5t62.5 -55.5l53 76h52v-88h-74l-19 -12q10 -20 10 -46q0 -65 -47 -108.5t-146 -68.5q-31 0 -53 6l-47 -50q0 -49 51 -49h184
q58 0 88.5 -28t30.5 -71q0 -65 -69 -120.5t-183 -90.5zM240 193q39 0 61 30t22 83q0 57 -23.5 100.5t-76.5 43.5q-39 0 -61 -31.5t-22 -86.5t23.5 -97t76.5 -42zM235 -192q69 0 117 35t48 84q0 58 -87 58h-159q-48 -47 -48 -88q0 -40 35 -65t94 -24z" />
    <glyph glyph-name="h" unicode="h" horiz-adv-x="579" 
d="M36 -1l-3 23l66 8v634l-66 -6l-3 22l134 32l30 2v-335l164 104q81 0 106 -38t25 -122v-293l73 -8l-2 -23l-117 2l-96 -2l-2 23l48 8v305q0 78 -62 78q-16 0 -35.5 -7t-30 -13t-37.5 -23l-34 -21v-319l51 -8l-2 -23l-95 2z" />
    <glyph glyph-name="i" unicode="i" horiz-adv-x="284" 
d="M121 586l-26 5l-6 55l10 46l70 5l27 -5l5 -53l-10 -48zM37 -1l-3 23l66 8v396l-67 -10l-3 22l135 35l30 2v-445l69 -8l-3 -23l-112 2z" />
    <glyph glyph-name="j" unicode="j" horiz-adv-x="265" 
d="M124 586l-26 5l-6 55l10 46l70 5l27 -5l5 -53l-10 -48zM-20 -236v88h102l6 18q13 39 13 109v447l-67 -10l-3 22l135 35l30 2v-477q0 -43 -12 -71t-40 -59l-90 -104h-74z" />
    <glyph glyph-name="k" unicode="k" horiz-adv-x="543" 
d="M36 -1l-3 23l66 8v634l-65 -7l-4 23l134 32l30 2v-448l14 6l196 166l-51 8v23l83 -2l78 2l2 -23l-61 -8l-208 -169h47l200 -239l44 -8l-3 -23l-86 2l-60 -2l-189 242l-6 13v-224l59 -8l-3 -23l-101 2z" />
    <glyph glyph-name="l" unicode="l" horiz-adv-x="277" 
d="M36 -1l-3 23l66 8v634l-66 -7l-3 23l134 32l30 2v-684l68 -8l-2 -23l-112 2z" />
    <glyph glyph-name="m" unicode="m" horiz-adv-x="856" 
d="M37 -1l-3 23l67 8v396l-68 -11l-3 23l135 35l27 1l2 -95l156 104q63 0 93 -25.5t35 -79.5l158 105q78 0 104 -35.5t26 -123.5v-294l74 -8l-3 -23l-116 2l-97 -2l-3 23l49 8v304q0 42 -14.5 60t-44.5 18q-36 0 -98 -42l-32 -22v-318l46 -8l-3 -23l-88 2l-95 -2l-2 23l46 8
v304q0 42 -15 60t-45 18q-35 0 -97 -42l-33 -22v-318l49 -8l-2 -23l-93 2z" />
    <glyph glyph-name="n" unicode="n" horiz-adv-x="581" 
d="M37 -1l-3 23l67 8v396l-68 -11l-3 23l135 35l27 1l2 -96l165 105q79 0 105 -34t26 -120v-299l74 -8l-2 -23l-116 2l-98 -2l-2 23l48 8v305q0 78 -63 78q-17 0 -36.5 -7.5t-28.5 -12.5t-37 -23l-34 -21v-319l51 -8l-2 -23l-94 2z" />
    <glyph glyph-name="o" unicode="o" horiz-adv-x="531" 
d="M252 -15q-96 0 -157 67.5t-61 170.5q0 213 244 260q96 0 157.5 -67.5t61.5 -170.5q0 -214 -245 -260zM278 20q56 0 86.5 54t30.5 144q0 105 -40 167t-103 62q-57 0 -87 -53.5t-30 -144.5q0 -99 40 -164t103 -65z" />
    <glyph glyph-name="p" unicode="p" horiz-adv-x="540" 
d="M21 -231l-2 23l66 8v627l-67 -11l-3 22l133 35l27 1l4 -89l136 98q87 0 139 -62t52 -162q0 -229 -237 -274q-52 0 -89 25v-210l101 -8l-3 -23l-143 2zM277 20q58 0 93 54.5t35 147.5q0 86 -30 138.5t-80 52.5q-32 0 -91 -41l-24 -17v-285q33 -50 97 -50z" />
    <glyph glyph-name="q" unicode="q" horiz-adv-x="528" 
d="M263 -231l-3 23l100 8v275l-129 -90q-86 0 -141.5 61.5t-55.5 164.5q0 113 66.5 184.5t179.5 87.5q65 0 132 -37l29 33h14v-679l68 -8l-3 -23l-112 2zM251 56q32 0 71 24l38 26v286q-25 57 -88 57q-61 0 -99 -53t-38 -149q0 -84 31 -137.5t85 -53.5z" />
    <glyph glyph-name="r" unicode="r" horiz-adv-x="385" 
d="M37 -1l-3 23l67 8v396l-68 -11l-3 23l133 35l25 1l3 -144l106 148h73v-101h-95q-11 -3 -70 -70l-10 -12v-263l97 -8l-3 -25l-140 2z" />
    <glyph glyph-name="s" unicode="s" horiz-adv-x="403" 
d="M193 -15q-74 0 -153 43l-9 123h36l43 -94q43 -36 90 -36q39 0 60.5 20.5t21.5 51.5q0 32 -16.5 50.5t-60.5 43.5l-79 46q-83 47 -83 115q0 49 42 81.5t127 53.5q80 0 144 -40v-114h-32l-37 90q-35 30 -84 30q-32 0 -53.5 -17t-21.5 -45q0 -27 17.5 -44.5t56.5 -39.5
l81 -46q47 -26 67 -54.5t20 -69.5q0 -57 -44.5 -92.5t-132.5 -55.5z" />
    <glyph glyph-name="t" unicode="t" horiz-adv-x="344" 
d="M209 -15q-119 0 -119 130v317h-85v8l18 23h69v71l79 59h14v-134h145v-27h-145v-316q0 -30 16 -47t41 -17q37 0 84 25l11 -22z" />
    <glyph glyph-name="u" unicode="u" horiz-adv-x="556" 
d="M216 -15q-82 0 -108.5 34.5t-26.5 119.5v287l-67 -6l-3 24l135 27l31 2v-339q0 -79 64 -79q35 0 97 41l33 19v311l-63 -6l-3 24l130 27l30 2v-344q0 -48 13 -89l51 3l3 -23l-136 -26l-23 90z" />
    <glyph glyph-name="v" unicode="v" horiz-adv-x="536" 
d="M237 -16l-175 454l-57 8l3 23l113 -2l105 2l2 -23l-61 -8l126 -346l4 -35l129 381l-59 8l3 23l84 -2l74 2l3 -23l-61 -8l-156 -421z" />
    <glyph glyph-name="w" unicode="w" horiz-adv-x="831" 
d="M223 -15l-161 453l-57 8l3 23l107 -2l102 2l2 -23l-56 -8l118 -350l4 -30l109 316l-23 64l-47 8l3 23l99 -2l100 2l3 -23l-56 -8l118 -350l4 -30l128 380l-59 8l3 23l76 -2l80 2l3 -23l-60 -8l-151 -421l-82 -32l-114 318l-3 33l-110 -319z" />
    <glyph glyph-name="x" unicode="x" horiz-adv-x="538" 
d="M14 -1l-3 23l71 8l148 188l-149 219l-57 9l2 23l116 -2l92 2l3 -23l-38 -9l92 -141l4 -13l110 154l-66 9l3 23l85 -2l92 2l3 -23l-72 -9l-132 -172l157 -235l57 -8l-3 -23l-110 2l-98 -2l-3 23l40 8l-103 154l-3 12l-123 -166l66 -8l-2 -23l-88 2z" />
    <glyph glyph-name="y" unicode="y" horiz-adv-x="536" 
d="M87 -235v97h98l102 168l-62 -25l-163 433l-57 8l3 23l112 -2l106 2l2 -23l-61 -8l125 -342l4 -36l129 378l-58 8l3 23l82 -2l77 2l2 -23l-61 -8l-152 -411l-117 -262h-114z" />
    <glyph glyph-name="z" unicode="z" horiz-adv-x="463" 
d="M40 0l-7 19l276 409l19 15l-189 -3l-52 -117h-25v145h366l7 -19l-274 -411l-17 -13l202 3l61 122h27l-14 -150h-380z" />
    <glyph glyph-name="braceleft" unicode="{" horiz-adv-x="343" 
d="M253 -230q-61 0 -99.5 38.5t-38.5 101.5l1 286l-66 54v7q23 9 37.5 21.5t20 31.5t7 33.5t1.5 40.5l-1 191q0 63 39 101.5t98 38.5h48v-23h-47q-30 0 -49.5 -25t-18.5 -82l3 -198q0 -90 -78 -125l78 -51l-3 -311q-1 -57 19.5 -82t51.5 -25h47v-23h-50z" />
    <glyph glyph-name="bar" unicode="|" horiz-adv-x="261" 
d="M110 -245v963h41v-963h-41z" />
    <glyph glyph-name="braceright" unicode="}" horiz-adv-x="343" 
d="M43 -230v23h47q30 0 49.5 25t18.5 81l-3 224q-2 87 77 125l-77 51l3 286q1 57 -19.5 82t-51.5 25h-47v23h49q61 0 99.5 -38.5t38.5 -101.5v-261l66 -54v-7q-23 -9 -37.5 -21.5t-20 -31.5t-7 -33.5t-1.5 -40.5v-216q0 -63 -38.5 -101.5t-97.5 -38.5h-48z" />
    <glyph glyph-name="asciitilde" unicode="~" horiz-adv-x="669" 
d="M50 199l38 87l96 23l367 -58l45 66h23l-39 -87l-94 -22l-368 59l-45 -68h-23z" />
    <glyph glyph-name="uni00A0" unicode="&#xa0;" horiz-adv-x="185" 
 />
    <glyph glyph-name="exclamdown" unicode="&#xa1;" horiz-adv-x="260" 
d="M108 368l-27 5l-4 52l6 45l70 6l26 -6l5 -53l-6 -44zM79 -239l7 302l30 191h29l30 -190l7 -303h-103z" />
    <glyph glyph-name="cent" unicode="&#xa2;" horiz-adv-x="456" 
d="M427 80q-66 -56 -145 -88v-72h-33v66q-92 5 -149 67t-57 166q0 103 59 167.5t152 90.5v69h32v-63q32 -1 70.5 -16.5t61.5 -34.5v-96h-75l-32 99q-21 11 -47 11q-54 0 -90.5 -48.5t-36.5 -135.5q0 -88 44.5 -145.5t118.5 -57.5q57 0 117 44z" />
    <glyph glyph-name="sterling" unicode="&#xa3;" horiz-adv-x="561" 
d="M491 159h30l-13 -159l-337 1l-128 -1l-3 22l90 28v289h-85v9l17 23h68v117q0 97 48.5 146.5t171.5 80.5q97 0 138 -47v-121h-37l-31 95q-36 39 -84 39q-53 0 -82 -38.5t-29 -98.5v-173h177v-32h-177v-174q0 -100 -36 -134l247 2z" />
    <glyph glyph-name="currency" unicode="&#xa4;" 
d="M115 130l-32 32l64 63q-46 57 -46 131t46 131l-64 63l32 32l63 -63q57 46 132 46t132 -46l63 63l32 -32l-64 -63q46 -57 46 -131t-46 -131l64 -63l-32 -32l-63 63q-57 -46 -132 -46t-132 46zM310 184q72 0 120.5 50.5t48.5 121.5t-48.5 121.5t-120.5 50.5t-120.5 -50.5
t-48.5 -121.5t48.5 -121.5t120.5 -50.5z" />
    <glyph glyph-name="yen" unicode="&#xa5;" horiz-adv-x="676" 
d="M582 670l-183 -390v-9h129v-28h-129v-68h129v-28h-130v-115l111 -10l-2 -23l-160 2l-166 -2l-2 23l114 10v115h-126v28h125v68h-125v28h125v1l-198 397l-74 9l3 23l137 -2l137 2l3 -23l-85 -10l159 -339l4 -21l158 360l-92 10l3 23l111 -2l95 2l3 -23z" />
    <glyph glyph-name="brokenbar" unicode="&#xa6;" horiz-adv-x="261" 
d="M110 288v430h41v-430h-41zM110 -245v430h41v-430h-41z" />
    <glyph glyph-name="section" unicode="&#xa7;" horiz-adv-x="533" 
d="M490 245q0 -129 -120 -190l82 -55v-41q0 -155 -198 -204q-44 0 -90.5 15.5t-74.5 39.5v121h34l29 -89q52 -54 117 -54q49 0 78 34t29 91v16l-178 121q-79 54 -113.5 101.5t-34.5 99.5q0 98 110 151q-69 68 -69 136q0 67 51.5 113t144.5 64q109 -3 152 -48v-113h-34
l-29 86q-36 43 -99 43q-52 0 -80 -26.5t-28 -73.5q0 -43 31.5 -81.5t118.5 -98.5l171 -119v-39zM415 196v15l-159 113q-44 32 -77 61q-53 -32 -53 -93q0 -39 28.5 -74t106.5 -89l88 -59q66 44 66 126z" />
    <glyph glyph-name="dieresis" unicode="&#xa8;" horiz-adv-x="600" 
d="M140 583l-24 5l-4 47l8 39l59 5l23 -5l6 -46l-10 -40zM315 583l-24 5l-5 47l9 39l58 5l24 -5l6 -46l-10 -40z" />
    <glyph glyph-name="copyright" unicode="&#xa9;" horiz-adv-x="835" 
d="M419 -15q-155 2 -262 102t-107 269q0 153 98 243.5t269 115.5q154 -2 261 -102t107 -269q0 -153 -97.5 -243.5t-268.5 -115.5zM417 14q128 0 219 90t91 240q0 84 -30.5 152t-77.5 108t-99 61t-101 21q-129 0 -220 -90t-91 -240q0 -84 30.5 -152t77.5 -108t99.5 -61
t101.5 -21zM429 141q-90 0 -152.5 53.5t-62.5 147.5q0 96 59.5 150.5t164.5 66.5q77 0 143 -37v-91h-23l-31 69q-37 37 -91 37q-62 0 -100 -47t-38 -135q0 -80 38.5 -135.5t107.5 -55.5q46 0 80 32l39 79h21l-7 -94q-86 -34 -148 -40z" />
    <glyph glyph-name="ordfeminine" unicode="&#xaa;" horiz-adv-x="429" 
d="M161 313q-53 0 -85 26.5t-32 72.5t38 80l180 57v49q0 40 -10.5 57.5t-47.5 17.5q-24 0 -55 -11l-16 -78h-76v61l154 66q79 0 107.5 -26t28.5 -95v-165q0 -38 14 -66l41 3l3 -20l-118 -23l-21 66zM181 367q25 0 55 20l26 17v124l-105 -40q-27 -24 -27 -60q0 -29 14.5 -45
t36.5 -16z" />
    <glyph glyph-name="guillemotleft" unicode="&#xab;" horiz-adv-x="439" 
d="M196 15l-181 220l182 220h32l-129 -221l129 -219h-33zM377 15l-181 220l182 220h31l-129 -221l129 -219h-32z" />
    <glyph glyph-name="logicalnot" unicode="&#xac;" 
d="M522 180v140h-470v44h515v-184h-45z" />
    <glyph glyph-name="uni00AD" unicode="&#xad;" horiz-adv-x="370" 
d="M34 252v48h302v-48h-302z" />
    <glyph glyph-name="registered" unicode="&#xae;" horiz-adv-x="592" 
d="M295 685q106 -1 179 -69.5t73 -184.5q0 -105 -66.5 -167t-183.5 -79q-106 1 -179 69.5t-73 184.5q0 105 66.5 167t183.5 79zM295 205q87 0 148.5 61.5t61.5 164.5q0 58 -20.5 104.5t-52.5 73.5t-67 41.5t-68 14.5q-87 0 -148.5 -61.5t-61.5 -164.5q0 -110 67 -172
t141 -62zM356 416l65 -98l20 -4l-1 -13l-43 1l-36 -1l-79 126h-25v-109l30 -4l-1 -13l-59 1l-60 -1l-1 13l32 4v238l-32 3l1 13l60 -1l89 1q38 0 63.5 -17.5t25.5 -49.5q0 -57 -100 -73zM257 557v-115h23q28 0 44.5 16t16.5 44q0 26 -15 41.5t-38 15.5z" />
    <glyph glyph-name="macron" unicode="&#xaf;" horiz-adv-x="600" 
d="M109 609v47h282v-47h-282z" />
    <glyph glyph-name="degree" unicode="&#xb0;" horiz-adv-x="419" 
d="M209 444q-64 0 -109 45.5t-45 108.5t37.5 98.5t117.5 56.5q64 0 109 -45t45 -109q0 -62 -37.5 -98t-117.5 -57zM209 489q47 0 78 32t31 77t-32 77.5t-76 32.5q-47 0 -78.5 -32t-31.5 -77t32.5 -77.5t76.5 -32.5z" />
    <glyph glyph-name="plusminus" unicode="&#xb1;" 
d="M283 139v231h-235v45h235v239h45v-239h235v-45h-235v-231h-45zM48 0v45h524v-45h-524z" />
    <glyph glyph-name="uni00B2" unicode="&#xb2;" horiz-adv-x="376" 
d="M37 400l-10 17l91 92q111 111 111 185q0 32 -15.5 51.5t-40.5 19.5q-18 0 -39 -7l-21 -81h-66v70l140 47q62 0 95.5 -27.5t33.5 -70.5q0 -51 -35.5 -93.5t-111.5 -93.5l-81 -55l31 11h211v-17l-20 -48h-273z" />
    <glyph glyph-name="uni00B3" unicode="&#xb3;" horiz-adv-x="353" 
d="M43 399v67h144q31 25 31 59q0 31 -26 50.5t-75 19.5l-4 16l29 14q35 16 48.5 34.5t13.5 47.5q0 26 -13 41t-34 15q-12 0 -31 -7l-21 -72h-64v65l142 45q53 0 78 -20.5t25 -49.5q0 -61 -103 -90q57 -3 88 -28t31 -58q0 -21 -8.5 -37t-29 -30.5t-36 -23t-48.5 -23.5
l-78 -35h-59z" />
    <glyph glyph-name="acute" unicode="&#xb4;" horiz-adv-x="600" 
d="M144 548l53 162h102l-128 -162h-27z" />
    <glyph glyph-name="uni00B5" unicode="&#xb5;" 
d="M469 64q14 -33 70 -44l-2 -20h-119l-44 78v5l-142 -98q-92 0 -114 52v-67l69 -200h-107v698h96v-320q0 -93 71 -93q30 0 94 41l33 20v352h95v-404z" />
    <glyph glyph-name="paragraph" unicode="&#xb6;" horiz-adv-x="485" 
d="M184 -159v562q-64 0 -109 36.5t-45 98.5q0 47 38.5 84t111.5 78h265v-30l-50 -8v-821h-41v822h-128v-822h-42z" />
    <glyph glyph-name="periodcentered" unicode="&#xb7;" horiz-adv-x="222" 
d="M88 347l-28 5l-5 56l6 46l72 5l29 -5l5 -54l-6 -48z" />
    <glyph glyph-name="cedilla" unicode="&#xb8;" horiz-adv-x="600" 
d="M163 -243l28 39h75q30 19 30 63q0 29 -21 43t-51 16l62 89l22 -4l-34 -51q35 -2 58.5 -22t23.5 -53q0 -65 -89 -98l-62 -22h-42z" />
    <glyph glyph-name="uni00B9" unicode="&#xb9;" horiz-adv-x="311" 
d="M43 399l-2 19l83 7v309l3 7l-14 -8l-69 -17l-8 17l141 56h26v-364l83 -7l-2 -19l-119 2z" />
    <glyph glyph-name="ordmasculine" unicode="&#xba;" horiz-adv-x="477" 
d="M226 313q-79 0 -129 53.5t-50 136.5q0 168 203 208q79 0 129.5 -53.5t50.5 -136.5q0 -170 -204 -208zM248 343q44 0 68.5 41t24.5 112q0 86 -32 135.5t-82 49.5q-44 0 -67.5 -41t-23.5 -114q0 -81 31.5 -132t80.5 -51z" />
    <glyph glyph-name="guillemotright" unicode="&#xbb;" horiz-adv-x="439" 
d="M30 15l129 219l-129 221h31l183 -220l-181 -220h-33zM211 15l129 219l-129 221h31l182 -220l-181 -220h-32z" />
    <glyph glyph-name="onequarter" unicode="&#xbc;" horiz-adv-x="799" 
d="M151 -50l387 760h42l-385 -760h-44zM43 314l-2 19l83 7v309l3 7l-14 -8l-69 -17l-8 17l141 56h26v-364l83 -7l-2 -19l-119 2zM620 0v108h-157l-15 24l188 253h82v-21l-235 -228l15 6h122v71l66 45h9v-116h77v-34h-77v-108h-75z" />
    <glyph glyph-name="onehalf" unicode="&#xbd;" horiz-adv-x="796" 
d="M151 -50l387 760h42l-385 -760h-44zM43 314l-2 19l83 7v309l3 7l-14 -8l-69 -17l-8 17l141 56h26v-364l83 -7l-2 -19l-119 2zM457 0l-10 17l91 92q111 111 111 185q0 32 -15.5 51.5t-40.5 19.5q-18 0 -39 -7l-21 -81h-66v70l140 47q62 0 95.5 -27.5t33.5 -70.5
q0 -51 -35.5 -93.5t-111.5 -93.5l-81 -55l31 11h211v-17l-20 -48h-273z" />
    <glyph glyph-name="threequarters" unicode="&#xbe;" horiz-adv-x="841" 
d="M193 -50l387 760h42l-385 -760h-44zM43 314v67h144q31 25 31 59q0 31 -26 50.5t-75 19.5l-4 16l29 14q35 16 48.5 34.5t13.5 47.5q0 26 -13 41t-34 15q-12 0 -31 -7l-21 -72h-64v65l142 45q53 0 78 -20.5t25 -49.5q0 -61 -103 -90q57 -3 88 -28t31 -58q0 -21 -8.5 -37
t-29 -30.5t-36 -23t-48.5 -23.5l-78 -35h-59zM662 0v108h-157l-15 24l188 253h82v-21l-235 -228l15 6h122v71l66 45h9v-116h77v-34h-77v-108h-75z" />
    <glyph glyph-name="questiondown" unicode="&#xbf;" horiz-adv-x="381" 
d="M245 473l26 -5l5 -53l-7 -45l-69 -4l-27 4l-5 53l7 45zM244 252l12 -135l-39 -26q-96 -64 -96 -170q0 -58 26 -94t81 -38l33 101h60v-119l-96 -13q-102 8 -154 55.5t-52 112.5q0 118 128 175l53 25l6 126h38z" />
    <glyph glyph-name="Agrave" unicode="&#xc0;" horiz-adv-x="720" 
d="M357 767l-124 134h103l56 -134h-35zM10 -1l-3 23l75 9l242 654l67 26l248 -680l74 -9l-2 -23l-139 2l-132 -2l-2 23l84 10l-73 212h-248l-74 -212l86 -10l-2 -23l-108 2zM212 274h226l-106 309l-3 27z" />
    <glyph glyph-name="Aacute" unicode="&#xc1;" horiz-adv-x="720" 
d="M339 767l57 134h103l-124 -134h-36zM10 -1l-3 23l75 9l242 654l67 26l248 -680l74 -9l-2 -23l-139 2l-132 -2l-2 23l84 10l-73 212h-248l-74 -212l86 -10l-2 -23l-108 2zM212 274h226l-106 309l-3 27z" />
    <glyph glyph-name="Acircumflex" unicode="&#xc2;" horiz-adv-x="720" 
d="M215 767l118 137h52l118 -137h-36l-101 73l-7 8l-7 -8l-101 -73h-36zM10 -1l-3 23l75 9l242 654l67 26l248 -680l74 -9l-2 -23l-139 2l-132 -2l-2 23l84 10l-73 212h-248l-74 -212l86 -10l-2 -23l-108 2zM212 274h226l-106 309l-3 27z" />
    <glyph glyph-name="Atilde" unicode="&#xc3;" horiz-adv-x="720" 
d="M199 768l26 102l66 20l180 -65l33 68h17l-25 -102l-66 -20l-180 66l-34 -69h-17zM10 -1l-3 23l75 9l242 654l67 26l248 -680l74 -9l-2 -23l-139 2l-132 -2l-2 23l84 10l-73 212h-248l-74 -212l86 -10l-2 -23l-108 2zM212 274h226l-106 309l-3 27z" />
    <glyph glyph-name="Adieresis" unicode="&#xc4;" horiz-adv-x="720" 
d="M230 783l-24 4l-5 48l8 39l59 5l24 -5l5 -46l-9 -41zM449 783l-24 4l-5 48l9 39l58 5l24 -5l6 -46l-10 -41zM10 -1l-3 23l75 9l242 654l67 26l248 -680l74 -9l-2 -23l-139 2l-132 -2l-2 23l84 10l-73 212h-248l-74 -212l86 -10l-2 -23l-108 2zM212 274h226l-106 309
l-3 27z" />
    <glyph glyph-name="Aring" unicode="&#xc5;" horiz-adv-x="720" 
d="M359 731q-43 0 -73.5 23t-30.5 70q0 23 8 39.5t24.5 27.5t31 17t39.5 14q44 0 74.5 -23.5t30.5 -70.5q0 -23 -8 -39t-25.5 -27t-31 -17t-39.5 -14zM358 759q29 0 48 18.5t19 48.5t-19 48.5t-48 18.5t-47.5 -18.5t-18.5 -48.5t18.5 -48.5t47.5 -18.5zM10 -1l-3 23l75 9
l242 654l67 26l248 -680l74 -9l-2 -23l-139 2l-132 -2l-2 23l84 10l-73 212h-248l-74 -212l86 -10l-2 -23l-108 2zM212 274h226l-106 309l-3 27z" />
    <glyph glyph-name="AE" unicode="&#xc6;" horiz-adv-x="985" 
d="M8 0l-3 22l75 9l421 670l61 -2l377 2l5 -181h-22l-61 148l-247 2v-319l126 2l42 112h23l-5 -125l5 -130h-23l-42 111l-126 2v-293l255 2l66 153h24l-17 -186l-381 2l-135 -2l-2 23l85 10v290h-204l-178 -290l81 -10l-2 -22l-104 1zM321 350h188v313z" />
    <glyph glyph-name="Ccedilla" unicode="&#xc7;" horiz-adv-x="690" 
d="M394 -17h-5l-21 -31q35 -2 58.5 -22t23.5 -53q0 -65 -89 -98l-62 -22h-42l28 39h75q30 19 30 63q0 29 -21 43t-51 16l46 66q-138 10 -231.5 104t-93.5 250q0 167 99 263t271 116q123 0 234 -65v-151h-33l-47 116q-63 67 -162 67q-108 0 -176 -85t-68 -240q0 -140 69 -240
t193 -100q76 0 140 60l57 130h33l-13 -156q-117 -54 -242 -70z" />
    <glyph glyph-name="Egrave" unicode="&#xc8;" horiz-adv-x="616" 
d="M330 767l-124 134h103l56 -134h-35zM31 -1l-2 23l85 10v636l-85 10l2 23l134 -2l404 2l4 -182h-22l-62 149l-269 2v-289l149 2l42 112h23l-5 -126l5 -130h-23l-42 111l-149 2v-322l278 2l66 154h25l-18 -187l-406 2z" />
    <glyph glyph-name="Eacute" unicode="&#xc9;" horiz-adv-x="616" 
d="M312 767l57 134h103l-124 -134h-36zM31 -1l-2 23l85 10v636l-85 10l2 23l134 -2l404 2l4 -182h-22l-62 149l-269 2v-289l149 2l42 112h23l-5 -126l5 -130h-23l-42 111l-149 2v-322l278 2l66 154h25l-18 -187l-406 2z" />
    <glyph glyph-name="Ecircumflex" unicode="&#xca;" horiz-adv-x="616" 
d="M188 767l118 137h52l118 -137h-36l-101 73l-7 8l-7 -8l-101 -73h-36zM31 -1l-2 23l85 10v636l-85 10l2 23l134 -2l404 2l4 -182h-22l-62 149l-269 2v-289l149 2l42 112h23l-5 -126l5 -130h-23l-42 111l-149 2v-322l278 2l66 154h25l-18 -187l-406 2z" />
    <glyph glyph-name="Edieresis" unicode="&#xcb;" horiz-adv-x="616" 
d="M203 783l-24 4l-5 48l8 39l59 5l24 -5l5 -46l-9 -41zM422 783l-24 4l-5 48l9 39l58 5l24 -5l6 -46l-10 -41zM31 -1l-2 23l85 10v636l-85 10l2 23l134 -2l404 2l4 -182h-22l-62 149l-269 2v-289l149 2l42 112h23l-5 -126l5 -130h-23l-42 111l-149 2v-322l278 2l66 154h25
l-18 -187l-406 2z" />
    <glyph glyph-name="Igrave" unicode="&#xcc;" horiz-adv-x="333" 
d="M165 767l-124 134h103l56 -134h-35zM31 -1l-2 24l85 9v636l-85 10l2 23l136 -2l135 2l3 -23l-85 -10v-636l85 -9l-3 -24l-135 2z" />
    <glyph glyph-name="Iacute" unicode="&#xcd;" horiz-adv-x="333" 
d="M147 767l57 134h103l-124 -134h-36zM31 -1l-2 24l85 9v636l-85 10l2 23l136 -2l135 2l3 -23l-85 -10v-636l85 -9l-3 -24l-135 2z" />
    <glyph glyph-name="Icircumflex" unicode="&#xce;" horiz-adv-x="333" 
d="M23 767l118 137h52l118 -137h-36l-101 73l-7 8l-7 -8l-101 -73h-36zM31 -1l-2 24l85 9v636l-85 10l2 23l136 -2l135 2l3 -23l-85 -10v-636l85 -9l-3 -24l-135 2z" />
    <glyph glyph-name="Idieresis" unicode="&#xcf;" horiz-adv-x="333" 
d="M38 783l-24 4l-5 48l8 39l59 5l24 -5l5 -46l-9 -41zM257 783l-24 4l-5 48l9 39l58 5l24 -5l6 -46l-10 -41zM31 -1l-2 24l85 9v636l-85 10l2 23l136 -2l135 2l3 -23l-85 -10v-636l85 -9l-3 -24l-135 2z" />
    <glyph glyph-name="Eth" unicode="&#xd0;" horiz-adv-x="731" 
d="M358 701q156 0 245.5 -88t89.5 -247q0 -161 -86.5 -258t-253.5 -109l-185 2l-137 -2l-2 23l89 10v320h-79v25h79v291l-89 10l2 23l138 -2zM346 27q103 0 166.5 91t63.5 240q0 143 -63 229.5t-187 86.5l-102 -6v-291h130v-25h-130v-317z" />
    <glyph glyph-name="Ntilde" unicode="&#xd1;" horiz-adv-x="716" 
d="M210 768l26 102l66 20l180 -65l33 68h17l-25 -102l-66 -20l-180 66l-34 -69h-17zM565 -4l-402 607l-9 36v-607l84 -10l-2 -23l-100 2l-105 -2l-2 23l85 10v633l-83 13l2 23l110 -2l75 2l352 -524l11 -30v521l-84 10l2 23l99 -2l105 2l3 -23l-85 -10v-672h-56z" />
    <glyph glyph-name="Ograve" unicode="&#xd2;" horiz-adv-x="771" 
d="M386 767l-124 134h103l56 -134h-35zM375 -17q-148 0 -242 100t-94 252q0 164 87.5 258.5t268.5 123.5q149 0 243 -100t94 -252q0 -164 -87.5 -258.5t-269.5 -123.5zM403 22q102 0 156.5 87t54.5 224q0 91 -27 168t-84.5 127t-134.5 50q-101 0 -156 -87t-55 -224
q0 -143 65.5 -244t180.5 -101z" />
    <glyph glyph-name="Oacute" unicode="&#xd3;" horiz-adv-x="771" 
d="M368 767l57 134h103l-124 -134h-36zM375 -17q-148 0 -242 100t-94 252q0 164 87.5 258.5t268.5 123.5q149 0 243 -100t94 -252q0 -164 -87.5 -258.5t-269.5 -123.5zM403 22q102 0 156.5 87t54.5 224q0 91 -27 168t-84.5 127t-134.5 50q-101 0 -156 -87t-55 -224
q0 -143 65.5 -244t180.5 -101z" />
    <glyph glyph-name="Ocircumflex" unicode="&#xd4;" horiz-adv-x="771" 
d="M244 767l118 137h52l118 -137h-36l-101 73l-7 8l-7 -8l-101 -73h-36zM375 -17q-148 0 -242 100t-94 252q0 164 87.5 258.5t268.5 123.5q149 0 243 -100t94 -252q0 -164 -87.5 -258.5t-269.5 -123.5zM403 22q102 0 156.5 87t54.5 224q0 91 -27 168t-84.5 127t-134.5 50
q-101 0 -156 -87t-55 -224q0 -143 65.5 -244t180.5 -101z" />
    <glyph glyph-name="Otilde" unicode="&#xd5;" horiz-adv-x="771" 
d="M228 768l26 102l66 20l180 -65l33 68h17l-25 -102l-66 -20l-180 66l-34 -69h-17zM375 -17q-148 0 -242 100t-94 252q0 164 87.5 258.5t268.5 123.5q149 0 243 -100t94 -252q0 -164 -87.5 -258.5t-269.5 -123.5zM403 22q102 0 156.5 87t54.5 224q0 91 -27 168t-84.5 127
t-134.5 50q-101 0 -156 -87t-55 -224q0 -143 65.5 -244t180.5 -101z" />
    <glyph glyph-name="Odieresis" unicode="&#xd6;" horiz-adv-x="771" 
d="M259 783l-24 4l-5 48l8 39l59 5l24 -5l5 -46l-9 -41zM478 783l-24 4l-5 48l9 39l58 5l24 -5l6 -46l-10 -41zM375 -17q-148 0 -242 100t-94 252q0 164 87.5 258.5t268.5 123.5q149 0 243 -100t94 -252q0 -164 -87.5 -258.5t-269.5 -123.5zM403 22q102 0 156.5 87t54.5 224
q0 91 -27 168t-84.5 127t-134.5 50q-101 0 -156 -87t-55 -224q0 -143 65.5 -244t180.5 -101z" />
    <glyph glyph-name="multiply" unicode="&#xd7;" 
d="M137 22l-32 32l173 172l-173 173l32 32l173 -173l172 173l32 -32l-173 -173l173 -172l-32 -32l-172 173z" />
    <glyph glyph-name="Oslash" unicode="&#xd8;" horiz-adv-x="771" 
d="M627 628q105 -102 105 -263q0 -164 -87.5 -258.5t-269.5 -123.5q-117 0 -203 65l-50 -63h-40l66 83q-109 101 -109 267q0 164 87.5 258.5t268.5 123.5q121 0 209 -69l53 67h38zM157 367q0 -130 52 -221l339 431q-68 101 -180 101q-101 0 -156 -87t-55 -224zM403 22
q102 0 156.5 87t54.5 224q0 123 -49 216l-339 -431q67 -96 177 -96z" />
    <glyph glyph-name="Ugrave" unicode="&#xd9;" horiz-adv-x="694" 
d="M369 767l-124 134h103l56 -134h-35zM360 -17q-263 0 -263 264v421l-84 10l2 23l134 -2l136 2l3 -23l-83 -10v-433q0 -94 45.5 -149.5t131.5 -55.5q77 0 122 56.5t45 149.5v432l-86 10l3 23l109 -2l104 2l3 -23l-83 -10v-426q0 -104 -52 -168t-187 -91z" />
    <glyph glyph-name="Uacute" unicode="&#xda;" horiz-adv-x="694" 
d="M351 767l57 134h103l-124 -134h-36zM360 -17q-263 0 -263 264v421l-84 10l2 23l134 -2l136 2l3 -23l-83 -10v-433q0 -94 45.5 -149.5t131.5 -55.5q77 0 122 56.5t45 149.5v432l-86 10l3 23l109 -2l104 2l3 -23l-83 -10v-426q0 -104 -52 -168t-187 -91z" />
    <glyph glyph-name="Ucircumflex" unicode="&#xdb;" horiz-adv-x="694" 
d="M227 767l118 137h52l118 -137h-36l-101 73l-7 8l-7 -8l-101 -73h-36zM360 -17q-263 0 -263 264v421l-84 10l2 23l134 -2l136 2l3 -23l-83 -10v-433q0 -94 45.5 -149.5t131.5 -55.5q77 0 122 56.5t45 149.5v432l-86 10l3 23l109 -2l104 2l3 -23l-83 -10v-426
q0 -104 -52 -168t-187 -91z" />
    <glyph glyph-name="Udieresis" unicode="&#xdc;" horiz-adv-x="694" 
d="M242 783l-24 4l-5 48l8 39l59 5l24 -5l5 -46l-9 -41zM461 783l-24 4l-5 48l9 39l58 5l24 -5l6 -46l-10 -41zM360 -17q-263 0 -263 264v421l-84 10l2 23l134 -2l136 2l3 -23l-83 -10v-433q0 -94 45.5 -149.5t131.5 -55.5q77 0 122 56.5t45 149.5v432l-86 10l3 23l109 -2
l104 2l3 -23l-83 -10v-426q0 -104 -52 -168t-187 -91z" />
    <glyph glyph-name="Yacute" unicode="&#xdd;" horiz-adv-x="700" 
d="M364 767l57 134h103l-124 -134h-36zM191 -1l-2 23l113 10v242l-223 396l-74 8l3 23l137 -2l138 2l2 -23l-86 -9l186 -333l3 -20l186 353l-91 9l3 23l112 -2l94 2l3 -22l-75 -9l-212 -390v-248l112 -10l-3 -23l-160 2z" />
    <glyph glyph-name="Thorn" unicode="&#xde;" horiz-adv-x="586" 
d="M31 -1l-3 24l85 9v636l-85 10l3 23l135 -2l139 2l2 -23l-88 -10v-114l139 1q95 1 156 -46t61 -133q0 -160 -248 -216h-108v-128l102 -9l-3 -24l-151 2zM219 193h82q70 0 114 48t44 124q0 73 -36 117.5t-110 44.5l-94 -3v-331z" />
    <glyph glyph-name="germandbls" unicode="&#xdf;" horiz-adv-x="589" 
d="M396 -17q-71 0 -143 42l-3 120h30l37 -89q46 -36 89 -36q35 0 56.5 23.5t21.5 56.5q0 55 -68 103l-63 45q-79 55 -83 144l62 37q76 46 76 145q0 43 -25.5 76.5t-74.5 33.5q-55 0 -83 -42.5t-28 -121.5v-520l-48 1l-112 -2l-3 21l68 8v402h-77v9l16 22l61 2v34
q0 54 31 104.5t94 79.5l81 37q91 0 145.5 -35t54.5 -98q1 -108 -162 -173q2 -28 19 -50.5t57 -48.5l67 -45q80 -51 80 -124q0 -57 -48.5 -100t-124.5 -61z" />
    <glyph glyph-name="agrave" unicode="&#xe0;" horiz-adv-x="467" 
d="M223 548l-128 162h102l53 -162h-27zM170 -15q-63 0 -102 32.5t-39 90.5q0 56 45 98l220 72v59q0 26 -2 40.5t-8.5 30t-22 22t-40.5 6.5q-27 0 -70 -15l-20 -94h-86v75l184 81q95 0 128 -33t33 -120v-207q0 -46 17 -83l52 3l3 -22l-138 -27l-25 82zM191 49q27 0 70 27
l33 24v154l-134 -54q-33 -30 -33 -74q0 -37 18 -57t46 -20z" />
    <glyph glyph-name="aacute" unicode="&#xe1;" horiz-adv-x="467" 
d="M219 548l53 162h102l-128 -162h-27zM170 -15q-63 0 -102 32.5t-39 90.5q0 56 45 98l220 72v59q0 26 -2 40.5t-8.5 30t-22 22t-40.5 6.5q-27 0 -70 -15l-20 -94h-86v75l184 81q95 0 128 -33t33 -120v-207q0 -46 17 -83l52 3l3 -22l-138 -27l-25 82zM191 49q27 0 70 27
l33 24v154l-134 -54q-33 -30 -33 -74q0 -37 18 -57t46 -20z" />
    <glyph glyph-name="acircumflex" unicode="&#xe2;" horiz-adv-x="467" 
d="M91 548l116 162h47l117 -162h-32l-99 84l-9 13l-9 -13l-99 -84h-32zM170 -15q-63 0 -102 32.5t-39 90.5q0 56 45 98l220 72v59q0 26 -2 40.5t-8.5 30t-22 22t-40.5 6.5q-27 0 -70 -15l-20 -94h-86v75l184 81q95 0 128 -33t33 -120v-207q0 -46 17 -83l52 3l3 -22l-138 -27
l-25 82zM191 49q27 0 70 27l33 24v154l-134 -54q-33 -30 -33 -74q0 -37 18 -57t46 -20z" />
    <glyph glyph-name="atilde" unicode="&#xe3;" horiz-adv-x="467" 
d="M298 575l-179 70l-30 -70h-19l26 98l67 21l178 -69l31 69h18l-26 -101zM170 -15q-63 0 -102 32.5t-39 90.5q0 56 45 98l220 72v59q0 26 -2 40.5t-8.5 30t-22 22t-40.5 6.5q-27 0 -70 -15l-20 -94h-86v75l184 81q95 0 128 -33t33 -120v-207q0 -46 17 -83l52 3l3 -22
l-138 -27l-25 82zM191 49q27 0 70 27l33 24v154l-134 -54q-33 -30 -33 -74q0 -37 18 -57t46 -20z" />
    <glyph glyph-name="adieresis" unicode="&#xe4;" horiz-adv-x="467" 
d="M124 583l-24 5l-4 47l8 39l59 5l23 -5l6 -46l-10 -40zM299 583l-24 5l-5 47l9 39l58 5l24 -5l6 -46l-10 -40zM170 -15q-63 0 -102 32.5t-39 90.5q0 56 45 98l220 72v59q0 26 -2 40.5t-8.5 30t-22 22t-40.5 6.5q-27 0 -70 -15l-20 -94h-86v75l184 81q95 0 128 -33t33 -120
v-207q0 -46 17 -83l52 3l3 -22l-138 -27l-25 82zM191 49q27 0 70 27l33 24v154l-134 -54q-33 -30 -33 -74q0 -37 18 -57t46 -20z" />
    <glyph glyph-name="aring" unicode="&#xe5;" horiz-adv-x="467" 
d="M232 541q-44 0 -74.5 22.5t-30.5 70.5q0 23 7.5 39t25 27.5t31 17t39.5 14.5q104 0 104 -96q0 -11 -1.5 -19.5t-5.5 -16.5l-6.5 -13t-11 -11t-11.5 -8.5t-15 -7.5t-15.5 -6.5t-18 -6.5t-17.5 -6zM231 571q28 0 46.5 18t18.5 46q0 29 -18.5 48t-46.5 19t-46.5 -19
t-18.5 -48q0 -28 18 -46t47 -18zM170 -15q-63 0 -102 32.5t-39 90.5q0 56 45 98l220 72v59q0 26 -2 40.5t-8.5 30t-22 22t-40.5 6.5q-27 0 -70 -15l-20 -94h-86v75l184 81q95 0 128 -33t33 -120v-207q0 -46 17 -83l52 3l3 -22l-138 -27l-25 82zM191 49q27 0 70 27l33 24v154
l-134 -54q-33 -30 -33 -74q0 -37 18 -57t46 -20z" />
    <glyph glyph-name="ae" unicode="&#xe6;" horiz-adv-x="715" 
d="M670 103l11 -24q-75 -59 -175 -94q-62 0 -113.5 27t-80.5 79l-142 -106q-62 0 -101.5 33t-39.5 88q0 58 45 100l214 72v59q0 51 -11.5 75t-52.5 24q-30 0 -72 -15l-20 -96h-86v77l181 81q66 0 97.5 -13.5t44.5 -52.5q49 44 140 66q85 0 126.5 -50t41.5 -135v-37h-296
q1 -94 45.5 -147.5t120.5 -53.5q57 0 123 43zM487 445q-49 0 -75.5 -42.5t-29.5 -115.5l193 5q0 76 -18 114.5t-70 38.5zM257 80l37 28q-6 38 -6 79v66l-128 -53q-33 -28 -33 -75q0 -36 18.5 -56t45.5 -20q23 0 66 31z" />
    <glyph glyph-name="ccedilla" unicode="&#xe7;" horiz-adv-x="445" 
d="M235 -48q35 -2 58.5 -22t23.5 -53q0 -65 -89 -98l-62 -22h-42l28 39h75q30 19 30 63q0 29 -21 43t-51 16l48 68q-89 8 -143 69.5t-54 163.5q0 111 68 177t170 87q33 0 73 -15.5t64 -35.5v-96h-75l-32 99q-21 11 -47 11q-54 0 -90.5 -48.5t-36.5 -135.5q0 -88 44.5 -145.5
t118.5 -57.5q57 0 117 44l10 -23q-71 -59 -161 -95h-2z" />
    <glyph glyph-name="egrave" unicode="&#xe8;" horiz-adv-x="469" 
d="M277 548h-27l-128 162h102zM424 103l11 -23q-71 -57 -172 -95q-96 0 -162.5 63t-66.5 173q0 108 60 173.5t163 88.5q90 0 132.5 -49.5t42.5 -134.5v-36h-306q2 -94 48 -148.5t125 -54.5q59 0 125 43zM235 445q-48 0 -76.5 -40.5t-32.5 -115.5l203 5v8q0 70 -20 106.5
t-74 36.5z" />
    <glyph glyph-name="eacute" unicode="&#xe9;" horiz-adv-x="469" 
d="M401 710l-128 -162h-27l53 162h102zM424 103l11 -23q-71 -57 -172 -95q-96 0 -162.5 63t-66.5 173q0 108 60 173.5t163 88.5q90 0 132.5 -49.5t42.5 -134.5v-36h-306q2 -94 48 -148.5t125 -54.5q59 0 125 43zM235 445q-48 0 -76.5 -40.5t-32.5 -115.5l203 5v8
q0 70 -20 106.5t-74 36.5z" />
    <glyph glyph-name="ecircumflex" unicode="&#xea;" horiz-adv-x="469" 
d="M249 632l-99 -84h-32l116 162h47l117 -162h-32l-99 84l-9 13zM424 103l11 -23q-71 -57 -172 -95q-96 0 -162.5 63t-66.5 173q0 108 60 173.5t163 88.5q90 0 132.5 -49.5t42.5 -134.5v-36h-306q2 -94 48 -148.5t125 -54.5q59 0 125 43zM235 445q-48 0 -76.5 -40.5
t-32.5 -115.5l203 5v8q0 70 -20 106.5t-74 36.5z" />
    <glyph glyph-name="edieresis" unicode="&#xeb;" horiz-adv-x="469" 
d="M151 583l-24 5l-4 47l8 39l59 5l23 -5l6 -46l-10 -40zM326 583l-24 5l-5 47l9 39l58 5l24 -5l6 -46l-10 -40zM424 103l11 -23q-71 -57 -172 -95q-96 0 -162.5 63t-66.5 173q0 108 60 173.5t163 88.5q90 0 132.5 -49.5t42.5 -134.5v-36h-306q2 -94 48 -148.5t125 -54.5
q59 0 125 43zM235 445q-48 0 -76.5 -40.5t-32.5 -115.5l203 5v8q0 70 -20 106.5t-74 36.5z" />
    <glyph glyph-name="igrave" unicode="&#xec;" horiz-adv-x="284" 
d="M138 548l-128 162h102l53 -162h-27zM37 -1l-3 23l66 8v396l-67 -10l-3 22l135 35l30 2v-445l69 -8l-3 -23l-112 2z" />
    <glyph glyph-name="iacute" unicode="&#xed;" horiz-adv-x="284" 
d="M134 548l53 162h102l-128 -162h-27zM37 -1l-3 23l66 8v396l-67 -10l-3 22l135 35l30 2v-445l69 -8l-3 -23l-112 2z" />
    <glyph glyph-name="icircumflex" unicode="&#xee;" horiz-adv-x="284" 
d="M6 548l116 162h47l117 -162h-32l-99 84l-9 13l-9 -13l-99 -84h-32zM37 -1l-3 23l66 8v396l-67 -10l-3 22l135 35l30 2v-445l69 -8l-3 -23l-112 2z" />
    <glyph glyph-name="idieresis" unicode="&#xef;" horiz-adv-x="284" 
d="M39 583l-24 5l-4 47l8 39l59 5l23 -5l6 -46l-10 -40zM214 583l-24 5l-5 47l9 39l58 5l24 -5l6 -46l-10 -40zM37 -1l-3 23l66 8v396l-67 -10l-3 22l135 35l30 2v-445l69 -8l-3 -23l-112 2z" />
    <glyph glyph-name="eth" unicode="&#xf0;" horiz-adv-x="527" 
d="M313 628q177 -131 177 -353q0 -124 -58.5 -201t-165.5 -89q-111 17 -173.5 88t-62.5 178q0 93 49.5 156.5t138.5 65.5l162 -86q-22 135 -113 218l-119 -58v32l95 46q-49 39 -127 71l13 24q86 -29 157 -74l114 56v-32zM256 19q60 0 95.5 74.5t35.5 196.5q0 35 -3 68
l-35 18q-68 35 -105 35q-52 0 -81 -47.5t-29 -132.5q0 -102 33 -157t89 -55z" />
    <glyph glyph-name="ntilde" unicode="&#xf1;" horiz-adv-x="581" 
d="M358 575l-179 70l-30 -70h-19l26 98l67 21l178 -69l31 69h18l-26 -101zM37 -1l-3 23l67 8v396l-68 -11l-3 23l135 35l27 1l2 -96l165 105q79 0 105 -34t26 -120v-299l74 -8l-2 -23l-116 2l-98 -2l-2 23l48 8v305q0 78 -63 78q-17 0 -36.5 -7.5t-28.5 -12.5t-37 -23
l-34 -21v-319l51 -8l-2 -23l-94 2z" />
    <glyph glyph-name="ograve" unicode="&#xf2;" horiz-adv-x="531" 
d="M258 548l-128 162h102l53 -162h-27zM252 -15q-96 0 -157 67.5t-61 170.5q0 213 244 260q96 0 157.5 -67.5t61.5 -170.5q0 -214 -245 -260zM278 20q56 0 86.5 54t30.5 144q0 105 -40 167t-103 62q-57 0 -87 -53.5t-30 -144.5q0 -99 40 -164t103 -65z" />
    <glyph glyph-name="oacute" unicode="&#xf3;" horiz-adv-x="531" 
d="M254 548l53 162h102l-128 -162h-27zM252 -15q-96 0 -157 67.5t-61 170.5q0 213 244 260q96 0 157.5 -67.5t61.5 -170.5q0 -214 -245 -260zM278 20q56 0 86.5 54t30.5 144q0 105 -40 167t-103 62q-57 0 -87 -53.5t-30 -144.5q0 -99 40 -164t103 -65z" />
    <glyph glyph-name="ocircumflex" unicode="&#xf4;" horiz-adv-x="531" 
d="M126 548l116 162h47l117 -162h-32l-99 84l-9 13l-9 -13l-99 -84h-32zM252 -15q-96 0 -157 67.5t-61 170.5q0 213 244 260q96 0 157.5 -67.5t61.5 -170.5q0 -214 -245 -260zM278 20q56 0 86.5 54t30.5 144q0 105 -40 167t-103 62q-57 0 -87 -53.5t-30 -144.5
q0 -99 40 -164t103 -65z" />
    <glyph glyph-name="otilde" unicode="&#xf5;" horiz-adv-x="531" 
d="M333 575l-179 70l-30 -70h-19l26 98l67 21l178 -69l31 69h18l-26 -101zM252 -15q-96 0 -157 67.5t-61 170.5q0 213 244 260q96 0 157.5 -67.5t61.5 -170.5q0 -214 -245 -260zM278 20q56 0 86.5 54t30.5 144q0 105 -40 167t-103 62q-57 0 -87 -53.5t-30 -144.5
q0 -99 40 -164t103 -65z" />
    <glyph glyph-name="odieresis" unicode="&#xf6;" horiz-adv-x="531" 
d="M159 583l-24 5l-4 47l8 39l59 5l23 -5l6 -46l-10 -40zM334 583l-24 5l-5 47l9 39l58 5l24 -5l6 -46l-10 -40zM252 -15q-96 0 -157 67.5t-61 170.5q0 213 244 260q96 0 157.5 -67.5t61.5 -170.5q0 -214 -245 -260zM278 20q56 0 86.5 54t30.5 144q0 105 -40 167t-103 62
q-57 0 -87 -53.5t-30 -144.5q0 -99 40 -164t103 -65z" />
    <glyph glyph-name="divide" unicode="&#xf7;" 
d="M290 373l-26 5l-6 52l6 44l69 4l27 -4l4 -51l-6 -45zM47 225v44h525v-44h-525zM290 7l-26 5l-6 52l6 44l69 5l27 -5l4 -51l-6 -45z" />
    <glyph glyph-name="oslash" unicode="&#xf8;" horiz-adv-x="533" 
d="M436 416q61 -69 61 -171q0 -214 -245 -260q-81 0 -139 50l-38 -45h-35l54 63q-60 68 -60 170q0 213 244 260q83 0 139 -50l41 48h33zM135 249q0 -69 20 -123l209 244q-41 77 -112 77q-57 0 -87 -53.5t-30 -144.5zM278 20q56 0 86.5 54t30.5 144q0 74 -20 126l-208 -245
q40 -79 111 -79z" />
    <glyph glyph-name="ugrave" unicode="&#xf9;" horiz-adv-x="556" 
d="M263 548l-128 162h102l53 -162h-27zM216 -15q-82 0 -108.5 34.5t-26.5 119.5v287l-67 -6l-3 24l135 27l31 2v-339q0 -79 64 -79q35 0 97 41l33 19v311l-63 -6l-3 24l130 27l30 2v-344q0 -48 13 -89l51 3l3 -23l-136 -26l-23 90z" />
    <glyph glyph-name="uacute" unicode="&#xfa;" horiz-adv-x="556" 
d="M259 548l53 162h102l-128 -162h-27zM216 -15q-82 0 -108.5 34.5t-26.5 119.5v287l-67 -6l-3 24l135 27l31 2v-339q0 -79 64 -79q35 0 97 41l33 19v311l-63 -6l-3 24l130 27l30 2v-344q0 -48 13 -89l51 3l3 -23l-136 -26l-23 90z" />
    <glyph glyph-name="ucircumflex" unicode="&#xfb;" horiz-adv-x="556" 
d="M131 548l116 162h47l117 -162h-32l-99 84l-9 13l-9 -13l-99 -84h-32zM216 -15q-82 0 -108.5 34.5t-26.5 119.5v287l-67 -6l-3 24l135 27l31 2v-339q0 -79 64 -79q35 0 97 41l33 19v311l-63 -6l-3 24l130 27l30 2v-344q0 -48 13 -89l51 3l3 -23l-136 -26l-23 90z" />
    <glyph glyph-name="udieresis" unicode="&#xfc;" horiz-adv-x="556" 
d="M164 583l-24 5l-4 47l8 39l59 5l23 -5l6 -46l-10 -40zM339 583l-24 5l-5 47l9 39l58 5l24 -5l6 -46l-10 -40zM216 -15q-82 0 -108.5 34.5t-26.5 119.5v287l-67 -6l-3 24l135 27l31 2v-339q0 -79 64 -79q35 0 97 41l33 19v311l-63 -6l-3 24l130 27l30 2v-344q0 -48 13 -89
l51 3l3 -23l-136 -26l-23 90z" />
    <glyph glyph-name="yacute" unicode="&#xfd;" horiz-adv-x="536" 
d="M260 548l53 162h102l-128 -162h-27zM87 -235v97h98l102 168l-62 -25l-163 433l-57 8l3 23l112 -2l106 2l2 -23l-61 -8l125 -342l4 -36l129 378l-58 8l3 23l82 -2l77 2l2 -23l-61 -8l-152 -411l-117 -262h-114z" />
    <glyph glyph-name="thorn" unicode="&#xfe;" horiz-adv-x="541" 
d="M22 -231l-3 23l67 8v866l-67 -10l-3 22l135 34l30 1v-327l135 97q86 0 138.5 -62t52.5 -162q0 -229 -238 -274q-51 0 -88 25v-210l100 -8l-2 -23l-145 2zM278 20q57 0 92 55t35 147q0 86 -29.5 138.5t-79.5 52.5q-15 0 -31 -6t-26.5 -12.5t-33.5 -22.5l-24 -17v-285
q33 -50 97 -50z" />
    <glyph glyph-name="ydieresis" unicode="&#xff;" horiz-adv-x="536" 
d="M165 583l-24 5l-4 47l8 39l59 5l23 -5l6 -46l-10 -40zM340 583l-24 5l-5 47l9 39l58 5l24 -5l6 -46l-10 -40zM87 -235v97h98l102 168l-62 -25l-163 433l-57 8l3 23l112 -2l106 2l2 -23l-61 -8l125 -342l4 -36l129 378l-58 8l3 23l82 -2l77 2l2 -23l-61 -8l-152 -411
l-117 -262h-114z" />
    <glyph glyph-name="Amacron" unicode="&#x100;" horiz-adv-x="720" 
d="M218 798v45h282v-45h-282zM10 -1l-3 23l75 9l242 654l67 26l248 -680l74 -9l-2 -23l-139 2l-132 -2l-2 23l84 10l-73 212h-248l-74 -212l86 -10l-2 -23l-108 2zM212 274h226l-106 309l-3 27z" />
    <glyph glyph-name="amacron" unicode="&#x101;" horiz-adv-x="467" 
d="M90 609v47h282v-47h-282zM170 -15q-63 0 -102 32.5t-39 90.5q0 56 45 98l220 72v59q0 26 -2 40.5t-8.5 30t-22 22t-40.5 6.5q-27 0 -70 -15l-20 -94h-86v75l184 81q95 0 128 -33t33 -120v-207q0 -46 17 -83l52 3l3 -22l-138 -27l-25 82zM191 49q27 0 70 27l33 24v154
l-134 -54q-33 -30 -33 -74q0 -37 18 -57t46 -20z" />
    <glyph glyph-name="Abreve" unicode="&#x102;" horiz-adv-x="720" 
d="M373 755q-94 0 -148 115l18 13q47 -71 117 -71q64 0 117 72l16 -13q-11 -22 -20.5 -37.5t-36 -38.5t-63.5 -40zM10 -1l-3 23l75 9l242 654l67 26l248 -680l74 -9l-2 -23l-139 2l-132 -2l-2 23l84 10l-73 212h-248l-74 -212l86 -10l-2 -23l-108 2zM212 274h226l-106 309
l-3 27z" />
    <glyph glyph-name="abreve" unicode="&#x103;" horiz-adv-x="467" 
d="M243 561q-54 0 -96.5 37t-60.5 89l19 14q49 -74 124 -74q23 0 42 6t34.5 20t23 22.5t20.5 25.5l20 -13q-37 -81 -126 -127zM170 -15q-63 0 -102 32.5t-39 90.5q0 56 45 98l220 72v59q0 26 -2 40.5t-8.5 30t-22 22t-40.5 6.5q-27 0 -70 -15l-20 -94h-86v75l184 81
q95 0 128 -33t33 -120v-207q0 -46 17 -83l52 3l3 -22l-138 -27l-25 82zM191 49q27 0 70 27l33 24v154l-134 -54q-33 -30 -33 -74q0 -37 18 -57t46 -20z" />
    <glyph glyph-name="Aogonek" unicode="&#x104;" horiz-adv-x="720" 
d="M542 1l-57 -112v-43q0 -69 110 -69v-20q-97 0 -139.5 25t-42.5 78v44l112 116l-76 224h-248l-74 -212l86 -10l-2 -23l-108 2l-93 -2l-3 23l75 9l242 654l67 26l248 -680l74 -9l-2 -23zM212 274h226l-106 309l-3 27z" />
    <glyph glyph-name="aogonek" unicode="&#x105;" horiz-adv-x="467" 
d="M298 -154q0 -69 110 -69v-20q-97 0 -139.5 25t-42.5 78v44l95 99l-22 73l-129 -91q-63 0 -102 32.5t-39 90.5q0 56 45 98l220 72v59q0 26 -2 40.5t-8.5 30t-22 22t-40.5 6.5q-27 0 -70 -15l-20 -94h-86v75l184 81q95 0 128 -33t33 -120v-207q0 -46 17 -83l52 3l3 -22
l-108 -21l-56 -111v-43zM294 100v154l-134 -54q-33 -30 -33 -74q0 -37 18 -57t46 -20q27 0 70 27z" />
    <glyph glyph-name="Cacute" unicode="&#x106;" horiz-adv-x="690" 
d="M376 767l57 134h103l-124 -134h-36zM394 -17q-147 0 -251 95t-104 260q0 167 99 263t271 116q123 0 234 -65v-151h-33l-47 116q-63 67 -162 67q-108 0 -176 -85t-68 -240q0 -140 69 -240t193 -100q76 0 140 60l57 130h33l-13 -156q-117 -54 -242 -70z" />
    <glyph glyph-name="cacute" unicode="&#x107;" horiz-adv-x="445" 
d="M246 548l53 162h102l-128 -162h-27zM259 -15q-99 0 -161 62.5t-62 171.5q0 111 68 177t170 87q33 0 73 -15.5t64 -35.5v-96h-75l-32 99q-21 11 -47 11q-54 0 -90.5 -48.5t-36.5 -135.5q0 -88 44.5 -145.5t118.5 -57.5q57 0 117 44l10 -23q-71 -59 -161 -95z" />
    <glyph glyph-name="Ccircumflex" unicode="&#x108;" horiz-adv-x="690" 
d="M252 767l118 137h52l118 -137h-36l-101 73l-7 8l-7 -8l-101 -73h-36zM394 -17q-147 0 -251 95t-104 260q0 167 99 263t271 116q123 0 234 -65v-151h-33l-47 116q-63 67 -162 67q-108 0 -176 -85t-68 -240q0 -140 69 -240t193 -100q76 0 140 60l57 130h33l-13 -156
q-117 -54 -242 -70z" />
    <glyph glyph-name="ccircumflex" unicode="&#x109;" horiz-adv-x="445" 
d="M118 548l116 162h47l117 -162h-32l-99 84l-9 13l-9 -13l-99 -84h-32zM259 -15q-99 0 -161 62.5t-62 171.5q0 111 68 177t170 87q33 0 73 -15.5t64 -35.5v-96h-75l-32 99q-21 11 -47 11q-54 0 -90.5 -48.5t-36.5 -135.5q0 -88 44.5 -145.5t118.5 -57.5q57 0 117 44l10 -23
q-71 -59 -161 -95z" />
    <glyph glyph-name="Cdotaccent" unicode="&#x10a;" horiz-adv-x="690" 
d="M376 781l-26 6l-5 53l9 45l68 5l27 -5l5 -53l-10 -45zM394 -17q-147 0 -251 95t-104 260q0 167 99 263t271 116q123 0 234 -65v-151h-33l-47 116q-63 67 -162 67q-108 0 -176 -85t-68 -240q0 -140 69 -240t193 -100q76 0 140 60l57 130h33l-13 -156q-117 -54 -242 -70z
" />
    <glyph glyph-name="cdotaccent" unicode="&#x10b;" horiz-adv-x="445" 
d="M234 583l-26 6l-6 54l9 44l70 5l27 -5l5 -53l-11 -45zM259 -15q-99 0 -161 62.5t-62 171.5q0 111 68 177t170 87q33 0 73 -15.5t64 -35.5v-96h-75l-32 99q-21 11 -47 11q-54 0 -90.5 -48.5t-36.5 -135.5q0 -88 44.5 -145.5t118.5 -57.5q57 0 117 44l10 -23
q-71 -59 -161 -95z" />
    <glyph glyph-name="Ccaron" unicode="&#x10c;" horiz-adv-x="690" 
d="M370 764l-118 137h36l102 -72l6 -8l6 8l102 72h36l-118 -137h-52zM394 -17q-147 0 -251 95t-104 260q0 167 99 263t271 116q123 0 234 -65v-151h-33l-47 116q-63 67 -162 67q-108 0 -176 -85t-68 -240q0 -140 69 -240t193 -100q76 0 140 60l57 130h33l-13 -156
q-117 -54 -242 -70z" />
    <glyph glyph-name="ccaron" unicode="&#x10d;" horiz-adv-x="445" 
d="M234 548l-115 162h33l97 -83l9 -13l10 13l97 83h32l-114 -162h-49zM259 -15q-99 0 -161 62.5t-62 171.5q0 111 68 177t170 87q33 0 73 -15.5t64 -35.5v-96h-75l-32 99q-21 11 -47 11q-54 0 -90.5 -48.5t-36.5 -135.5q0 -88 44.5 -145.5t118.5 -57.5q57 0 117 44l10 -23
q-71 -59 -161 -95z" />
    <glyph glyph-name="Dcaron" unicode="&#x10e;" horiz-adv-x="731" 
d="M301 764l-118 137h36l102 -72l6 -8l6 8l102 72h36l-118 -137h-52zM31 -1l-2 23l89 10v636l-89 10l2 23l138 -2l189 2q156 0 245.5 -88t89.5 -247q0 -161 -86.5 -258t-253.5 -109l-185 2zM346 27q103 0 166.5 91t63.5 240q0 143 -63 229.5t-187 86.5l-102 -6v-633z" />
    <glyph glyph-name="dcaron" unicode="&#x10f;" horiz-adv-x="598" 
d="M231 -15q-87 0 -142 65t-55 164q0 111 60.5 180.5t172.5 88.5q46 0 93 -26v207l-66 -7l-3 23l133 32l31 2v-591q0 -47 17 -81l60 4l3 -23l-144 -29l-27 86zM528 450l-22 8q31 70 51 141l-21 -2l-33 5l-6 57l7 46l73 5l30 -5l5 -54l-7 -49zM246 57q38 0 88 38l26 19v293
q-32 40 -90 40q-64 0 -99.5 -53.5t-35.5 -146.5q0 -84 31 -137t80 -53z" />
    <glyph glyph-name="Dcroat" unicode="&#x110;" horiz-adv-x="731" 
d="M358 701q156 0 245.5 -88t89.5 -247q0 -161 -86.5 -258t-253.5 -109l-185 2l-137 -2l-2 23l89 10v320h-79v25h79v291l-89 10l2 23l138 -2zM346 27q103 0 166.5 91t63.5 240q0 143 -63 229.5t-187 86.5l-102 -6v-291h130v-25h-130v-317z" />
    <glyph glyph-name="dcroat" unicode="&#x111;" horiz-adv-x="554" 
d="M532 46l3 -23l-144 -29l-27 86l-133 -95q-87 0 -142 65t-55 164q0 111 60.5 180.5t172.5 88.5q46 0 93 -26v111h-120v25h120v71l-66 -7l-3 23l133 32l31 2v-121h72v-25h-72v-445q0 -47 17 -81zM360 114v293q-32 40 -90 40q-64 0 -99.5 -53.5t-35.5 -146.5q0 -84 31 -137
t80 -53q38 0 88 38z" />
    <glyph glyph-name="Emacron" unicode="&#x112;" horiz-adv-x="616" 
d="M191 798v45h282v-45h-282zM31 -1l-2 23l85 10v636l-85 10l2 23l134 -2l404 2l4 -182h-22l-62 149l-269 2v-289l149 2l42 112h23l-5 -126l5 -130h-23l-42 111l-149 2v-322l278 2l66 154h25l-18 -187l-406 2z" />
    <glyph glyph-name="emacron" unicode="&#x113;" horiz-adv-x="469" 
d="M399 656v-47h-282v47h282zM424 103l11 -23q-71 -57 -172 -95q-96 0 -162.5 63t-66.5 173q0 108 60 173.5t163 88.5q90 0 132.5 -49.5t42.5 -134.5v-36h-306q2 -94 48 -148.5t125 -54.5q59 0 125 43zM235 445q-48 0 -76.5 -40.5t-32.5 -115.5l203 5v8q0 70 -20 106.5
t-74 36.5z" />
    <glyph glyph-name="Ebreve" unicode="&#x114;" horiz-adv-x="616" 
d="M346 755q-94 0 -148 115l18 13q47 -71 117 -71q64 0 117 72l16 -13q-11 -22 -20.5 -37.5t-36 -38.5t-63.5 -40zM31 -1l-2 23l85 10v636l-85 10l2 23l134 -2l404 2l4 -182h-22l-62 149l-269 2v-289l149 2l42 112h23l-5 -126l5 -130h-23l-42 111l-149 2v-322l278 2l66 154
h25l-18 -187l-406 2z" />
    <glyph glyph-name="ebreve" unicode="&#x115;" horiz-adv-x="469" 
d="M270 561q-54 0 -96.5 37t-60.5 89l19 14q49 -74 124 -74q23 0 42 6t34.5 20t23 22.5t20.5 25.5l20 -13q-37 -81 -126 -127zM424 103l11 -23q-71 -57 -172 -95q-96 0 -162.5 63t-66.5 173q0 108 60 173.5t163 88.5q90 0 132.5 -49.5t42.5 -134.5v-36h-306q2 -94 48 -148.5
t125 -54.5q59 0 125 43zM235 445q-48 0 -76.5 -40.5t-32.5 -115.5l203 5v8q0 70 -20 106.5t-74 36.5z" />
    <glyph glyph-name="Edotaccent" unicode="&#x116;" horiz-adv-x="616" 
d="M308 781l-26 6l-5 53l9 45l68 5l27 -5l5 -53l-10 -45zM31 -1l-2 23l85 10v636l-85 10l2 23l134 -2l404 2l4 -182h-22l-62 149l-269 2v-289l149 2l42 112h23l-5 -126l5 -130h-23l-42 111l-149 2v-322l278 2l66 154h25l-18 -187l-406 2z" />
    <glyph glyph-name="edotaccent" unicode="&#x117;" horiz-adv-x="469" 
d="M234 583l-26 6l-6 54l9 44l70 5l27 -5l5 -53l-11 -45zM424 103l11 -23q-71 -57 -172 -95q-96 0 -162.5 63t-66.5 173q0 108 60 173.5t163 88.5q90 0 132.5 -49.5t42.5 -134.5v-36h-306q2 -94 48 -148.5t125 -54.5q59 0 125 43zM235 445q-48 0 -76.5 -40.5t-32.5 -115.5
l203 5v8q0 70 -20 106.5t-74 36.5z" />
    <glyph glyph-name="Eogonek" unicode="&#x118;" horiz-adv-x="616" 
d="M510 -1l-56 -110v-43q0 -69 110 -69v-20q-97 0 -139.5 25t-42.5 78v44l92 95l-309 2l-134 -2l-2 23l85 10v636l-85 10l2 23l134 -2l404 2l4 -182h-22l-62 149l-269 2v-289l149 2l42 112h23l-5 -126l5 -130h-23l-42 111l-149 2v-322l278 2l66 154h25l-18 -187h-61z" />
    <glyph glyph-name="eogonek" unicode="&#x119;" horiz-adv-x="469" 
d="M250 -154q0 -69 110 -69v-20q-97 0 -139.5 25t-42.5 78v44l78 81q-93 2 -157.5 65t-64.5 171t60 173.5t163 88.5q90 0 132.5 -49.5t42.5 -134.5v-36h-306q2 -94 48 -148.5t125 -54.5q59 0 125 43l11 -23q-55 -44 -127 -77l-58 -114v-43zM235 445q-48 0 -76.5 -40.5
t-32.5 -115.5l203 5v8q0 70 -20 106.5t-74 36.5z" />
    <glyph glyph-name="Ecaron" unicode="&#x11a;" horiz-adv-x="616" 
d="M306 764l-118 137h36l102 -72l6 -8l6 8l102 72h36l-118 -137h-52zM31 -1l-2 23l85 10v636l-85 10l2 23l134 -2l404 2l4 -182h-22l-62 149l-269 2v-289l149 2l42 112h23l-5 -126l5 -130h-23l-42 111l-149 2v-322l278 2l66 154h25l-18 -187l-406 2z" />
    <glyph glyph-name="ecaron" unicode="&#x11b;" horiz-adv-x="469" 
d="M283 548h-49l-115 162h33l97 -83l9 -13l10 13l97 83h32zM424 103l11 -23q-71 -57 -172 -95q-96 0 -162.5 63t-66.5 173q0 108 60 173.5t163 88.5q90 0 132.5 -49.5t42.5 -134.5v-36h-306q2 -94 48 -148.5t125 -54.5q59 0 125 43zM235 445q-48 0 -76.5 -40.5t-32.5 -115.5
l203 5v8q0 70 -20 106.5t-74 36.5z" />
    <glyph glyph-name="Gcircumflex" unicode="&#x11c;" horiz-adv-x="733" 
d="M263 767l118 137h52l118 -137h-36l-101 73l-7 8l-7 -8l-101 -73h-36zM386 -17q-147 0 -247 95t-100 261t97.5 262t271.5 116q69 0 131.5 -19.5t102.5 -45.5v-151h-30l-48 114q-61 69 -164 69q-112 0 -177.5 -89.5t-65.5 -239.5q0 -89 28.5 -165t86.5 -124t135 -48
q84 0 134 56v213l-84 11l2 23l136 -1l112 1l2 -23l-62 -11v-234q-129 -58 -261 -70z" />
    <glyph glyph-name="gcircumflex" unicode="&#x11d;" horiz-adv-x="506" 
d="M113 548l116 162h47l117 -162h-32l-99 84l-9 13l-9 -13l-99 -84h-32zM227 -243q-104 0 -156 31.5t-52 99.5v18l112 84q-48 14 -66 39t-18 62v11l100 71q-47 17 -74.5 52t-27.5 81q0 65 47 108t147 69q53 0 94.5 -20.5t62.5 -55.5l53 76h52v-88h-74l-19 -12q10 -20 10 -46
q0 -65 -47 -108.5t-146 -68.5q-31 0 -53 6l-47 -50q0 -49 51 -49h184q58 0 88.5 -28t30.5 -71q0 -65 -69 -120.5t-183 -90.5zM240 193q39 0 61 30t22 83q0 57 -23.5 100.5t-76.5 43.5q-39 0 -61 -31.5t-22 -86.5t23.5 -97t76.5 -42zM235 -192q69 0 117 35t48 84q0 58 -87 58
h-159q-48 -47 -48 -88q0 -40 35 -65t94 -24z" />
    <glyph glyph-name="Gbreve" unicode="&#x11e;" horiz-adv-x="733" 
d="M421 755q-94 0 -148 115l18 13q47 -71 117 -71q64 0 117 72l16 -13q-11 -22 -20.5 -37.5t-36 -38.5t-63.5 -40zM386 -17q-147 0 -247 95t-100 261t97.5 262t271.5 116q69 0 131.5 -19.5t102.5 -45.5v-151h-30l-48 114q-61 69 -164 69q-112 0 -177.5 -89.5t-65.5 -239.5
q0 -89 28.5 -165t86.5 -124t135 -48q84 0 134 56v213l-84 11l2 23l136 -1l112 1l2 -23l-62 -11v-234q-129 -58 -261 -70z" />
    <glyph glyph-name="gbreve" unicode="&#x11f;" horiz-adv-x="506" 
d="M265 561q-54 0 -96.5 37t-60.5 89l19 14q49 -74 124 -74q23 0 42 6t34.5 20t23 22.5t20.5 25.5l20 -13q-37 -81 -126 -127zM227 -243q-104 0 -156 31.5t-52 99.5v18l112 84q-48 14 -66 39t-18 62v11l100 71q-47 17 -74.5 52t-27.5 81q0 65 47 108t147 69q53 0 94.5 -20.5
t62.5 -55.5l53 76h52v-88h-74l-19 -12q10 -20 10 -46q0 -65 -47 -108.5t-146 -68.5q-31 0 -53 6l-47 -50q0 -49 51 -49h184q58 0 88.5 -28t30.5 -71q0 -65 -69 -120.5t-183 -90.5zM240 193q39 0 61 30t22 83q0 57 -23.5 100.5t-76.5 43.5q-39 0 -61 -31.5t-22 -86.5
t23.5 -97t76.5 -42zM235 -192q69 0 117 35t48 84q0 58 -87 58h-159q-48 -47 -48 -88q0 -40 35 -65t94 -24z" />
    <glyph glyph-name="Gdotaccent" unicode="&#x120;" horiz-adv-x="733" 
d="M383 781l-26 6l-5 53l9 45l68 5l27 -5l5 -53l-10 -45zM386 -17q-147 0 -247 95t-100 261t97.5 262t271.5 116q69 0 131.5 -19.5t102.5 -45.5v-151h-30l-48 114q-61 69 -164 69q-112 0 -177.5 -89.5t-65.5 -239.5q0 -89 28.5 -165t86.5 -124t135 -48q84 0 134 56v213
l-84 11l2 23l136 -1l112 1l2 -23l-62 -11v-234q-129 -58 -261 -70z" />
    <glyph glyph-name="gdotaccent" unicode="&#x121;" horiz-adv-x="506" 
d="M229 583l-26 6l-6 54l9 44l70 5l27 -5l5 -53l-11 -45zM227 -243q-104 0 -156 31.5t-52 99.5v18l112 84q-48 14 -66 39t-18 62v11l100 71q-47 17 -74.5 52t-27.5 81q0 65 47 108t147 69q53 0 94.5 -20.5t62.5 -55.5l53 76h52v-88h-74l-19 -12q10 -20 10 -46
q0 -65 -47 -108.5t-146 -68.5q-31 0 -53 6l-47 -50q0 -49 51 -49h184q58 0 88.5 -28t30.5 -71q0 -65 -69 -120.5t-183 -90.5zM240 193q39 0 61 30t22 83q0 57 -23.5 100.5t-76.5 43.5q-39 0 -61 -31.5t-22 -86.5t23.5 -97t76.5 -42zM235 -192q69 0 117 35t48 84q0 58 -87 58
h-159q-48 -47 -48 -88q0 -40 35 -65t94 -24z" />
    <glyph glyph-name="Gcommaaccent" unicode="&#x122;" horiz-adv-x="733" 
d="M386 -17q-147 0 -247 95t-100 261t97.5 262t271.5 116q69 0 131.5 -19.5t102.5 -45.5v-151h-30l-48 114q-61 69 -164 69q-112 0 -177.5 -89.5t-65.5 -239.5q0 -89 28.5 -165t86.5 -124t135 -48q84 0 134 56v213l-84 11l2 23l136 -1l112 1l2 -23l-62 -11v-234
q-129 -58 -261 -70zM365 -237l-20 6l36 104l-30 32v42h95v-76z" />
    <glyph glyph-name="gcommaaccent" unicode="&#x123;" horiz-adv-x="506" 
d="M202 548v73l78 94l24 -6l-38 -85l33 -32v-44h-97zM227 -243q-104 0 -156 31.5t-52 99.5v18l112 84q-48 14 -66 39t-18 62v11l100 71q-47 17 -74.5 52t-27.5 81q0 65 47 108t147 69q53 0 94.5 -20.5t62.5 -55.5l53 76h52v-88h-74l-19 -12q10 -20 10 -46q0 -65 -47 -108.5
t-146 -68.5q-31 0 -53 6l-47 -50q0 -49 51 -49h184q58 0 88.5 -28t30.5 -71q0 -65 -69 -120.5t-183 -90.5zM240 193q39 0 61 30t22 83q0 57 -23.5 100.5t-76.5 43.5q-39 0 -61 -31.5t-22 -86.5t23.5 -97t76.5 -42zM235 -192q69 0 117 35t48 84q0 58 -87 58h-159
q-48 -47 -48 -88q0 -40 35 -65t94 -24z" />
    <glyph glyph-name="Hcircumflex" unicode="&#x124;" horiz-adv-x="754" 
d="M233 767l118 137h52l118 -137h-36l-101 73l-7 8l-7 -8l-101 -73h-36zM31 -1l-2 23l85 10v636l-85 10l2 23l136 -2l132 2l2 -23l-81 -10v-288h317v288l-84 10l2 23l135 -2l132 2l3 -23l-82 -10v-636l82 -10l-3 -23l-132 2l-135 -2l-2 23l84 10v315h-317v-315l81 -10
l-2 -23l-132 2z" />
    <glyph glyph-name="hcircumflex" unicode="&#x125;" horiz-adv-x="579" 
d="M-1 767l118 137h52l118 -137h-36l-101 73l-7 8l-7 -8l-101 -73h-36zM36 -1l-3 23l66 8v634l-66 -6l-3 22l134 32l30 2v-335l164 104q81 0 106 -38t25 -122v-293l73 -8l-2 -23l-117 2l-96 -2l-2 23l48 8v305q0 78 -62 78q-16 0 -35.5 -7t-30 -13t-37.5 -23l-34 -21v-319
l51 -8l-2 -23l-95 2z" />
    <glyph glyph-name="Hbar" unicode="&#x126;" horiz-adv-x="754" 
d="M643 668v-636l82 -10l-3 -23l-132 2l-135 -2l-2 23l84 10v315h-317v-315l81 -10l-2 -23l-132 2l-136 -2l-2 23l85 10v636l-85 10l2 23l136 -2l132 2l2 -23l-81 -10v-166h317v166l-84 10l2 23l135 -2l132 2l3 -23zM220 380h317v98h-317v-98z" />
    <glyph glyph-name="hbar" unicode="&#x127;" horiz-adv-x="579" 
d="M489 30l73 -8l-2 -23l-117 2l-96 -2l-2 23l48 8v305q0 78 -62 78q-16 0 -35.5 -7t-30 -13t-37.5 -23l-34 -21v-319l51 -8l-2 -23l-95 2l-112 -2l-3 23l66 8v535h-69v25h69v74l-66 -6l-3 22l134 32l30 2v-124h129v-25h-129v-186l164 104q81 0 106 -38t25 -122v-293z" />
    <glyph glyph-name="Itilde" unicode="&#x128;" horiz-adv-x="333" 
d="M7 768l26 102l66 20l180 -65l33 68h17l-25 -102l-66 -20l-180 66l-34 -69h-17zM31 -1l-2 24l85 9v636l-85 10l2 23l136 -2l135 2l3 -23l-85 -10v-636l85 -9l-3 -24l-135 2z" />
    <glyph glyph-name="itilde" unicode="&#x129;" horiz-adv-x="284" 
d="M213 575l-179 70l-30 -70h-19l26 98l67 21l178 -69l31 69h18l-26 -101zM37 -1l-3 23l66 8v396l-67 -10l-3 22l135 35l30 2v-445l69 -8l-3 -23l-112 2z" />
    <glyph glyph-name="Imacron" unicode="&#x12a;" horiz-adv-x="333" 
d="M26 798v45h282v-45h-282zM31 -1l-2 24l85 9v636l-85 10l2 23l136 -2l135 2l3 -23l-85 -10v-636l85 -9l-3 -24l-135 2z" />
    <glyph glyph-name="imacron" unicode="&#x12b;" horiz-adv-x="284" 
d="M5 609v47h282v-47h-282zM37 -1l-3 23l66 8v396l-67 -10l-3 22l135 35l30 2v-445l69 -8l-3 -23l-112 2z" />
    <glyph glyph-name="Ibreve" unicode="&#x12c;" horiz-adv-x="333" 
d="M181 755q-94 0 -148 115l18 13q47 -71 117 -71q64 0 117 72l16 -13q-11 -22 -20.5 -37.5t-36 -38.5t-63.5 -40zM31 -1l-2 24l85 9v636l-85 10l2 23l136 -2l135 2l3 -23l-85 -10v-636l85 -9l-3 -24l-135 2z" />
    <glyph glyph-name="ibreve" unicode="&#x12d;" horiz-adv-x="284" 
d="M158 561q-54 0 -96.5 37t-60.5 89l19 14q49 -74 124 -74q23 0 42 6t34.5 20t23 22.5t20.5 25.5l20 -13q-37 -81 -126 -127zM37 -1l-3 23l66 8v396l-67 -10l-3 22l135 35l30 2v-445l69 -8l-3 -23l-112 2z" />
    <glyph glyph-name="Iogonek" unicode="&#x12e;" horiz-adv-x="333" 
d="M220 668v-636l85 -9l-3 -24l-120 2l-57 -112v-43q0 -69 110 -69v-20q-97 0 -139.5 25t-42.5 78v44l94 97l-116 -2l-2 24l85 9v636l-85 10l2 23l136 -2l135 2l3 -23z" />
    <glyph glyph-name="iogonek" unicode="&#x12f;" horiz-adv-x="284" 
d="M121 586l-26 5l-6 55l10 46l70 5l27 -5l5 -53l-10 -48zM164 1l-57 -112v-43q0 -69 110 -69v-20q-97 0 -139.5 25t-42.5 78v44l94 97l-92 -2l-3 23l66 8v396l-67 -10l-3 22l135 35l30 2v-445l69 -8l-3 -23z" />
    <glyph glyph-name="Idotaccent" unicode="&#x130;" horiz-adv-x="333" 
d="M143 781l-26 6l-5 53l9 45l68 5l27 -5l5 -53l-10 -45zM31 -1l-2 24l85 9v636l-85 10l2 23l136 -2l135 2l3 -23l-85 -10v-636l85 -9l-3 -24l-135 2z" />
    <glyph glyph-name="dotlessi" unicode="&#x131;" horiz-adv-x="284" 
d="M37 -1l-3 23l66 8v396l-67 -10l-3 22l135 35l30 2v-445l69 -8l-3 -23l-112 2z" />
    <glyph glyph-name="IJ" unicode="&#x132;" horiz-adv-x="673" 
d="M31 -1l-2 24l85 9v636l-85 10l2 23l136 -2l135 2l3 -23l-85 -10v-636l85 -9l-3 -24l-135 2zM334 -175v91h110l5 21q12 35 12 155v576l-105 10l2 23l156 -2l132 2l3 -23l-82 -10v-562q0 -62 -15 -101t-46 -74l-94 -106h-78z" />
    <glyph glyph-name="ij" unicode="&#x133;" horiz-adv-x="549" 
d="M121 586l-26 5l-6 55l10 46l70 5l27 -5l5 -53l-10 -48zM408 586l-26 5l-6 55l10 46l70 5l27 -5l5 -53l-10 -48zM37 -1l-3 23l66 8v396l-67 -10l-3 22l135 35l30 2v-445l69 -8l-3 -23l-112 2zM264 -236v88h102l6 18q13 39 13 109v447l-67 -10l-3 22l135 35l30 2v-477
q0 -43 -12 -71t-40 -59l-90 -104h-74z" />
    <glyph glyph-name="Jcircumflex" unicode="&#x134;" horiz-adv-x="340" 
d="M26 767l118 137h52l118 -137h-36l-101 73l-7 8l-7 -8l-101 -73h-36zM1 -175v91h110l5 21q12 35 12 155v576l-105 10l2 23l156 -2l132 2l3 -23l-82 -10v-562q0 -62 -15 -101t-46 -74l-94 -106h-78z" />
    <glyph glyph-name="jcircumflex" unicode="&#x135;" horiz-adv-x="265" 
d="M9 548l116 162h47l117 -162h-32l-99 84l-9 13l-9 -13l-99 -84h-32zM-20 -236v88h102l6 18q13 39 13 109v447l-67 -10l-3 22l135 35l30 2v-477q0 -43 -12 -71t-40 -59l-90 -104h-74z" />
    <glyph glyph-name="Kcommaaccent" unicode="&#x136;" horiz-adv-x="701" 
d="M31 -1l-2 23l85 10v636l-85 10l2 23l138 -2l125 2l3 -23l-77 -10v-299l14 9l307 290l-81 10l2 23l103 -2l98 2l2 -23l-81 -11l-307 -294l52 3l305 -346l57 -8l-2 -23l-97 2l-75 -2l-290 339l-7 15v-321l77 -10l-3 -23l-125 2zM322 -237l-20 6l36 104l-30 32v42h95v-76z
" />
    <glyph glyph-name="kcommaaccent" unicode="&#x137;" horiz-adv-x="543" 
d="M36 -1l-3 23l66 8v634l-65 -7l-4 23l134 32l30 2v-448l14 6l196 166l-51 8v23l83 -2l78 2l2 -23l-61 -8l-208 -169h47l200 -239l44 -8l-3 -23l-86 2l-60 -2l-189 242l-6 13v-224l59 -8l-3 -23l-101 2zM252 -237l-20 6l36 104l-30 32v42h95v-76z" />
    <glyph glyph-name="kgreenlandic" unicode="&#x138;" horiz-adv-x="539" 
d="M36 -1l-3 23l66 8v391l-65 -9l-4 24l134 33l30 2v-203l14 6l198 164l-51 8v23l84 -2l77 2l2 -23l-60 -8l-187 -151l12 -6l207 -251l44 -8l-3 -23l-86 2l-60 -2l-185 239l-6 14v-222l59 -8l-3 -23l-102 2z" />
    <glyph glyph-name="Lacute" unicode="&#x139;" horiz-adv-x="575" 
d="M155 767l57 134h103l-124 -134h-36zM31 -1l-2 23l85 10v636l-85 10l2 23l136 -2l135 2l3 -23l-85 -10v-637l252 2l69 156h24l-17 -190l-381 2z" />
    <glyph glyph-name="lacute" unicode="&#x13a;" horiz-adv-x="277" 
d="M124 767l57 134h103l-124 -134h-36zM36 -1l-3 23l66 8v634l-66 -7l-3 23l134 32l30 2v-684l68 -8l-2 -23l-112 2z" />
    <glyph glyph-name="Lcommaaccent" unicode="&#x13b;" horiz-adv-x="575" 
d="M31 -1l-2 23l85 10v636l-85 10l2 23l136 -2l135 2l3 -23l-85 -10v-637l252 2l69 156h24l-17 -190l-381 2zM279 -237l-20 6l36 104l-30 32v42h95v-76z" />
    <glyph glyph-name="lcommaaccent" unicode="&#x13c;" horiz-adv-x="277" 
d="M36 -1l-3 23l66 8v634l-66 -7l-3 23l134 32l30 2v-684l68 -8l-2 -23l-112 2zM108 -237l-20 6l36 104l-30 32v42h95v-76z" />
    <glyph glyph-name="Lcaron" unicode="&#x13d;" horiz-adv-x="578" 
d="M468 450l-22 8q31 70 51 141l-21 -2l-33 5l-6 57l7 46l73 5l30 -5l5 -54l-7 -49zM31 -1l-2 23l85 10v636l-85 10l2 23l136 -2l135 2l3 -23l-85 -10v-637l252 2l69 156h24l-17 -190l-381 2z" />
    <glyph glyph-name="lcaron" unicode="&#x13e;" horiz-adv-x="356" 
d="M36 -1l-3 23l66 8v634l-66 -7l-3 23l134 32l30 2v-684l68 -8l-2 -23l-112 2zM270 450l-22 8q31 70 51 141l-21 -2l-33 5l-6 57l7 46l73 5l30 -5l5 -54l-7 -49z" />
    <glyph glyph-name="Ldot" unicode="&#x13f;" horiz-adv-x="575" 
d="M31 -1l-2 23l85 10v636l-85 10l2 23l136 -2l135 2l3 -23l-85 -10v-637l252 2l69 156h24l-17 -190l-381 2zM353 347l-28 5l-5 56l6 46l72 5l29 -5l5 -54l-6 -48z" />
    <glyph glyph-name="ldot" unicode="&#x140;" horiz-adv-x="375" 
d="M36 -1l-3 23l66 8v634l-66 -7l-3 23l134 32l30 2v-684l68 -8l-2 -23l-112 2zM293 347l-28 5l-5 56l6 46l72 5l29 -5l5 -54l-6 -48z" />
    <glyph glyph-name="Lslash" unicode="&#x141;" horiz-adv-x="575" 
d="M541 189h24l-17 -190l-381 2l-136 -2l-2 23l85 10v305l-82 -40v32l82 41v298l-85 10l2 23l136 -2l135 2l3 -23l-85 -10v-246l102 51v-33l-102 -50v-359l252 2z" />
    <glyph glyph-name="lslash" unicode="&#x142;" horiz-adv-x="277" 
d="M266 433l-72 -36v-367l68 -8l-2 -23l-112 2l-112 -2l-3 23l66 8v321l-72 -36v30l72 36v283l-66 -7l-3 23l134 32l30 2v-287l72 36v-30z" />
    <glyph glyph-name="Nacute" unicode="&#x143;" horiz-adv-x="716" 
d="M350 767l57 134h103l-124 -134h-36zM565 -4l-402 607l-9 36v-607l84 -10l-2 -23l-100 2l-105 -2l-2 23l85 10v633l-83 13l2 23l110 -2l75 2l352 -524l11 -30v521l-84 10l2 23l99 -2l105 2l3 -23l-85 -10v-672h-56z" />
    <glyph glyph-name="nacute" unicode="&#x144;" horiz-adv-x="581" 
d="M279 548l53 162h102l-128 -162h-27zM37 -1l-3 23l67 8v396l-68 -11l-3 23l135 35l27 1l2 -96l165 105q79 0 105 -34t26 -120v-299l74 -8l-2 -23l-116 2l-98 -2l-2 23l48 8v305q0 78 -63 78q-17 0 -36.5 -7.5t-28.5 -12.5t-37 -23l-34 -21v-319l51 -8l-2 -23l-94 2z" />
    <glyph glyph-name="Ncommaaccent" unicode="&#x145;" horiz-adv-x="716" 
d="M565 -4l-402 607l-9 36v-607l84 -10l-2 -23l-100 2l-105 -2l-2 23l85 10v633l-83 13l2 23l110 -2l75 2l352 -524l11 -30v521l-84 10l2 23l99 -2l105 2l3 -23l-85 -10v-672h-56zM329 -237l-20 6l36 104l-30 32v42h95v-76z" />
    <glyph glyph-name="ncommaaccent" unicode="&#x146;" horiz-adv-x="581" 
d="M37 -1l-3 23l67 8v396l-68 -11l-3 23l135 35l27 1l2 -96l165 105q79 0 105 -34t26 -120v-299l74 -8l-2 -23l-116 2l-98 -2l-2 23l48 8v305q0 78 -63 78q-17 0 -36.5 -7.5t-28.5 -12.5t-37 -23l-34 -21v-319l51 -8l-2 -23l-94 2zM260 -237l-20 6l36 104l-30 32v42h95v-76z
" />
    <glyph glyph-name="Ncaron" unicode="&#x147;" horiz-adv-x="716" 
d="M344 764l-118 137h36l102 -72l6 -8l6 8l102 72h36l-118 -137h-52zM565 -4l-402 607l-9 36v-607l84 -10l-2 -23l-100 2l-105 -2l-2 23l85 10v633l-83 13l2 23l110 -2l75 2l352 -524l11 -30v521l-84 10l2 23l99 -2l105 2l3 -23l-85 -10v-672h-56z" />
    <glyph glyph-name="ncaron" unicode="&#x148;" horiz-adv-x="581" 
d="M267 548l-115 162h33l97 -83l9 -13l10 13l97 83h32l-114 -162h-49zM37 -1l-3 23l67 8v396l-68 -11l-3 23l135 35l27 1l2 -96l165 105q79 0 105 -34t26 -120v-299l74 -8l-2 -23l-116 2l-98 -2l-2 23l48 8v305q0 78 -63 78q-17 0 -36.5 -7.5t-28.5 -12.5t-37 -23l-34 -21
v-319l51 -8l-2 -23l-94 2z" />
    <glyph glyph-name="napostrophe" unicode="&#x149;" horiz-adv-x="581" 
d="M54 522l-23 6l57 101l-35 38v43h99v-79zM37 -1l-3 23l67 8v396l-68 -11l-3 23l135 35l27 1l2 -96l165 105q79 0 105 -34t26 -120v-299l74 -8l-2 -23l-116 2l-98 -2l-2 23l48 8v305q0 78 -63 78q-17 0 -36.5 -7.5t-28.5 -12.5t-37 -23l-34 -21v-319l51 -8l-2 -23l-94 2z
" />
    <glyph glyph-name="Eng" unicode="&#x14a;" horiz-adv-x="716" 
d="M394 -235v83h77l79 120l44 28h-28l-403 607l-9 35v-606l84 -10l-2 -23l-101 2l-104 -2l-2 23l85 10v633l-83 13l2 23l102 -2l82 2l353 -524l11 -30v521l-84 10l3 23l97 -2l106 2l3 -23l-85 -10v-672l-116 -231h-111z" />
    <glyph glyph-name="eng" unicode="&#x14b;" horiz-adv-x="534" 
d="M273 -236v91h103l6 19q12 43 12 110v351q0 78 -63 78q-17 0 -36.5 -7.5t-28.5 -12.5t-37 -23l-34 -21v-319l51 -8l-2 -23l-95 2l-112 -2l-3 23l67 8v396l-68 -11l-3 23l135 35l27 1l2 -96l165 105q79 0 105 -34t26 -120v-318q0 -45 -13.5 -76.5t-45.5 -69.5l-82 -101h-76
z" />
    <glyph glyph-name="Omacron" unicode="&#x14c;" horiz-adv-x="771" 
d="M247 798v45h282v-45h-282zM375 -17q-148 0 -242 100t-94 252q0 164 87.5 258.5t268.5 123.5q149 0 243 -100t94 -252q0 -164 -87.5 -258.5t-269.5 -123.5zM403 22q102 0 156.5 87t54.5 224q0 91 -27 168t-84.5 127t-134.5 50q-101 0 -156 -87t-55 -224q0 -143 65.5 -244
t180.5 -101z" />
    <glyph glyph-name="omacron" unicode="&#x14d;" horiz-adv-x="531" 
d="M125 609v47h282v-47h-282zM252 -15q-96 0 -157 67.5t-61 170.5q0 213 244 260q96 0 157.5 -67.5t61.5 -170.5q0 -214 -245 -260zM278 20q56 0 86.5 54t30.5 144q0 105 -40 167t-103 62q-57 0 -87 -53.5t-30 -144.5q0 -99 40 -164t103 -65z" />
    <glyph glyph-name="Obreve" unicode="&#x14e;" horiz-adv-x="771" 
d="M402 755q-94 0 -148 115l18 13q47 -71 117 -71q64 0 117 72l16 -13q-11 -22 -20.5 -37.5t-36 -38.5t-63.5 -40zM375 -17q-148 0 -242 100t-94 252q0 164 87.5 258.5t268.5 123.5q149 0 243 -100t94 -252q0 -164 -87.5 -258.5t-269.5 -123.5zM403 22q102 0 156.5 87
t54.5 224q0 91 -27 168t-84.5 127t-134.5 50q-101 0 -156 -87t-55 -224q0 -143 65.5 -244t180.5 -101z" />
    <glyph glyph-name="obreve" unicode="&#x14f;" horiz-adv-x="531" 
d="M278 561q-54 0 -96.5 37t-60.5 89l19 14q49 -74 124 -74q23 0 42 6t34.5 20t23 22.5t20.5 25.5l20 -13q-37 -81 -126 -127zM252 -15q-96 0 -157 67.5t-61 170.5q0 213 244 260q96 0 157.5 -67.5t61.5 -170.5q0 -214 -245 -260zM278 20q56 0 86.5 54t30.5 144
q0 105 -40 167t-103 62q-57 0 -87 -53.5t-30 -144.5q0 -99 40 -164t103 -65z" />
    <glyph glyph-name="Ohungarumlaut" unicode="&#x150;" horiz-adv-x="771" 
d="M299 767l63 134h111l-139 -134h-35zM457 767l64 134h111l-139 -134h-36zM375 -17q-148 0 -242 100t-94 252q0 164 87.5 258.5t268.5 123.5q149 0 243 -100t94 -252q0 -164 -87.5 -258.5t-269.5 -123.5zM403 22q102 0 156.5 87t54.5 224q0 91 -27 168t-84.5 127t-134.5 50
q-101 0 -156 -87t-55 -224q0 -143 65.5 -244t180.5 -101z" />
    <glyph glyph-name="ohungarumlaut" unicode="&#x151;" horiz-adv-x="531" 
d="M173 548l54 162h110l-138 -162h-26zM333 548l54 162h109l-137 -162h-26zM252 -15q-96 0 -157 67.5t-61 170.5q0 213 244 260q96 0 157.5 -67.5t61.5 -170.5q0 -214 -245 -260zM278 20q56 0 86.5 54t30.5 144q0 105 -40 167t-103 62q-57 0 -87 -53.5t-30 -144.5
q0 -99 40 -164t103 -65z" />
    <glyph glyph-name="OE" unicode="&#x152;" horiz-adv-x="956" 
d="M379 -11q-150 0 -245 98t-95 248q0 163 85.5 253.5t274.5 122.5l133 -11l380 1l5 -181h-22l-62 148l-251 2v-289l129 2l42 112h22l-5 -125l5 -131h-22l-42 111l-129 2v-322l258 2l66 154h24l-17 -187l-409 2zM476 30v637l-108 7q-101 0 -156 -85.5t-55 -222.5
q0 -144 72 -241.5t180 -97.5z" />
    <glyph glyph-name="oe" unicode="&#x153;" horiz-adv-x="832" 
d="M787 103l11 -23q-79 -61 -173 -95q-58 0 -107 25t-80 73q-58 -74 -186 -98q-96 0 -157 67.5t-61 170.5q0 213 244 260q57 0 103 -26t73 -72q56 74 166 98q90 0 132.5 -50t42.5 -135v-35h-303q1 -93 48.5 -148t126.5 -55q55 0 120 43zM277 20q56 0 87 54t31 144
q0 105 -40 166.5t-103 61.5q-57 0 -88 -53t-31 -144q0 -98 40.5 -163.5t103.5 -65.5zM601 445q-50 0 -77.5 -42t-30.5 -114l199 5q0 75 -19 113t-72 38z" />
    <glyph glyph-name="Racute" unicode="&#x154;" horiz-adv-x="667" 
d="M445 901l-124 -134h-36l57 134h103zM611 32l51 -11l-2 -22l-89 2l-68 -2l-206 322l-5 6h-72v-295l79 -10l-2 -23l-130 2l-136 -2l-2 23l85 10v636l-85 10l2 23l137 -2l186 2q95 0 156.5 -43t61.5 -131q0 -82 -64.5 -129t-167.5 -65l95 -35zM220 356h63q81 0 127 45
t46 119t-39.5 113.5t-103.5 40.5l-93 -6v-312z" />
    <glyph glyph-name="racute" unicode="&#x155;" horiz-adv-x="385" 
d="M181 548l53 162h102l-128 -162h-27zM37 -1l-3 23l67 8v396l-68 -11l-3 23l133 35l25 1l3 -144l106 148h73v-101h-95q-11 -3 -70 -70l-10 -12v-263l97 -8l-3 -25l-140 2z" />
    <glyph glyph-name="Rcommaaccent" unicode="&#x156;" horiz-adv-x="667" 
d="M611 32l51 -11l-2 -22l-89 2l-68 -2l-206 322l-5 6h-72v-295l79 -10l-2 -23l-130 2l-136 -2l-2 23l85 10v636l-85 10l2 23l137 -2l186 2q95 0 156.5 -43t61.5 -131q0 -82 -64.5 -129t-167.5 -65l95 -35zM220 356h63q81 0 127 45t46 119t-39.5 113.5t-103.5 40.5l-93 -6
v-312zM327 -95v42h95v-76l-81 -108l-20 6l36 104z" />
    <glyph glyph-name="rcommaaccent" unicode="&#x157;" horiz-adv-x="385" 
d="M37 -1l-3 23l67 8v396l-68 -11l-3 23l133 35l25 1l3 -144l106 148h73v-101h-95q-11 -3 -70 -70l-10 -12v-263l97 -8l-3 -25l-140 2zM122 -237l-20 6l36 104l-30 32v42h95v-76z" />
    <glyph glyph-name="Rcaron" unicode="&#x158;" horiz-adv-x="667" 
d="M331 764h-52l-118 137h36l102 -72l6 -8l6 8l102 72h36zM611 32l51 -11l-2 -22l-89 2l-68 -2l-206 322l-5 6h-72v-295l79 -10l-2 -23l-130 2l-136 -2l-2 23l85 10v636l-85 10l2 23l137 -2l186 2q95 0 156.5 -43t61.5 -131q0 -82 -64.5 -129t-167.5 -65l95 -35zM220 356h63
q81 0 127 45t46 119t-39.5 113.5t-103.5 40.5l-93 -6v-312z" />
    <glyph glyph-name="rcaron" unicode="&#x159;" horiz-adv-x="385" 
d="M169 548l-115 162h33l97 -83l9 -13l10 13l97 83h32l-114 -162h-49zM37 -1l-3 23l67 8v396l-68 -11l-3 23l133 35l25 1l3 -144l106 148h73v-101h-95q-11 -3 -70 -70l-10 -12v-263l97 -8l-3 -25l-140 2z" />
    <glyph glyph-name="Sacute" unicode="&#x15a;" horiz-adv-x="545" 
d="M271 767l57 134h103l-124 -134h-36zM256 -17q-115 0 -204 63l-11 151h40l40 -99q63 -72 152 -72q63 0 100 35t37 92q0 87 -109 142l-121 63q-60 31 -91.5 67t-31.5 95q0 75 60.5 125.5t170.5 71.5q104 0 187 -50v-148h-30l-41 108q-53 53 -125 53q-59 0 -94 -31t-35 -82
q0 -41 24.5 -69.5t73.5 -52.5l118 -61q67 -34 101.5 -76t34.5 -105q0 -163 -246 -220z" />
    <glyph glyph-name="sacute" unicode="&#x15b;" horiz-adv-x="403" 
d="M190 548l53 162h102l-128 -162h-27zM193 -15q-74 0 -153 43l-9 123h36l43 -94q43 -36 90 -36q39 0 60.5 20.5t21.5 51.5q0 32 -16.5 50.5t-60.5 43.5l-79 46q-83 47 -83 115q0 49 42 81.5t127 53.5q80 0 144 -40v-114h-32l-37 90q-35 30 -84 30q-32 0 -53.5 -17
t-21.5 -45q0 -27 17.5 -44.5t56.5 -39.5l81 -46q47 -26 67 -54.5t20 -69.5q0 -57 -44.5 -92.5t-132.5 -55.5z" />
    <glyph glyph-name="Scircumflex" unicode="&#x15c;" horiz-adv-x="545" 
d="M147 767l118 137h52l118 -137h-36l-101 73l-7 8l-7 -8l-101 -73h-36zM256 -17q-115 0 -204 63l-11 151h40l40 -99q63 -72 152 -72q63 0 100 35t37 92q0 87 -109 142l-121 63q-60 31 -91.5 67t-31.5 95q0 75 60.5 125.5t170.5 71.5q104 0 187 -50v-148h-30l-41 108
q-53 53 -125 53q-59 0 -94 -31t-35 -82q0 -41 24.5 -69.5t73.5 -52.5l118 -61q67 -34 101.5 -76t34.5 -105q0 -163 -246 -220z" />
    <glyph glyph-name="scircumflex" unicode="&#x15d;" horiz-adv-x="403" 
d="M62 548l116 162h47l117 -162h-32l-99 84l-9 13l-9 -13l-99 -84h-32zM193 -15q-74 0 -153 43l-9 123h36l43 -94q43 -36 90 -36q39 0 60.5 20.5t21.5 51.5q0 32 -16.5 50.5t-60.5 43.5l-79 46q-83 47 -83 115q0 49 42 81.5t127 53.5q80 0 144 -40v-114h-32l-37 90
q-35 30 -84 30q-32 0 -53.5 -17t-21.5 -45q0 -27 17.5 -44.5t56.5 -39.5l81 -46q47 -26 67 -54.5t20 -69.5q0 -57 -44.5 -92.5t-132.5 -55.5z" />
    <glyph glyph-name="Scedilla" unicode="&#x15e;" horiz-adv-x="545" 
d="M502 203q0 -156 -226 -215l-24 -36q35 -2 58.5 -22t23.5 -53q0 -65 -89 -98l-62 -22h-42l28 39h75q30 19 30 63q0 29 -21 43t-51 16l45 65q-111 3 -195 63l-11 151h40l40 -99q63 -72 152 -72q63 0 100 35t37 92q0 87 -109 142l-121 63q-60 31 -91.5 67t-31.5 95
q0 75 60.5 125.5t170.5 71.5q104 0 187 -50v-148h-30l-41 108q-53 53 -125 53q-59 0 -94 -31t-35 -82q0 -41 24.5 -69.5t73.5 -52.5l118 -61q67 -34 101.5 -76t34.5 -105z" />
    <glyph glyph-name="scedilla" unicode="&#x15f;" horiz-adv-x="403" 
d="M370 133q0 -104 -166 -145l-24 -36q35 -2 58.5 -22t23.5 -53q0 -65 -89 -98l-62 -22h-42l28 39h75q30 20 30 63q0 29 -21 43t-51 16l47 68q-68 5 -137 42l-9 123h36l43 -94q43 -36 90 -36q39 0 60.5 20.5t21.5 51.5q0 32 -16.5 50.5t-60.5 43.5l-79 46q-83 47 -83 115
q0 49 42 81.5t127 53.5q80 0 144 -40v-114h-32l-37 90q-35 30 -84 30q-32 0 -53.5 -17t-21.5 -45q0 -27 17.5 -44.5t56.5 -39.5l81 -46q47 -26 67 -54.5t20 -69.5z" />
    <glyph glyph-name="Scaron" unicode="&#x160;" horiz-adv-x="545" 
d="M265 764l-118 137h36l102 -72l6 -8l6 8l102 72h36l-118 -137h-52zM256 -17q-115 0 -204 63l-11 151h40l40 -99q63 -72 152 -72q63 0 100 35t37 92q0 87 -109 142l-121 63q-60 31 -91.5 67t-31.5 95q0 75 60.5 125.5t170.5 71.5q104 0 187 -50v-148h-30l-41 108
q-53 53 -125 53q-59 0 -94 -31t-35 -82q0 -41 24.5 -69.5t73.5 -52.5l118 -61q67 -34 101.5 -76t34.5 -105q0 -163 -246 -220z" />
    <glyph glyph-name="scaron" unicode="&#x161;" horiz-adv-x="403" 
d="M178 548l-115 162h33l97 -83l9 -13l10 13l97 83h32l-114 -162h-49zM193 -15q-74 0 -153 43l-9 123h36l43 -94q43 -36 90 -36q39 0 60.5 20.5t21.5 51.5q0 32 -16.5 50.5t-60.5 43.5l-79 46q-83 47 -83 115q0 49 42 81.5t127 53.5q80 0 144 -40v-114h-32l-37 90
q-35 30 -84 30q-32 0 -53.5 -17t-21.5 -45q0 -27 17.5 -44.5t56.5 -39.5l81 -46q47 -26 67 -54.5t20 -69.5q0 -57 -44.5 -92.5t-132.5 -55.5z" />
    <glyph glyph-name="uni0162" unicode="&#x162;" horiz-adv-x="589" 
d="M295 699l282 2v-189h-25l-58 157h-146v-637l102 -10l-3 -23l-145 2l-33 -49q35 -2 58.5 -22t23.5 -53q0 -65 -89 -98l-62 -22h-42l28 39h75q30 19 30 63q0 29 -21 43t-51 16l58 83l-137 -2l-2 23l104 10v637h-146l-59 -157h-24v189z" />
    <glyph glyph-name="uni0163" unicode="&#x163;" horiz-adv-x="344" 
d="M179 -48q35 -2 58.5 -22t23.5 -53q0 -65 -89 -98l-62 -22h-42l28 39h75q30 20 30 63q0 29 -21 43t-51 16l48 70q-87 14 -87 127v317h-85v8l18 23h69v71l79 59h14v-134h145v-27h-145v-316q0 -30 16 -47t41 -17q37 0 84 25l11 -22l-128 -70h-8z" />
    <glyph glyph-name="Tcaron" unicode="&#x164;" horiz-adv-x="589" 
d="M269 764l-118 137h36l102 -72l6 -8l6 8l102 72h36l-118 -137h-52zM140 -1l-2 23l104 10v637h-146l-59 -157h-24v189l282 -2l282 2v-189h-25l-58 157h-146v-637l102 -10l-3 -23l-152 2z" />
    <glyph glyph-name="tcaron" unicode="&#x165;" horiz-adv-x="389" 
d="M308 492l-19 7q27 64 44 122l-18 -1l-29 4l-4 48l6 40l62 4l26 -4l4 -46l-6 -42zM209 -15q-119 0 -119 130v317h-85v8l18 23h69v71l79 59h14v-134h145v-27h-145v-316q0 -30 16 -47t41 -17q37 0 84 25l11 -22z" />
    <glyph glyph-name="Tbar" unicode="&#x166;" horiz-adv-x="589" 
d="M295 699l282 2v-189h-25l-58 157h-146v-216h102v-25h-102v-396l102 -10l-3 -23l-152 2l-155 -2l-2 23l104 10v396h-103v25h103v216h-146l-59 -157h-24v189z" />
    <glyph glyph-name="tbar" unicode="&#x167;" horiz-adv-x="344" 
d="M326 77l11 -22l-128 -70q-119 0 -119 130v183h-80v25h80v109h-85v8l18 23h69v71l79 59h14v-134h145v-27h-145v-109h126v-25h-126v-182q0 -30 16 -47t41 -17q37 0 84 25z" />
    <glyph glyph-name="Utilde" unicode="&#x168;" horiz-adv-x="694" 
d="M211 768l26 102l66 20l180 -65l33 68h17l-25 -102l-66 -20l-180 66l-34 -69h-17zM360 -17q-263 0 -263 264v421l-84 10l2 23l134 -2l136 2l3 -23l-83 -10v-433q0 -94 45.5 -149.5t131.5 -55.5q77 0 122 56.5t45 149.5v432l-86 10l3 23l109 -2l104 2l3 -23l-83 -10v-426
q0 -104 -52 -168t-187 -91z" />
    <glyph glyph-name="utilde" unicode="&#x169;" horiz-adv-x="556" 
d="M338 575l-179 70l-30 -70h-19l26 98l67 21l178 -69l31 69h18l-26 -101zM216 -15q-82 0 -108.5 34.5t-26.5 119.5v287l-67 -6l-3 24l135 27l31 2v-339q0 -79 64 -79q35 0 97 41l33 19v311l-63 -6l-3 24l130 27l30 2v-344q0 -48 13 -89l51 3l3 -23l-136 -26l-23 90z" />
    <glyph glyph-name="Umacron" unicode="&#x16a;" horiz-adv-x="694" 
d="M230 798v45h282v-45h-282zM360 -17q-263 0 -263 264v421l-84 10l2 23l134 -2l136 2l3 -23l-83 -10v-433q0 -94 45.5 -149.5t131.5 -55.5q77 0 122 56.5t45 149.5v432l-86 10l3 23l109 -2l104 2l3 -23l-83 -10v-426q0 -104 -52 -168t-187 -91z" />
    <glyph glyph-name="umacron" unicode="&#x16b;" horiz-adv-x="556" 
d="M130 609v47h282v-47h-282zM216 -15q-82 0 -108.5 34.5t-26.5 119.5v287l-67 -6l-3 24l135 27l31 2v-339q0 -79 64 -79q35 0 97 41l33 19v311l-63 -6l-3 24l130 27l30 2v-344q0 -48 13 -89l51 3l3 -23l-136 -26l-23 90z" />
    <glyph glyph-name="Ubreve" unicode="&#x16c;" horiz-adv-x="694" 
d="M385 755q-94 0 -148 115l18 13q47 -71 117 -71q64 0 117 72l16 -13q-11 -22 -20.5 -37.5t-36 -38.5t-63.5 -40zM360 -17q-263 0 -263 264v421l-84 10l2 23l134 -2l136 2l3 -23l-83 -10v-433q0 -94 45.5 -149.5t131.5 -55.5q77 0 122 56.5t45 149.5v432l-86 10l3 23
l109 -2l104 2l3 -23l-83 -10v-426q0 -104 -52 -168t-187 -91z" />
    <glyph glyph-name="ubreve" unicode="&#x16d;" horiz-adv-x="556" 
d="M283 561q-54 0 -96.5 37t-60.5 89l19 14q49 -74 124 -74q23 0 42 6t34.5 20t23 22.5t20.5 25.5l20 -13q-37 -81 -126 -127zM216 -15q-82 0 -108.5 34.5t-26.5 119.5v287l-67 -6l-3 24l135 27l31 2v-339q0 -79 64 -79q35 0 97 41l33 19v311l-63 -6l-3 24l130 27l30 2v-344
q0 -48 13 -89l51 3l3 -23l-136 -26l-23 90z" />
    <glyph glyph-name="Uring" unicode="&#x16e;" horiz-adv-x="694" 
d="M371 731q-43 0 -73.5 23t-30.5 70q0 23 8 39.5t24.5 27.5t31 17t39.5 14q44 0 74.5 -23.5t30.5 -70.5q0 -23 -8 -39t-25.5 -27t-31 -17t-39.5 -14zM370 759q29 0 48 18.5t19 48.5t-19 48.5t-48 18.5t-47.5 -18.5t-18.5 -48.5t18.5 -48.5t47.5 -18.5zM360 -17
q-263 0 -263 264v421l-84 10l2 23l134 -2l136 2l3 -23l-83 -10v-433q0 -94 45.5 -149.5t131.5 -55.5q77 0 122 56.5t45 149.5v432l-86 10l3 23l109 -2l104 2l3 -23l-83 -10v-426q0 -104 -52 -168t-187 -91z" />
    <glyph glyph-name="uring" unicode="&#x16f;" horiz-adv-x="556" 
d="M272 541q-44 0 -74.5 22.5t-30.5 70.5q0 23 7.5 39t25 27.5t31 17t39.5 14.5q104 0 104 -96q0 -11 -1.5 -19.5t-5.5 -16.5l-6.5 -13t-11 -11t-11.5 -8.5t-15 -7.5t-15.5 -6.5t-18 -6.5t-17.5 -6zM271 571q28 0 46.5 18t18.5 46q0 29 -18.5 48t-46.5 19t-46.5 -19
t-18.5 -48q0 -28 18 -46t47 -18zM216 -15q-82 0 -108.5 34.5t-26.5 119.5v287l-67 -6l-3 24l135 27l31 2v-339q0 -79 64 -79q35 0 97 41l33 19v311l-63 -6l-3 24l130 27l30 2v-344q0 -48 13 -89l51 3l3 -23l-136 -26l-23 90z" />
    <glyph glyph-name="Uhungarumlaut" unicode="&#x170;" horiz-adv-x="694" 
d="M282 767l63 134h111l-139 -134h-35zM440 767l64 134h111l-139 -134h-36zM360 -17q-263 0 -263 264v421l-84 10l2 23l134 -2l136 2l3 -23l-83 -10v-433q0 -94 45.5 -149.5t131.5 -55.5q77 0 122 56.5t45 149.5v432l-86 10l3 23l109 -2l104 2l3 -23l-83 -10v-426
q0 -104 -52 -168t-187 -91z" />
    <glyph glyph-name="uhungarumlaut" unicode="&#x171;" horiz-adv-x="556" 
d="M178 548l54 162h110l-138 -162h-26zM338 548l54 162h109l-137 -162h-26zM216 -15q-82 0 -108.5 34.5t-26.5 119.5v287l-67 -6l-3 24l135 27l31 2v-339q0 -79 64 -79q35 0 97 41l33 19v311l-63 -6l-3 24l130 27l30 2v-344q0 -48 13 -89l51 3l3 -23l-136 -26l-23 90z" />
    <glyph glyph-name="Uogonek" unicode="&#x172;" horiz-adv-x="694" 
d="M679 701l3 -23l-83 -10v-426q0 -84 -32 -141t-112 -90l-62 -122v-43q0 -69 110 -69v-20q-97 0 -139.5 25t-42.5 78v44l88 91q-21 -7 -49 -12q-263 0 -263 264v421l-84 10l2 23l134 -2l136 2l3 -23l-83 -10v-433q0 -94 45.5 -149.5t131.5 -55.5q77 0 122 56.5t45 149.5
v432l-86 10l3 23l109 -2z" />
    <glyph glyph-name="uogonek" unicode="&#x173;" horiz-adv-x="556" 
d="M362 -154q0 -69 110 -69v-20q-97 0 -139.5 25t-42.5 78v44l102 105l-19 75l-157 -99q-82 0 -108.5 34.5t-26.5 119.5v287l-67 -6l-3 24l135 27l31 2v-339q0 -79 64 -79q35 0 97 41l33 19v311l-63 -6l-3 24l130 27l30 2v-344q0 -48 13 -89l51 3l3 -23l-115 -22l-55 -109
v-43z" />
    <glyph glyph-name="Wcircumflex" unicode="&#x174;" horiz-adv-x="994" 
d="M357 767l118 137h52l118 -137h-36l-101 73l-7 8l-7 -8l-101 -73h-36zM292 -10l-222 679l-60 9l2 23l123 -2l128 2l3 -23l-83 -10l164 -523l1 -29l127 417l-44 136l-62 9l2 23l126 -2l127 2l2 -23l-83 -10l165 -523l1 -29l170 553l-87 9l3 23l104 -2l83 2l2 -23l-62 -9
l-210 -660l-59 -19l-153 464l-1 30l-148 -475z" />
    <glyph glyph-name="wcircumflex" unicode="&#x175;" horiz-adv-x="831" 
d="M283 548l116 162h47l117 -162h-32l-99 84l-9 13l-9 -13l-99 -84h-32zM223 -15l-161 453l-57 8l3 23l107 -2l102 2l2 -23l-56 -8l118 -350l4 -30l109 316l-23 64l-47 8l3 23l99 -2l100 2l3 -23l-56 -8l118 -350l4 -30l128 380l-59 8l3 23l76 -2l80 2l3 -23l-60 -8
l-151 -421l-82 -32l-114 318l-3 33l-110 -319z" />
    <glyph glyph-name="Ycircumflex" unicode="&#x176;" horiz-adv-x="700" 
d="M240 767l118 137h52l118 -137h-36l-101 73l-7 8l-7 -8l-101 -73h-36zM191 -1l-2 23l113 10v242l-223 396l-74 8l3 23l137 -2l138 2l2 -23l-86 -9l186 -333l3 -20l186 353l-91 9l3 23l112 -2l94 2l3 -22l-75 -9l-212 -390v-248l112 -10l-3 -23l-160 2z" />
    <glyph glyph-name="ycircumflex" unicode="&#x177;" horiz-adv-x="536" 
d="M132 548l116 162h47l117 -162h-32l-99 84l-9 13l-9 -13l-99 -84h-32zM87 -235v97h98l102 168l-62 -25l-163 433l-57 8l3 23l112 -2l106 2l2 -23l-61 -8l125 -342l4 -36l129 378l-58 8l3 23l82 -2l77 2l2 -23l-61 -8l-152 -411l-117 -262h-114z" />
    <glyph glyph-name="Ydieresis" unicode="&#x178;" horiz-adv-x="700" 
d="M255 783l-24 4l-5 48l8 39l59 5l24 -5l5 -46l-9 -41zM474 783l-24 4l-5 48l9 39l58 5l24 -5l6 -46l-10 -41zM191 -1l-2 23l113 10v242l-223 396l-74 8l3 23l137 -2l138 2l2 -23l-86 -9l186 -333l3 -20l186 353l-91 9l3 23l112 -2l94 2l3 -22l-75 -9l-212 -390v-248
l112 -10l-3 -23l-160 2z" />
    <glyph glyph-name="Zacute" unicode="&#x179;" horiz-adv-x="571" 
d="M265 767l57 134h103l-124 -134h-36zM24 0l-5 29l388 624l20 17l-287 -2l-63 -153h-28v185h486l5 -26l-389 -626l-20 -18l306 2l77 160h29l-18 -192h-501z" />
    <glyph glyph-name="zacute" unicode="&#x17a;" horiz-adv-x="463" 
d="M227 548l53 162h102l-128 -162h-27zM40 0l-7 19l276 409l19 15l-189 -3l-52 -117h-25v145h366l7 -19l-274 -411l-17 -13l202 3l61 122h27l-14 -150h-380z" />
    <glyph glyph-name="Zdotaccent" unicode="&#x17b;" horiz-adv-x="571" 
d="M261 781l-26 6l-5 53l9 45l68 5l27 -5l5 -53l-10 -45zM24 0l-5 29l388 624l20 17l-287 -2l-63 -153h-28v185h486l5 -26l-389 -626l-20 -18l306 2l77 160h29l-18 -192h-501z" />
    <glyph glyph-name="zdotaccent" unicode="&#x17c;" horiz-adv-x="463" 
d="M215 583l-26 6l-6 54l9 44l70 5l27 -5l5 -53l-11 -45zM40 0l-7 19l276 409l19 15l-189 -3l-52 -117h-25v145h366l7 -19l-274 -411l-17 -13l202 3l61 122h27l-14 -150h-380z" />
    <glyph glyph-name="Zcaron" unicode="&#x17d;" horiz-adv-x="571" 
d="M259 764l-118 137h36l102 -72l6 -8l6 8l102 72h36l-118 -137h-52zM24 0l-5 29l388 624l20 17l-287 -2l-63 -153h-28v185h486l5 -26l-389 -626l-20 -18l306 2l77 160h29l-18 -192h-501z" />
    <glyph glyph-name="zcaron" unicode="&#x17e;" horiz-adv-x="463" 
d="M215 548l-115 162h33l97 -83l9 -13l10 13l97 83h32l-114 -162h-49zM40 0l-7 19l276 409l19 15l-189 -3l-52 -117h-25v145h366l7 -19l-274 -411l-17 -13l202 3l61 122h27l-14 -150h-380z" />
    <glyph glyph-name="longs" unicode="&#x17f;" horiz-adv-x="338" 
d="M36 -1l-2 23l67 8v402h-76v9l15 22h61v11q0 83 50 137l92 99h117v-78h-138l-11 -19q-15 -31 -15 -116v-467l110 -6l-3 -25l-152 2z" />
    <glyph glyph-name="florin" unicode="&#x192;" horiz-adv-x="319" 
d="M-20 -235v79h90l9 18q15 31 15 116v454h-76v9l15 22h61v11q0 83 50 137l93 99h106v-75h-126l-13 -21q-15 -31 -15 -115v-38h115v-29h-115v-428q0 -84 -51 -141l-92 -98h-66z" />
    <glyph glyph-name="AEacute" unicode="&#x1fc;" horiz-adv-x="985" 
d="M650 767l57 134h103l-124 -134h-36zM8 0l-3 22l75 9l421 670l61 -2l377 2l5 -181h-22l-61 148l-247 2v-319l126 2l42 112h23l-5 -125l5 -130h-23l-42 111l-126 2v-293l255 2l66 153h24l-17 -186l-381 2l-135 -2l-2 23l85 10v290h-204l-178 -290l81 -10l-2 -22l-104 1z
M321 350h188v313z" />
    <glyph glyph-name="aeacute" unicode="&#x1fd;" horiz-adv-x="715" 
d="M503 710l-128 -162h-27l53 162h102zM670 103l11 -24q-75 -59 -175 -94q-62 0 -113.5 27t-80.5 79l-142 -106q-62 0 -101.5 33t-39.5 88q0 58 45 100l214 72v59q0 51 -11.5 75t-52.5 24q-30 0 -72 -15l-20 -96h-86v77l181 81q66 0 97.5 -13.5t44.5 -52.5q49 44 140 66
q85 0 126.5 -50t41.5 -135v-37h-296q1 -94 45.5 -147.5t120.5 -53.5q57 0 123 43zM487 445q-49 0 -75.5 -42.5t-29.5 -115.5l193 5q0 76 -18 114.5t-70 38.5zM257 80l37 28q-6 38 -6 79v66l-128 -53q-33 -28 -33 -75q0 -36 18.5 -56t45.5 -20q23 0 66 31z" />
    <glyph glyph-name="Oslashacute" unicode="&#x1fe;" horiz-adv-x="771" 
d="M526 901l-124 -134h-36l57 134h103zM627 628q105 -102 105 -263q0 -164 -87.5 -258.5t-269.5 -123.5q-117 0 -203 65l-50 -63h-40l66 83q-109 101 -109 267q0 164 87.5 258.5t268.5 123.5q121 0 209 -69l53 67h38zM157 367q0 -130 52 -221l339 431q-68 101 -180 101
q-101 0 -156 -87t-55 -224zM403 22q102 0 156.5 87t54.5 224q0 123 -49 216l-339 -431q67 -96 177 -96z" />
    <glyph glyph-name="oslashacute" unicode="&#x1ff;" horiz-adv-x="533" 
d="M408 710l-128 -162h-27l53 162h102zM436 416q61 -69 61 -171q0 -214 -245 -260q-81 0 -139 50l-38 -45h-35l54 63q-60 68 -60 170q0 213 244 260q83 0 139 -50l41 48h33zM135 249q0 -69 20 -123l209 244q-41 77 -112 77q-57 0 -87 -53.5t-30 -144.5zM278 20q56 0 86.5 54
t30.5 144q0 74 -20 126l-208 -245q40 -79 111 -79z" />
    <glyph glyph-name="Scommaaccent" unicode="&#x218;" horiz-adv-x="545" 
d="M256 -17q-115 0 -204 63l-11 151h40l40 -99q63 -72 152 -72q63 0 100 35t37 92q0 87 -109 142l-121 63q-60 31 -91.5 67t-31.5 95q0 75 60.5 125.5t170.5 71.5q104 0 187 -50v-148h-30l-41 108q-53 53 -125 53q-59 0 -94 -31t-35 -82q0 -41 24.5 -69.5t73.5 -52.5
l118 -61q67 -34 101.5 -76t34.5 -105q0 -163 -246 -220zM243 -237l-20 6l36 104l-30 32v42h95v-76z" />
    <glyph glyph-name="scommaaccent" unicode="&#x219;" horiz-adv-x="403" 
d="M193 -15q-74 0 -153 43l-9 123h36l43 -94q43 -36 90 -36q39 0 60.5 20.5t21.5 51.5q0 32 -16.5 50.5t-60.5 43.5l-79 46q-83 47 -83 115q0 49 42 81.5t127 53.5q80 0 144 -40v-114h-32l-37 90q-35 30 -84 30q-32 0 -53.5 -17t-21.5 -45q0 -27 17.5 -44.5t56.5 -39.5
l81 -46q47 -26 67 -54.5t20 -69.5q0 -57 -44.5 -92.5t-132.5 -55.5zM171 -237l-20 6l36 104l-30 32v42h95v-76z" />
    <glyph glyph-name="uni021A" unicode="&#x21a;" horiz-adv-x="589" 
d="M140 -1l-2 23l104 10v637h-146l-59 -157h-24v189l282 -2l282 2v-189h-25l-58 157h-146v-637l102 -10l-3 -23l-152 2zM260 -237l-20 6l36 104l-30 32v42h95v-76z" />
    <glyph glyph-name="uni021B" unicode="&#x21b;" horiz-adv-x="344" 
d="M209 -15q-119 0 -119 130v317h-85v8l18 23h69v71l79 59h14v-134h145v-27h-145v-316q0 -30 16 -47t41 -17q37 0 84 25l11 -22zM170 -237l-20 6l36 104l-30 32v42h95v-76z" />
    <glyph glyph-name="uni0237" unicode="&#x237;" horiz-adv-x="265" 
d="M-20 -236v88h102l6 18q13 39 13 109v447l-67 -10l-3 22l135 35l30 2v-477q0 -43 -12 -71t-40 -59l-90 -104h-74z" />
    <glyph glyph-name="uni02BC" unicode="&#x2bc;" horiz-adv-x="207" 
d="M78 450l-22 8q31 70 51 141l-21 -2l-33 5l-6 57l7 46l73 5l30 -5l5 -54l-7 -49z" />
    <glyph glyph-name="circumflex" unicode="&#x2c6;" horiz-adv-x="600" 
d="M105 548l116 162h47l117 -162h-32l-99 84l-9 13l-9 -13l-99 -84h-32z" />
    <glyph glyph-name="caron" unicode="&#x2c7;" horiz-adv-x="600" 
d="M222 548l-115 162h33l97 -83l9 -13l10 13l97 83h32l-114 -162h-49z" />
    <glyph glyph-name="breve" unicode="&#x2d8;" horiz-adv-x="600" 
d="M259 561q-54 0 -96.5 37t-60.5 89l19 14q49 -74 124 -74q23 0 42 6t34.5 20t23 22.5t20.5 25.5l20 -13q-37 -81 -126 -127z" />
    <glyph glyph-name="dotaccent" unicode="&#x2d9;" horiz-adv-x="600" 
d="M229 583l-26 6l-6 54l9 44l70 5l27 -5l5 -53l-11 -45z" />
    <glyph glyph-name="ring" unicode="&#x2da;" horiz-adv-x="600" 
d="M249 541q-44 0 -74.5 22.5t-30.5 70.5q0 23 7.5 39t25 27.5t31 17t39.5 14.5q104 0 104 -96q0 -11 -1.5 -19.5t-5.5 -16.5l-6.5 -13t-11 -11t-11.5 -8.5t-15 -7.5t-15.5 -6.5t-18 -6.5t-17.5 -6zM248 571q28 0 46.5 18t18.5 46q0 29 -18.5 48t-46.5 19t-46.5 -19
t-18.5 -48q0 -28 18 -46t47 -18z" />
    <glyph glyph-name="ogonek" unicode="&#x2db;" horiz-adv-x="600" 
d="M351 -243q-97 0 -139.5 25t-42.5 78v44l121 125h22l-71 -140v-43q0 -69 110 -69v-20z" />
    <glyph glyph-name="tilde" unicode="&#x2dc;" horiz-adv-x="600" 
d="M317 573l-179 70l-30 -70h-19l26 98l67 21l178 -69l31 69h18l-26 -101z" />
    <glyph glyph-name="hungarumlaut" unicode="&#x2dd;" horiz-adv-x="600" 
d="M52 548l54 162h110l-138 -162h-26zM212 548l54 162h109l-137 -162h-26z" />
    <glyph glyph-name="gravecomb" unicode="&#x300;" horiz-adv-x="0" 
d="M-229 548l-128 162h102l53 -162h-27z" />
    <glyph glyph-name="acutecomb" unicode="&#x301;" horiz-adv-x="0" 
d="M-356 548l53 162h102l-128 -162h-27z" />
    <glyph glyph-name="uni0302" unicode="&#x302;" horiz-adv-x="0" 
d="M-395 548l116 162h47l117 -162h-32l-99 84l-9 13l-9 -13l-99 -84h-32z" />
    <glyph glyph-name="tildecomb" unicode="&#x303;" horiz-adv-x="0" 
d="M-183 573l-179 70l-30 -70h-19l26 98l67 21l178 -69l31 69h18l-26 -101z" />
    <glyph glyph-name="uni0304" unicode="&#x304;" horiz-adv-x="0" 
d="M-391 609v47h282v-47h-282z" />
    <glyph glyph-name="uni0306" unicode="&#x306;" horiz-adv-x="0" 
d="M-241 561q-54 0 -96.5 37t-60.5 89l19 14q49 -74 124 -74q23 0 42 6t34.5 20t23 22.5t20.5 25.5l20 -13q-37 -81 -126 -127z" />
    <glyph glyph-name="uni0307" unicode="&#x307;" horiz-adv-x="0" 
d="M-271 583l-26 6l-6 54l9 44l70 5l27 -5l5 -53l-11 -45z" />
    <glyph glyph-name="uni0308" unicode="&#x308;" horiz-adv-x="0" 
d="M-360 583l-24 5l-4 47l8 39l59 5l23 -5l6 -46l-10 -40zM-185 583l-24 5l-5 47l9 39l58 5l24 -5l6 -46l-10 -40z" />
    <glyph glyph-name="uni030A" unicode="&#x30a;" horiz-adv-x="0" 
d="M-251 541q-44 0 -74.5 22.5t-30.5 70.5q0 23 7.5 39t25 27.5t31 17t39.5 14.5q104 0 104 -96q0 -11 -1.5 -19.5t-5.5 -16.5l-6.5 -13t-11 -11t-11.5 -8.5t-15 -7.5t-15.5 -6.5t-18 -6.5t-17.5 -6zM-252 571q28 0 46.5 18t18.5 46q0 29 -18.5 48t-46.5 19t-46.5 -19
t-18.5 -48q0 -28 18 -46t47 -18z" />
    <glyph glyph-name="uni030B" unicode="&#x30b;" horiz-adv-x="0" 
d="M-448 548l54 162h110l-138 -162h-26zM-288 548l54 162h109l-137 -162h-26z" />
    <glyph glyph-name="uni030C" unicode="&#x30c;" horiz-adv-x="0" 
d="M-278 548l-115 162h33l97 -83l9 -13l10 13l97 83h32l-114 -162h-49z" />
    <glyph glyph-name="uni0312" unicode="&#x312;" horiz-adv-x="0" 
d="M-304 548v73l78 94l24 -6l-38 -85l33 -32v-44h-97z" />
    <glyph glyph-name="uni0326" unicode="&#x326;" horiz-adv-x="0" 
d="M-282 -237l-20 6l36 104l-30 32v42h95v-76z" />
    <glyph glyph-name="uni0327" unicode="&#x327;" horiz-adv-x="0" 
d="M-337 -243l28 39h75q30 20 30 63q0 29 -21 43t-51 16l62 89l22 -4l-34 -51q35 -2 58.5 -22t23.5 -53q0 -65 -89 -98l-62 -22h-42z" />
    <glyph glyph-name="uni0328" unicode="&#x328;" horiz-adv-x="0" 
d="M-149 -243q-97 0 -139.5 25t-42.5 78v44l121 125h22l-71 -140v-43q0 -69 110 -69v-20z" />
    <glyph glyph-name="uni0394" unicode="&#x394;" horiz-adv-x="686" 
d="M20 0v30l303 666l48 18l295 -683v-31h-646zM66 34h480l-226 543l-4 28z" />
    <glyph glyph-name="uni03A9" unicode="&#x3a9;" horiz-adv-x="704" 
d="M33 0v167h22l30 -87l182 -17v70q-95 16 -163.5 87t-68.5 188q0 118 77.5 193t249.5 114q135 0 221 -83t86 -203t-60.5 -189.5t-171.5 -101.5v-75l181 17l31 87h23v-167h-275v160q27 4 52 18t49.5 40.5t39.5 76t15 114.5q0 118 -58.5 191.5t-148.5 73.5q-87 0 -141 -67.5
t-54 -174.5q0 -116 47.5 -190t109.5 -82v-160h-275z" />
    <glyph glyph-name="uni03BC" unicode="&#x3bc;" 
d="M469 64q14 -33 70 -44l-2 -20h-119l-44 78v5l-142 -98q-92 0 -114 52v-67l69 -200h-107v698h96v-320q0 -93 71 -93q30 0 94 41l33 20v352h95v-404z" />
    <glyph glyph-name="pi" unicode="&#x3c0;" 
d="M149 0v433h-50l-47 -113h-21v146h558v-33h-111v-364q15 -38 70 -49l-2 -20h-119l-44 76v357h-139v-433h-95z" />
    <glyph glyph-name="uni0E3F" unicode="&#xe3f;" horiz-adv-x="633" 
d="M595 202q0 -178 -260 -203v-79h-30v79l-143 2l-131 -2l-2 23l85 10v636l-85 10l2 23l136 -2l138 1v81h30v-80h28q92 0 142.5 -45t50.5 -108q0 -67 -53 -115t-131 -59q108 -3 165.5 -51t57.5 -121zM446 542q0 56 -29 91.5t-82 39.5v-288q52 10 81.5 53t29.5 104zM220 668
v-285h85v290zM220 32l85 -6v328h-85v-322zM335 27q78 8 114 55.5t36 115.5q0 70 -41 111.5t-109 44.5v-327z" />
    <glyph glyph-name="Wgrave" unicode="&#x1e80;" horiz-adv-x="994" 
d="M499 767l-124 134h103l56 -134h-35zM292 -10l-222 679l-60 9l2 23l123 -2l128 2l3 -23l-83 -10l164 -523l1 -29l127 417l-44 136l-62 9l2 23l126 -2l127 2l2 -23l-83 -10l165 -523l1 -29l170 553l-87 9l3 23l104 -2l83 2l2 -23l-62 -9l-210 -660l-59 -19l-153 464l-1 30
l-148 -475z" />
    <glyph glyph-name="wgrave" unicode="&#x1e81;" horiz-adv-x="831" 
d="M415 548l-128 162h102l53 -162h-27zM223 -15l-161 453l-57 8l3 23l107 -2l102 2l2 -23l-56 -8l118 -350l4 -30l109 316l-23 64l-47 8l3 23l99 -2l100 2l3 -23l-56 -8l118 -350l4 -30l128 380l-59 8l3 23l76 -2l80 2l3 -23l-60 -8l-151 -421l-82 -32l-114 318l-3 33
l-110 -319z" />
    <glyph glyph-name="Wacute" unicode="&#x1e82;" horiz-adv-x="994" 
d="M481 767l57 134h103l-124 -134h-36zM292 -10l-222 679l-60 9l2 23l123 -2l128 2l3 -23l-83 -10l164 -523l1 -29l127 417l-44 136l-62 9l2 23l126 -2l127 2l2 -23l-83 -10l165 -523l1 -29l170 553l-87 9l3 23l104 -2l83 2l2 -23l-62 -9l-210 -660l-59 -19l-153 464l-1 30
l-148 -475z" />
    <glyph glyph-name="wacute" unicode="&#x1e83;" horiz-adv-x="831" 
d="M411 548l53 162h102l-128 -162h-27zM223 -15l-161 453l-57 8l3 23l107 -2l102 2l2 -23l-56 -8l118 -350l4 -30l109 316l-23 64l-47 8l3 23l99 -2l100 2l3 -23l-56 -8l118 -350l4 -30l128 380l-59 8l3 23l76 -2l80 2l3 -23l-60 -8l-151 -421l-82 -32l-114 318l-3 33
l-110 -319z" />
    <glyph glyph-name="Wdieresis" unicode="&#x1e84;" horiz-adv-x="994" 
d="M372 783l-24 4l-5 48l8 39l59 5l24 -5l5 -46l-9 -41zM591 783l-24 4l-5 48l9 39l58 5l24 -5l6 -46l-10 -41zM292 -10l-222 679l-60 9l2 23l123 -2l128 2l3 -23l-83 -10l164 -523l1 -29l127 417l-44 136l-62 9l2 23l126 -2l127 2l2 -23l-83 -10l165 -523l1 -29l170 553
l-87 9l3 23l104 -2l83 2l2 -23l-62 -9l-210 -660l-59 -19l-153 464l-1 30l-148 -475z" />
    <glyph glyph-name="wdieresis" unicode="&#x1e85;" horiz-adv-x="831" 
d="M316 583l-24 5l-4 47l8 39l59 5l23 -5l6 -46l-10 -40zM491 583l-24 5l-5 47l9 39l58 5l24 -5l6 -46l-10 -40zM223 -15l-161 453l-57 8l3 23l107 -2l102 2l2 -23l-56 -8l118 -350l4 -30l109 316l-23 64l-47 8l3 23l99 -2l100 2l3 -23l-56 -8l118 -350l4 -30l128 380l-59 8
l3 23l76 -2l80 2l3 -23l-60 -8l-151 -421l-82 -32l-114 318l-3 33l-110 -319z" />
    <glyph glyph-name="Ygrave" unicode="&#x1ef2;" horiz-adv-x="700" 
d="M382 767l-124 134h103l56 -134h-35zM191 -1l-2 23l113 10v242l-223 396l-74 8l3 23l137 -2l138 2l2 -23l-86 -9l186 -333l3 -20l186 353l-91 9l3 23l112 -2l94 2l3 -22l-75 -9l-212 -390v-248l112 -10l-3 -23l-160 2z" />
    <glyph glyph-name="ygrave" unicode="&#x1ef3;" horiz-adv-x="536" 
d="M264 548l-128 162h102l53 -162h-27zM87 -235v97h98l102 168l-62 -25l-163 433l-57 8l3 23l112 -2l106 2l2 -23l-61 -8l125 -342l4 -36l129 378l-58 8l3 23l82 -2l77 2l2 -23l-61 -8l-152 -411l-117 -262h-114z" />
    <glyph glyph-name="uni2002" unicode="&#x2002;" horiz-adv-x="500" 
 />
    <glyph glyph-name="uni2003" unicode="&#x2003;" horiz-adv-x="1000" 
 />
    <glyph glyph-name="uni2004" unicode="&#x2004;" horiz-adv-x="0" 
 />
    <glyph glyph-name="uni2005" unicode="&#x2005;" horiz-adv-x="250" 
 />
    <glyph glyph-name="uni2009" unicode="&#x2009;" horiz-adv-x="135" 
 />
    <glyph glyph-name="uni200A" unicode="&#x200a;" horiz-adv-x="75" 
 />
    <glyph glyph-name="endash" unicode="&#x2013;" horiz-adv-x="470" 
d="M35 259v37h400v-37h-400z" />
    <glyph glyph-name="emdash" unicode="&#x2014;" horiz-adv-x="870" 
d="M35 259v37h800v-37h-800z" />
    <glyph glyph-name="quoteleft" unicode="&#x2018;" horiz-adv-x="207" 
d="M137 715l22 -8q-31 -70 -51 -141l21 2l33 -5l6 -57l-7 -46l-73 -5l-30 5l-5 54l7 49z" />
    <glyph glyph-name="quoteright" unicode="&#x2019;" horiz-adv-x="207" 
d="M78 450l-22 8q31 70 51 141l-21 -2l-33 5l-6 57l7 46l73 5l30 -5l5 -54l-7 -49z" />
    <glyph glyph-name="quotesinglbase" unicode="&#x201a;" horiz-adv-x="194" 
d="M76 -144l-22 8q31 70 51 141l-21 -2l-33 5l-6 57l7 46l73 5l30 -5l5 -54l-7 -49z" />
    <glyph glyph-name="quotedblleft" unicode="&#x201c;" horiz-adv-x="348" 
d="M127 715l22 -8q-31 -70 -51 -141l21 2l33 -5l6 -57l-7 -46l-73 -5l-30 5l-5 54l7 49zM288 715l22 -8q-31 -70 -51 -141l21 2l33 -5l6 -57l-7 -46l-73 -5l-30 5l-5 54l7 49z" />
    <glyph glyph-name="quotedblright" unicode="&#x201d;" horiz-adv-x="351" 
d="M76 451l-22 8q31 70 51 141l-21 -2l-33 5l-6 57l7 46l73 5l30 -5l5 -54l-7 -49zM237 451l-22 8q31 70 51 141l-21 -2l-33 5l-6 57l7 46l73 5l30 -5l5 -54l-7 -49z" />
    <glyph glyph-name="quotedblbase" unicode="&#x201e;" horiz-adv-x="358" 
d="M78 -144l-22 8q31 70 51 141l-21 -2l-33 5l-6 57l7 46l73 5l30 -5l5 -54l-7 -49zM240 -144l-22 8q31 70 51 141l-21 -2l-33 5l-6 57l7 46l73 5l30 -5l5 -54l-7 -49z" />
    <glyph glyph-name="dagger" unicode="&#x2020;" horiz-adv-x="433" 
d="M207 -60l-21 285l-37 103l34 42l18 115l-176 -39v107l176 -40l-41 197h108l-40 -197l180 40v-107l-180 39l18 -115l34 -42l-36 -103l-22 -285h-15z" />
    <glyph glyph-name="daggerdbl" unicode="&#x2021;" horiz-adv-x="443" 
d="M166 -53l40 197l-176 -39v106l176 -39l-18 115l-34 42l34 41l18 115l-176 -39v107l176 -40l-40 197h108l-41 -197l180 40v-107l-180 39l19 -115l34 -41l-34 -42l-19 -115l180 39v-106l-180 39l41 -197h-108z" />
    <glyph glyph-name="bullet" unicode="&#x2022;" horiz-adv-x="226" 
d="M90 241l-35 5l-5 62l7 53l78 5l36 -5l5 -61l-7 -54z" />
    <glyph glyph-name="ellipsis" unicode="&#x2026;" horiz-adv-x="766" 
d="M108 -5l-28 5l-5 57l7 48l74 5l29 -5l5 -56l-7 -49zM359 -5l-28 5l-6 57l8 48l73 5l29 -5l5 -56l-7 -49zM609 -5l-28 5l-5 57l7 48l74 5l29 -5l5 -56l-7 -49z" />
    <glyph glyph-name="perthousand" unicode="&#x2030;" horiz-adv-x="1171" 
d="M195 357q-68 0 -109 47t-41 121q0 77 43 120.5t135 59.5q69 0 109.5 -46.5t40.5 -121.5q0 -153 -178 -180zM139 -5l494 710h49l-494 -710h-49zM216 381q77 0 77 138q0 75 -22.5 118.5t-68.5 43.5q-38 0 -58 -37.5t-20 -99.5q0 -76 23 -119.5t69 -43.5zM579 -5
q-69 0 -110 46.5t-41 121.5q0 77 43 120.5t134 59.5q70 0 111 -47t41 -122q0 -151 -178 -179zM948 -5q-69 0 -110 46.5t-41 121.5q0 77 43 120.5t134 59.5q70 0 111 -47t41 -122q0 -151 -178 -179zM598 19q39 0 59 37t20 100q0 75 -22.5 119t-68.5 44q-39 0 -59 -37.5
t-20 -100.5q0 -75 22.5 -118.5t68.5 -43.5zM968 19q38 0 58 37.5t20 99.5q0 75 -22.5 119t-68.5 44q-39 0 -58.5 -37.5t-19.5 -100.5q0 -162 91 -162z" />
    <glyph glyph-name="guilsinglleft" unicode="&#x2039;" horiz-adv-x="281" 
d="M214 15l-181 220l182 220h31l-129 -221l129 -219h-32z" />
    <glyph glyph-name="guilsinglright" unicode="&#x203a;" horiz-adv-x="281" 
d="M40 15l129 219l-129 221h31l183 -220l-181 -220h-33z" />
    <glyph glyph-name="fraction" unicode="&#x2044;" horiz-adv-x="109" 
d="M-160 -50l387 760h42l-385 -760h-44z" />
    <glyph glyph-name="uni2070" unicode="&#x2070;" horiz-adv-x="411" 
d="M194 391q-70 0 -109.5 54t-39.5 141q0 88 41 139t132 69q69 0 108.5 -54t39.5 -141q0 -88 -41 -139t-131 -69zM211 417q65 0 65 165q0 186 -75 186q-66 0 -66 -164q0 -187 76 -187z" />
    <glyph glyph-name="uni2074" unicode="&#x2074;" horiz-adv-x="379" 
d="M200 400v108h-157l-15 24l188 253h82v-21l-235 -228l15 6h122v71l66 45h9v-116h77v-34h-77v-108h-75z" />
    <glyph glyph-name="uni2075" unicode="&#x2075;" horiz-adv-x="343" 
d="M45 399v67h125q43 32 43 77q0 27 -17 45t-50 18q-27 0 -63 -16l-22 -9l-11 8l25 196h219v-13l-15 -51h-190l-15 -117l108 53q56 0 86 -25.5t30 -63.5q0 -24 -9 -43t-28.5 -34.5t-36.5 -25.5t-47 -25l-81 -41h-51z" />
    <glyph glyph-name="uni2076" unicode="&#x2076;" horiz-adv-x="381" 
d="M228 648q54 0 82 -32.5t28 -77.5q0 -60 -39.5 -94.5t-115.5 -51.5q-64 0 -100 42.5t-36 111.5q0 83 57 149t179 102l6 -18q-86 -34 -119 -78t-35 -119zM198 415q56 0 56 100q0 38 -13 59.5t-34 21.5q-15 0 -55 -24l-17 -11q0 -146 63 -146z" />
    <glyph glyph-name="uni2077" unicode="&#x2077;" horiz-adv-x="338" 
d="M66 400v21l191 301l-6 -4h-222v67h266l11 -13l-177 -372h-63z" />
    <glyph glyph-name="uni2078" unicode="&#x2078;" horiz-adv-x="381" 
d="M253 604q81 -48 81 -101q0 -43 -36.5 -68.5t-113.5 -42.5q-59 2 -98 28.5t-39 71.5q0 59 93 93l-13 9q-72 45 -72 97q0 74 138 103q61 -1 96 -24.5t35 -61.5q0 -58 -93 -89zM186 770q-22 0 -36 -12t-14 -34q0 -42 70 -87l6 -4q33 27 33 72q0 29 -16 47t-43 18zM193 415
q24 0 40.5 14t16.5 43q0 18 -11 34.5t-23 25.5t-35 24l-23 16q-32 -30 -32 -74q0 -39 20 -61t47 -22z" />
    <glyph glyph-name="uni2079" unicode="&#x2079;" horiz-adv-x="375" 
d="M191 794q64 0 100 -42.5t36 -111.5q0 -82 -57.5 -147.5t-178.5 -102.5l-5 18q82 33 116 77t37 117l-92 -64q-54 0 -82.5 33t-28.5 77q0 60 39.5 94t115.5 52zM169 590q17 0 51 22l19 13q-2 145 -62 145q-57 0 -57 -95q0 -41 13.5 -63t35.5 -22z" />
    <glyph glyph-name="uni207A" unicode="&#x207a;" horiz-adv-x="409" 
d="M189 441v124h-139v30h139v129h31v-129h139v-30h-139v-124h-31z" />
    <glyph glyph-name="uni207B" unicode="&#x207b;" horiz-adv-x="415" 
d="M50 580v29h315v-29h-315z" />
    <glyph glyph-name="uni207C" unicode="&#x207c;" horiz-adv-x="410" 
d="M50 602v30h310v-30h-310zM50 519v29h310v-29h-310z" />
    <glyph glyph-name="uni207D" unicode="&#x207d;" horiz-adv-x="216" 
d="M185 310q-75 68 -105 125.5t-30 139.5q0 81 30 139t105 124l11 -10q-86 -98 -86 -253q0 -156 86 -254z" />
    <glyph glyph-name="uni207E" unicode="&#x207e;" horiz-adv-x="201" 
d="M31 310l-11 11q86 98 86 254q0 155 -86 253l11 10q74 -65 104.5 -123t30.5 -140t-30 -140t-105 -125z" />
    <glyph glyph-name="uni2080" unicode="&#x2080;" horiz-adv-x="411" 
d="M194 -159q-70 0 -109.5 54t-39.5 141q0 88 41 139t132 69q69 0 108.5 -54t39.5 -141q0 -88 -41 -139t-131 -69zM211 -133q65 0 65 165q0 186 -75 186q-66 0 -66 -164q0 -187 76 -187z" />
    <glyph glyph-name="uni2081" unicode="&#x2081;" horiz-adv-x="311" 
d="M43 -151l-2 19l83 7v309l3 7l-14 -8l-69 -17l-8 17l141 56h26v-364l83 -7l-2 -19l-119 2z" />
    <glyph glyph-name="uni2082" unicode="&#x2082;" horiz-adv-x="376" 
d="M37 -150l-10 17l91 92q111 111 111 185q0 32 -15.5 51.5t-40.5 19.5q-18 0 -39 -7l-21 -81h-66v70l140 47q62 0 95.5 -27.5t33.5 -70.5q0 -51 -35.5 -93.5t-111.5 -93.5l-81 -55l31 11h211v-17l-20 -48h-273z" />
    <glyph glyph-name="uni2083" unicode="&#x2083;" horiz-adv-x="353" 
d="M43 -151v67h144q31 25 31 59q0 31 -26 50.5t-75 19.5l-4 16l29 14q35 16 48.5 34.5t13.5 47.5q0 26 -13 41t-34 15q-12 0 -31 -7l-21 -72h-64v65l142 45q53 0 78 -20.5t25 -49.5q0 -61 -103 -90q57 -3 88 -28t31 -58q0 -21 -8.5 -37t-29 -30.5t-36 -23t-48.5 -23.5
l-78 -35h-59z" />
    <glyph glyph-name="uni2084" unicode="&#x2084;" horiz-adv-x="379" 
d="M200 -150v108h-157l-15 24l188 253h82v-21l-235 -228l15 6h122v71l66 45h9v-116h77v-34h-77v-108h-75z" />
    <glyph glyph-name="uni2085" unicode="&#x2085;" horiz-adv-x="343" 
d="M45 -151v67h125q43 32 43 77q0 27 -17 45t-50 18q-27 0 -63 -16l-22 -9l-11 8l25 196h219v-13l-15 -51h-190l-15 -117l108 53q56 0 86 -25.5t30 -63.5q0 -24 -9 -43t-28.5 -34.5t-36.5 -25.5t-47 -25l-81 -41h-51z" />
    <glyph glyph-name="uni2086" unicode="&#x2086;" horiz-adv-x="381" 
d="M228 98q54 0 82 -32.5t28 -77.5q0 -60 -39.5 -94.5t-115.5 -51.5q-64 0 -100 42.5t-36 111.5q0 83 57 149t179 102l6 -18q-86 -34 -119 -78t-35 -119zM198 -135q56 0 56 100q0 38 -13 59.5t-34 21.5q-15 0 -55 -24l-17 -11q0 -146 63 -146z" />
    <glyph glyph-name="uni2087" unicode="&#x2087;" horiz-adv-x="338" 
d="M66 -150v21l191 301l-6 -4h-222v67h266l11 -13l-177 -372h-63z" />
    <glyph glyph-name="uni2088" unicode="&#x2088;" horiz-adv-x="381" 
d="M253 54q81 -48 81 -101q0 -43 -36.5 -68.5t-113.5 -42.5q-59 2 -98 28.5t-39 71.5q0 59 93 93l-13 9q-72 45 -72 97q0 74 138 103q61 -1 96 -24.5t35 -61.5q0 -58 -93 -89zM186 220q-22 0 -36 -12t-14 -34q0 -42 70 -87l6 -4q33 27 33 72q0 29 -16 47t-43 18zM193 -135
q24 0 40.5 14t16.5 43q0 18 -11 34.5t-23 25.5t-35 24l-23 16q-32 -30 -32 -74q0 -39 20 -61t47 -22z" />
    <glyph glyph-name="uni2089" unicode="&#x2089;" horiz-adv-x="375" 
d="M191 244q64 0 100 -42.5t36 -111.5q0 -82 -57.5 -147.5t-178.5 -102.5l-5 18q82 33 116 77t37 117l-92 -64q-54 0 -82.5 33t-28.5 77q0 60 39.5 94t115.5 52zM169 40q17 0 51 22l19 13q-2 145 -62 145q-57 0 -57 -95q0 -41 13.5 -63t35.5 -22z" />
    <glyph glyph-name="uni208A" unicode="&#x208a;" horiz-adv-x="409" 
d="M189 -114v125h-139v30h139v128h31v-128h139v-30h-139v-125h-31z" />
    <glyph glyph-name="uni208B" unicode="&#x208b;" horiz-adv-x="415" 
d="M50 25v30h315v-30h-315z" />
    <glyph glyph-name="uni208C" unicode="&#x208c;" horiz-adv-x="410" 
d="M50 48v29h310v-29h-310zM50 -35v29h310v-29h-310z" />
    <glyph glyph-name="uni208D" unicode="&#x208d;" horiz-adv-x="216" 
d="M185 -244q-75 68 -105 125t-30 139t30 140t105 124l11 -11q-86 -98 -86 -253q0 -154 86 -254z" />
    <glyph glyph-name="uni208E" unicode="&#x208e;" horiz-adv-x="201" 
d="M31 -244l-11 10q86 100 86 254q0 155 -86 253l11 11q75 -65 105 -123.5t30 -140.5t-30 -139.5t-105 -124.5z" />
    <glyph glyph-name="uni20A9" unicode="&#x20a9;" horiz-adv-x="994" 
d="M922 669l-86 -271h112v-27h-121l-16 -51h137v-27h-146l-90 -284l-59 -19l-100 303h-114l-88 -284l-59 -19l-99 303h-147v27h138l-17 51h-121v27h113l-89 271l-60 9l2 23l123 -2l128 2l3 -23l-83 -10l85 -270h166l41 135l-44 136l-62 9l2 23l126 -2l127 2l2 -23l-83 -10
l85 -270h168l83 271l-87 9l3 23l104 -2l83 2l2 -23zM499 484l-27 -86h46l-18 56zM276 371l16 -51h118l16 51h-150zM448 320h96l-17 51h-63zM772 320l15 51h-150l16 -51h119zM348 116l54 177h-101l46 -148zM709 116l54 177h-102l47 -148z" />
    <glyph glyph-name="Euro" unicode="&#x20ac;" horiz-adv-x="670" 
d="M414 682q-78 0 -131 -69.5t-64 -184.5h304l-20 -34h-286q-1 -8 -1 -25q0 -33 3 -63h241l-20 -34h-216q18 -105 76 -163t145 -58q82 0 166 56l14 -26q-89 -69 -205 -96q-131 0 -214 76t-100 211h-61v34h58q-1 11 -1 33q0 28 3 55h-60v34h64q42 241 315 288q120 0 204 -64
v-156h-31l-47 126q-49 60 -136 60z" />
    <glyph glyph-name="uni20AE" unicode="&#x20ae;" horiz-adv-x="589" 
d="M295 699l282 2v-165h-25l-58 133h-146v-228l152 78v-30l-152 -78v-45l152 79v-30l-152 -79v-304l101 -10l-2 -23l-152 2l-155 -2l-3 23l105 10v250l-152 -79v30l152 79v44l-152 -78v30l152 78v283h-147l-58 -133h-25v165z" />
    <glyph glyph-name="uni20B4" unicode="&#x20b4;" horiz-adv-x="545" 
d="M455 426h73v-27h-517v27h249l37 19q49 24 73.5 52.5t24.5 69.5q0 51 -35 82t-94 31q-72 0 -125 -53l-41 -108h-30v148q83 50 187 50q110 -21 170.5 -71.5t60.5 -125.5q0 -54 -33 -94zM11 313v26h517v-26h-252l-32 -18q-109 -55 -109 -142q0 -57 37 -92t100 -35
q89 0 152 72l40 99h40l-11 -151q-89 -63 -204 -63q-246 57 -246 220q0 64 41 110h-73z" />
    <glyph glyph-name="uni20B8" unicode="&#x20b8;" horiz-adv-x="589" 
d="M13 672v28h564v-28h-564zM140 -1l-2 23l104 10v574l-146 -1l-59 -118h-24v150h564v-150h-25l-58 118l-146 1v-574l102 -10l-3 -23l-152 2z" />
    <glyph glyph-name="uni20B9" unicode="&#x20b9;" horiz-adv-x="487" 
d="M431 32l51 -11l-2 -22l-89 2l-68 -2l-206 322l-5 6h-83v29h76q76 0 122 41.5t50 109.5h-246v29h245q-4 65 -44 100t-101 35h-102v29l432 1l-14 -30h-138q80 -43 84 -135h68l-14 -29h-55q-16 -134 -230 -175l93 -34z" />
    <glyph glyph-name="uni20BA" unicode="&#x20ba;" horiz-adv-x="633" 
d="M614 311l3 -22l-63 -10q0 -255 -243 -280l-149 2l-131 -2l-2 23l85 10v212l-93 -52v30l93 52v44l-93 -52v30l93 52v320l-85 10l2 23l140 -2l133 2l2 -23l-86 -10v-260l218 122v-29l-218 -123v-44l218 122v-30l-218 -122v-272l69 -6q155 0 155 251l-75 12l3 22l131 -1z
" />
    <glyph glyph-name="uni20BD" unicode="&#x20bd;" horiz-adv-x="566" 
d="M308 308h-88v-45h230v-32h-230v-199l104 -10l-3 -23l-155 2l-135 -2l-2 23l85 10v199h-85v32h85v45h-85v33h85v327l-85 10l2 23l133 -2l176 2q94 0 154 -47t60 -132q0 -47 -20 -84t-57 -61.5t-77 -40.5t-92 -28zM220 668v-327h63q69 0 112.5 47.5t43.5 122.5
q0 73 -36 118t-109 45z" />
    <glyph glyph-name="uni2113" unicode="&#x2113;" horiz-adv-x="446" 
d="M219 44l160 60l15 -19l-189 -101l-73 22v229q-39 -17 -92 -39v37q56 23 92 43v343l150 101q61 -3 92.5 -49t31.5 -120q0 -92 -47 -156t-140 -116v-235zM219 639v-310q49 39 72 85t23 109q0 53 -13.5 93.5t-43.5 40.5z" />
    <glyph glyph-name="uni2116" unicode="&#x2116;" horiz-adv-x="985" 
d="M33 0l-2 20l89 9v635l-87 13l3 23l94 -1l94 1l253 -534l14 -54v588h119l2 -20l-86 -9v-671h-80l-278 585l-13 54v-639h-122zM756 108q-71 0 -116.5 48.5t-45.5 125.5q0 81 47.5 127t143.5 64q69 0 113 -48.5t44 -126.5q0 -158 -186 -190zM781 141q35 0 55 34.5t20 95.5
q0 77 -26 122t-70 45q-38 0 -59 -33.5t-21 -95.5q0 -76 28 -122t73 -46zM594 0v45h348v-45h-348z" />
    <glyph glyph-name="trademark" unicode="&#x2122;" horiz-adv-x="1001" 
d="M124 314l-2 19l59 6v339l-73 -1l-38 -91h-20v115l175 -1l173 1v-115h-19l-39 91l-73 1v-339l58 -6l-1 -19l-100 1zM424 314l-1 19l43 6v338l-44 6l2 18l58 -1l84 1l123 -289v-26l124 315l64 -1l73 1l1 -18l-44 -6v-338l43 -6l-1 -19l-83 1l-84 -1l-2 19l42 6v297l4 33
l-141 -356h-47l-135 324l-8 35v-333l43 -6l-1 -19l-56 1z" />
    <glyph glyph-name="uni2126" unicode="&#x2126;" horiz-adv-x="724" 
d="M43 0v167h22l30 -87l182 -17v70q-95 16 -163.5 87t-68.5 188q0 118 77.5 193t249.5 114q135 0 221 -83t86 -203t-60.5 -189.5t-171.5 -101.5v-75l181 17l31 87h23v-167h-275v160q27 4 52 18t49.5 40.5t39.5 76t15 114.5q0 118 -58.5 191.5t-148.5 73.5q-87 0 -141 -67.5
t-54 -174.5q0 -116 47.5 -190t109.5 -82v-160h-275z" />
    <glyph glyph-name="estimated" unicode="&#x212e;" horiz-adv-x="825" 
d="M404 -15q-156 0 -255 99.5t-99 250.5q0 161 81.5 242t290.5 138q152 0 249.5 -93.5t103.5 -240.5v-49h-599v-87q28 -100 92.5 -158.5t152.5 -58.5t144.5 51t79.5 141h111q-34 -99 -115.5 -150t-236.5 -85zM176 383h469v70q-24 101 -89 159.5t-155 58.5q-166 0 -225 -169
v-119z" />
    <glyph glyph-name="arrowleft" unicode="&#x2190;" horiz-adv-x="610" 
d="M320 35l-270 260l270 260v-63l-176 -164l-18 -10h434v-46h-434l18 -9l176 -165v-63z" />
    <glyph glyph-name="arrowup" unicode="&#x2191;" horiz-adv-x="619" 
d="M287 40v434l-10 -19l-164 -175h-63l260 270l259 -270h-62l-165 175l-10 19v-434h-45z" />
    <glyph glyph-name="arrowright" unicode="&#x2192;" horiz-adv-x="610" 
d="M290 35v63l176 165l18 9h-434v46h434l-18 10l-176 164v63l270 -260z" />
    <glyph glyph-name="arrowdown" unicode="&#x2193;" horiz-adv-x="619" 
d="M310 40l-260 270h63l164 -175l10 -19v434h45v-434l10 19l165 175h62z" />
    <glyph glyph-name="uni2196" unicode="&#x2196;" horiz-adv-x="478" 
d="M394 99l-307 307l6 -20l1 -241l-44 -45v375h375l-45 -44l-240 1l-21 6l307 -307z" />
    <glyph glyph-name="uni2197" unicode="&#x2197;" horiz-adv-x="478" 
d="M83 99l-32 32l307 307l-20 -6l-241 -1l-44 44h375v-375l-44 45l1 241l6 20z" />
    <glyph glyph-name="uni2198" unicode="&#x2198;" horiz-adv-x="478" 
d="M53 91l44 44l241 -1l20 -6l-307 307l32 33l308 -307l-6 19l-1 241l44 45v-375h-375z" />
    <glyph glyph-name="uni2199" unicode="&#x2199;" horiz-adv-x="478" 
d="M50 91v375l44 -45l-1 -241l-6 -19l307 307l32 -33l-307 -307l21 6l240 1l45 -44h-375z" />
    <glyph glyph-name="partialdiff" unicode="&#x2202;" 
d="M179 720q175 -59 268 -171.5t93 -273.5q0 -124 -58 -201t-166 -89q-111 17 -173.5 88t-62.5 178q0 93 49.5 156.5t138.5 65.5l162 -86q-18 112 -83 187.5t-181 121.5zM306 19q60 0 95.5 74.5t35.5 196.5q0 35 -3 68l-35 18q-67 35 -105 35q-52 0 -81 -47.5t-29 -132.5
q0 -102 33.5 -157t88.5 -55z" />
    <glyph glyph-name="emptyset" unicode="&#x2205;" horiz-adv-x="608" 
d="M534 553l-61 -61q46 -57 46 -136q0 -90 -58 -149.5t-151 -59.5q-80 0 -136 46l-62 -61l-25 25l62 61q-48 57 -48 138q0 89 58.5 149t150.5 60q82 0 138 -48l61 61zM143 356q0 -64 35 -108l241 241q-46 38 -109 38q-74 0 -120.5 -50t-46.5 -121zM478 356q0 61 -34 107
l-242 -241q45 -37 108 -37q75 0 121.5 49.5t46.5 121.5z" />
    <glyph glyph-name="uni2206" unicode="&#x2206;" horiz-adv-x="693" 
d="M24 0v30l303 666l48 18l295 -683v-31h-646zM70 34h480l-226 543l-4 28z" />
    <glyph glyph-name="product" unicode="&#x220f;" horiz-adv-x="733" 
d="M23 -160l-3 23l85 9v796l-85 9l3 23h688l2 -23l-84 -9v-796l82 -9l-2 -23l-131 1l-136 -1l-2 23l84 9v794h-314v-794l81 -9l-2 -23l-132 1z" />
    <glyph glyph-name="summation" unicode="&#x2211;" 
d="M67 -160l-13 24l301 381l-290 429l14 26h472v-169h-22l-60 137l-275 2l245 -358v-19l-297 -373l346 8l53 101h25l-18 -189h-481z" />
    <glyph glyph-name="minus" unicode="&#x2212;" 
d="M47 253v45h525v-45h-525z" />
    <glyph glyph-name="radical" unicode="&#x221a;" 
d="M180 -16l-171 454l-60 8l3 20h153l131 -364l4 -35l276 812h201l-13 -39h-158l-287 -825z" />
    <glyph glyph-name="infinity" unicode="&#x221e;" horiz-adv-x="817" 
d="M208 129q-67 0 -107.5 45t-40.5 114q0 117 158 182q55 0 102 -32t107 -95l47 50q70 77 141 77q66 0 104 -45t38 -113q0 -64 -35.5 -105t-122.5 -78q-53 0 -101.5 32t-105.5 92l-48 -53q-64 -71 -136 -71zM620 215q40 0 69.5 23.5t29.5 70.5q0 89 -111 89q-69 0 -122 -52
l-32 -32q41 -42 86.5 -70.5t79.5 -28.5zM216 197q61 0 116 50l35 34q-92 102 -164 103q-45 0 -75 -23t-30 -68q0 -41 31.5 -68.5t86.5 -27.5z" />
    <glyph glyph-name="integral" unicode="&#x222b;" 
d="M121 -235v79h94l10 18q15 31 15 116v496q0 84 50 138l93 98h116v-75h-136l-13 -21q-15 -31 -15 -114v-496q0 -84 -51 -141l-92 -98h-71z" />
    <glyph glyph-name="approxequal" unicode="&#x2248;" 
d="M26 278l38 87l96 23l367 -58l45 66h22l-38 -87l-94 -22l-369 59l-44 -68h-23zM26 91l37 87l96 23l368 -58l44 66h23l-39 -87l-93 -23l-369 60l-45 -68h-22z" />
    <glyph glyph-name="notequal" unicode="&#x2260;" 
d="M92 0l106 126h-147v45h184l125 148h-309v45h346l98 116h51l-98 -116h120v-45h-157l-124 -148h281v-45h-319l-104 -126h-53z" />
    <glyph glyph-name="lessequal" unicode="&#x2264;" 
d="M570 105l-520 234v37l520 236v-53l-457 -201l457 -200v-53zM50 0v45h520v-45h-520z" />
    <glyph glyph-name="greaterequal" unicode="&#x2265;" 
d="M50 105v53l457 200l-457 201v53l520 -236v-37zM50 0v45h520v-45h-520z" />
    <glyph glyph-name="uni2460" unicode="&#x2460;" horiz-adv-x="812" 
d="M407 -15q-155 2 -261.5 102t-106.5 269q0 153 97.5 243.5t268.5 115.5q155 -2 262 -102t107 -269q0 -153 -98 -243.5t-269 -115.5zM405 14q129 0 220 90t91 240q0 84 -30.5 152t-77.5 108t-99.5 61t-101.5 21q-128 0 -219 -90t-91 -240q0 -84 30 -152t77.5 -108t99.5 -61
t101 -21zM293 167l-1 19l82 7v308l3 8l-14 -9l-69 -16l-7 17l141 56h26v-364l83 -7l-2 -19l-119 1z" />
    <glyph glyph-name="uni2461" unicode="&#x2461;" horiz-adv-x="812" 
d="M407 -15q-155 2 -261.5 102t-106.5 269q0 153 97.5 243.5t268.5 115.5q155 -2 262 -102t107 -269q0 -153 -98 -243.5t-269 -115.5zM405 14q129 0 220 90t91 240q0 84 -30.5 152t-77.5 108t-99.5 61t-101.5 21q-128 0 -219 -90t-91 -240q0 -84 30 -152t77.5 -108t99.5 -61
t101 -21zM264 168l-10 17l91 92q111 111 111 185q0 32 -15.5 51.5t-40.5 19.5q-18 0 -39 -7l-20 -81h-67v70l140 47q62 0 96 -27.5t34 -70.5q0 -51 -35.5 -93.5t-112.5 -93.5l-81 -55l31 11h211v-17l-20 -48h-273z" />
    <glyph glyph-name="uni2462" unicode="&#x2462;" horiz-adv-x="812" 
d="M407 -15q-155 2 -261.5 102t-106.5 269q0 153 97.5 243.5t268.5 115.5q155 -2 262 -102t107 -269q0 -153 -98 -243.5t-269 -115.5zM405 14q129 0 220 90t91 240q0 84 -30.5 152t-77.5 108t-99.5 61t-101.5 21q-128 0 -219 -90t-91 -240q0 -84 30 -152t77.5 -108t99.5 -61
t101 -21zM295 158v67h144q32 26 32 60q0 31 -26.5 50.5t-74.5 19.5l-4 16l29 14q35 16 48.5 34.5t13.5 47.5q0 25 -13.5 40.5t-34.5 15.5q-12 0 -31 -7l-21 -72h-63v65l142 45q53 0 77.5 -20.5t24.5 -49.5q0 -61 -102 -90q57 -3 88 -28t31 -58q0 -21 -8.5 -37t-29.5 -31
t-36 -22.5t-49 -23.5l-77 -36h-60z" />
    <glyph glyph-name="uni2463" unicode="&#x2463;" horiz-adv-x="812" 
d="M407 -15q-155 2 -261.5 102t-106.5 269q0 153 97.5 243.5t268.5 115.5q155 -2 262 -102t107 -269q0 -153 -98 -243.5t-269 -115.5zM405 14q129 0 220 90t91 240q0 84 -30.5 152t-77.5 108t-99.5 61t-101.5 21q-128 0 -219 -90t-91 -240q0 -84 30 -152t77.5 -108t99.5 -61
t101 -21zM390 163v109h-157l-16 23l188 253h83v-20l-235 -228l15 6h122v70l66 46h8v-117h77v-33h-77v-109h-74z" />
    <glyph glyph-name="uni2464" unicode="&#x2464;" horiz-adv-x="812" 
d="M407 -15q-155 2 -261.5 102t-106.5 269q0 153 97.5 243.5t268.5 115.5q155 -2 262 -102t107 -269q0 -153 -98 -243.5t-269 -115.5zM405 14q129 0 220 90t91 240q0 84 -30.5 152t-77.5 108t-99.5 61t-101.5 21q-128 0 -219 -90t-91 -240q0 -84 30 -152t77.5 -108t99.5 -61
t101 -21zM286 157v67h125q43 33 43 77q0 27 -17 45t-50 18q-29 0 -64 -16l-21 -9l-11 8l25 196h219v-13l-15 -51h-190l-15 -117l108 53q55 0 85 -25.5t30 -63.5q0 -45 -30 -71.5t-91 -56.5l-81 -41h-50z" />
    <glyph glyph-name="uni2465" unicode="&#x2465;" horiz-adv-x="812" 
d="M405 715q155 -2 262 -102t107 -269q0 -153 -98 -243.5t-269 -115.5q-155 2 -261.5 102t-106.5 269q0 153 97.5 243.5t268.5 115.5zM405 14q129 0 220 90t91 240q0 84 -30.5 152t-77.5 108t-99.5 61t-101.5 21q-128 0 -219 -90t-91 -240q0 -84 30 -152t77.5 -108t99.5 -61
t101 -21zM433 412q54 0 82 -32.5t28 -76.5q0 -60 -39.5 -95t-115.5 -52q-64 0 -100 43t-36 111q0 83 57 149t179 102l6 -18q-86 -34 -119 -77.5t-35 -118.5zM403 179q56 0 56 100q0 38 -13 59.5t-34 21.5q-18 0 -55 -24l-17 -11q0 -146 63 -146z" />
    <glyph glyph-name="uni2466" unicode="&#x2466;" horiz-adv-x="812" 
d="M407 -15q-155 2 -261.5 102t-106.5 269q0 153 97.5 243.5t268.5 115.5q155 -2 262 -102t107 -269q0 -153 -98 -243.5t-269 -115.5zM405 14q129 0 220 90t91 240q0 84 -30.5 152t-77.5 108t-99.5 61t-101.5 21q-128 0 -219 -90t-91 -240q0 -84 30 -152t77.5 -108t99.5 -61
t101 -21zM324 150v21l191 301l-6 -4h-222v67h266l11 -13l-177 -372h-63z" />
    <glyph glyph-name="uni2467" unicode="&#x2467;" horiz-adv-x="812" 
d="M405 715q155 -2 262 -102t107 -269q0 -153 -98 -243.5t-269 -115.5q-155 2 -261.5 102t-106.5 269q0 153 97.5 243.5t268.5 115.5zM405 14q129 0 220 90t91 240q0 84 -30.5 152t-77.5 108t-99.5 61t-101.5 21q-128 0 -219 -90t-91 -240q0 -84 30 -152t77.5 -108t99.5 -61
t101 -21zM468 361q81 -48 81 -101q0 -43 -36.5 -68.5t-113.5 -42.5q-59 2 -98 28.5t-39 71.5q0 59 93 93l-13 9q-72 45 -72 97q0 74 138 103q61 -1 96 -24.5t35 -61.5q0 -58 -93 -89zM401 527q-22 0 -36 -12t-14 -34q0 -42 70 -87l6 -4q33 27 33 72q0 29 -16 47t-43 18z
M408 172q24 0 40.5 14t16.5 43q0 18 -11 34.5t-23 25.5t-35 24l-23 16q-32 -30 -32 -74q0 -39 20 -61t47 -22z" />
    <glyph glyph-name="uni2468" unicode="&#x2468;" horiz-adv-x="812" 
d="M405 715q155 -2 262 -102t107 -269q0 -153 -98 -243.5t-269 -115.5q-155 2 -261.5 102t-106.5 269q0 153 97.5 243.5t268.5 115.5zM405 14q129 0 220 90t91 240q0 84 -30.5 152t-77.5 108t-99.5 61t-101.5 21q-128 0 -219 -90t-91 -240q0 -84 30 -152t77.5 -108t99.5 -61
t101 -21zM423 546q64 0 100 -42.5t36 -111.5q0 -82 -57.5 -147.5t-177.5 -102.5l-6 18q82 33 116 77t37 117l-92 -64q-54 0 -82.5 33t-28.5 77q0 60 39.5 94t115.5 52zM401 342q17 0 51 22l19 12q-2 146 -62 146q-57 0 -57 -95q0 -41 13.5 -63t35.5 -22z" />
    <glyph glyph-name="lozenge" unicode="&#x25ca;" 
d="M283 -18l-236 348l246 367l44 18l236 -347l-243 -366zM326 57l173 260l-201 307l-4 18l-171 -262l200 -306z" />
    <glyph glyph-name="circle" unicode="&#x25cb;" horiz-adv-x="812" 
d="M407 -15q-155 2 -261.5 102t-106.5 269q0 153 97.5 243.5t268.5 115.5q155 -2 262 -102t107 -269q0 -153 -98 -243.5t-269 -115.5zM405 14q129 0 220 90t91 240q0 84 -30.5 152t-77.5 108t-99.5 61t-101.5 21q-128 0 -219 -90t-91 -240q0 -84 30 -152t77.5 -108t99.5 -61
t101 -21z" />
    <glyph glyph-name="uniF8FF" unicode="&#xf8ff;" horiz-adv-x="685" 
d="M492 -29l-30 1l-24 18h-14l-8 8l7 76l-4 47l-61 1l-3 -52l-2 -56v-20l-15 -6l-8 6l-30 -10h-32l-1 11l11 11l50 21l-6 96l-98 -6l-147 140l-4 115l-13 10l-10 36v26l15 8l-3 78l92 -62l9 47l10 36l22 35l28 35l39 29l78 29h22l-68 22l4 17h7l79 -20l-4 51l16 12h32l19 -5
l29 -25l32 -8l32 -10l15 -13v-20l-20 -31l30 -28l28 -32l18 -34l15 -41l9 -54l-3 -41l-8 -35l-12 -31l-3 -156l-21 -7l-50 70l-27 -7l-19 -140l-32 4l-7 -4l-4 -94l30 -19l16 -14zM238 540h5l36 24h32l18 -12l8 3l4 14l7 5l10 -4v-18h8l10 22l11 8l-5 6l-3 8l1 21l-30 -10
l-10 -8l-8 5l4 21l14 10l11 11l38 -2l12 13l-4 8h-49l-45 -13l-53 -26l-29 -23l-25 -34l29 12l13 -15l-17 -20l-10 -3zM418 608l3 17l-7 17l-8 -9v-19zM466 564h13l6 6l-9 18l17 28l-15 9v5l-25 7v-20l-13 -5v-9l-9 -6l-3 -12l5 -6l19 11l8 -2zM545 406l18 12h23l6 11l-18 6
l-5 9l9 42h7l14 -20l17 -1l-8 37l-19 50l-20 36l-23 28l-34 21h-11l17 -19l25 -10l11 -11l3 -33l-25 13l-15 -29l12 -8v-19l15 3l-12 26l15 -5l10 -20l-5 -12l-8 -7h-23l-3 11l-12 2l1 -22h-14l14 -18l-7 -10l-21 5l-3 -27l41 6l8 17l22 -2l6 -28l-16 -13v-15zM491 514l2 7
l-2 9l-8 -4v-9zM214 498l59 12l-4 12zM396 491l3 4l-48 25l-4 -12zM102 254v180l57 -32l7 10l-68 38v18l59 -34l43 -28l28 -14l3 10l-103 64l-13 7l-41 33l2 -78l19 -17v-5h-21l19 -14l1 -11l-20 7l18 -18l-4 -7l3 -97zM257 432l11 5l16 12l6 12l2 13l-22 -4l6 -10l-12 -13
l-14 -1l-6 8l1 4l14 2l-13 6l2 7l-20 -1l3 -19l14 -15zM359 430l18 10l6 9l5 20l-30 2l7 -5l1 -11l-7 -11h-12l-5 7l11 8l-15 2v6l-23 4l3 -17l8 -14l20 -9zM231 130l18 4l2 40l41 -3l3 9l-44 6v16l48 -6l1 9l-47 7l1 22l43 -3l3 6l-45 9l3 94h74l11 10h-79l2 9h74l8 7h-82
l2 22l117 4l140 -4v11l-4 7h-205l-66 -3l-7 -9l-6 -44l-48 20l-11 -4l57 -27l1 -45l-5 -73v-91zM559 386h5l5 7v7l-10 -4v-10zM380 336h53l4 30l-54 5zM203 231l-1 60l4 40l-66 39v-7l-2 -13l1 -27v-48zM540 300l8 2l20 15l13 13l11 18l-7 5h-14l-10 3l-14 7l-17 -3l-6 -48z
M467 346l44 4l4 9h-48v-13zM479 142l12 79l4 36l-15 3l-1 8l20 1l5 3l-28 16l2 5l30 -6l-30 15l5 5l21 -5l4 10l3 19l-54 1l-1 -24v-6l-2 -31l19 -3l-8 -61l-48 3l-8 -6l51 -5l-2 -9h-49l-4 -5l53 -7l-6 -35zM321 302h73v10h-73v-10zM589 234v78l-6 -3l-33 -27zM394 271v10
l-72 7l-6 -13zM316 250h68v6l-68 4v-10zM202 189l4 14l-74 50l20 -23zM380 161v53l-64 4v-51z" />
    <glyph glyph-name="uni00A40301" horiz-adv-x="340" 
d="M150 767l57 134h103l-124 -134h-36zM1 -175v91h110l5 21q12 35 12 155v576l-105 10l2 23l156 -2l132 2l3 -23l-82 -10v-562q0 -62 -15 -101t-46 -74l-94 -106h-78z" />
    <glyph glyph-name="uni006A0301" horiz-adv-x="265" 
d="M137 548l53 162h102l-128 -162h-27zM-20 -236v88h102l6 18q13 39 13 109v447l-67 -10l-3 22l135 35l30 2v-477q0 -43 -12 -71t-40 -59l-90 -104h-74z" />
    <glyph glyph-name="zero.zero" horiz-adv-x="575" 
d="M301 483q102 0 168 -67.5t66 -172.5q0 -207 -261 -258q-102 0 -168 67.5t-66 172.5t66 167.5t195 90.5zM275 444q-62 0 -95 -55t-33 -137t24 -141l215 274q-40 59 -111 59zM298 23q62 0 95.5 55t33.5 138q0 86 -27 144l-214 -275q38 -62 112 -62z" />
    <glyph glyph-name="zero.tf" 
d="M297 -15q-102 0 -168 67.5t-66 172.5t66 167.5t195 90.5q102 0 168 -67.5t66 -172.5q0 -207 -261 -258zM321 23q62 0 95.5 55t33.5 138q0 102 -38 165t-114 63q-62 0 -95 -55t-33 -137q0 -103 37.5 -166t113.5 -63z" />
    <glyph glyph-name="one.tf" 
d="M120 -1l-2 23l148 12v363l2 9l-21 -10l-122 -37l-11 24l223 94h26v-443l145 -12l-2 -23l-190 2z" />
    <glyph glyph-name="two.tf" 
d="M102 0l-13 26l141 108q85 65 120 115t35 98q0 47 -23 72t-65 25q-27 0 -63 -17l-32 -118h-78v100l193 78q85 0 129.5 -36t44.5 -93q0 -65 -49.5 -118t-151.5 -111l-100 -55l55 13h286v-20l-27 -67h-402z" />
    <glyph glyph-name="three.tf" 
d="M109 -230v89h222q77 53 77 134q0 61 -51.5 98.5t-135.5 37.5l-6 20l48 24q64 29 92 66.5t28 92.5q0 48 -25.5 78.5t-64.5 30.5q-35 0 -67 -17l-36 -118h-77v105l211 76q72 0 115.5 -35.5t43.5 -93.5q0 -114 -158 -177q81 -5 134 -48t53 -104q0 -67 -42.5 -113.5
t-147.5 -94.5l-110 -51h-103z" />
    <glyph glyph-name="four.tf" 
d="M341 -230v228h-273l-21 26l314 446h109v-23l-370 -416l20 7h221v142l81 56h14v-198h136v-40h-136v-228h-95z" />
    <glyph glyph-name="five.tf" 
d="M107 -229v89h197q100 61 100 167q0 59 -33 94t-90 35q-53 0 -109 -28l-37 -18l-17 10l40 352h344v-16l-18 -70h-302l-27 -236l156 83q90 0 143.5 -47t53.5 -120q0 -80 -47.5 -134.5t-159.5 -106.5l-110 -54h-84z" />
    <glyph glyph-name="six.tf" 
d="M353 448q86 0 135 -59t49 -147q0 -200 -241 -257q-99 0 -156 79.5t-57 201.5q0 154 91 274t275 181l10 -26q-148 -61 -206.5 -146.5t-61.5 -223.5zM318 23q55 0 86 48t31 137q0 79 -27.5 124t-73.5 45q-23 0 -45 -13t-64 -45l-34 -26q1 -129 35 -199.5t92 -70.5z" />
    <glyph glyph-name="seven.tf" 
d="M162 -228v21l293 579l10 11h-378v89h432l13 -15l-286 -685h-84z" />
    <glyph glyph-name="eight.tf" 
d="M404 357q62 -42 95.5 -82.5t33.5 -92.5q0 -77 -58 -124t-177 -73q-91 1 -152 50t-61 130q0 117 157 186l-25 20q-114 76 -114 167q0 126 213 177q96 -1 149.5 -40t53.5 -107q0 -107 -152 -182zM204 581q0 -45 34.5 -85t100.5 -87l7 -6q72 59 72 147q0 57 -30 93t-85 36
q-44 0 -71.5 -26t-27.5 -72zM314 21q48 0 83 30t35 89q0 13 -2 25t-8.5 23.5t-10.5 20t-15.5 20t-16.5 17.5t-20.5 18t-20.5 15.5t-23 16.5t-21 15l-32 25q-77 -59 -77 -151q0 -71 38.5 -117.5t90.5 -46.5z" />
    <glyph glyph-name="nine.tf" 
d="M322 487q97 0 155 -77.5t58 -204.5q0 -155 -93.5 -271t-270.5 -177l-9 26q136 60 197 143.5t67 220.5l-158 -123q-83 0 -135 58t-52 151q0 194 241 254zM389 150l38 30q0 121 -32 195t-97 74q-53 0 -84 -48.5t-31 -132.5q0 -79 28.5 -124.5t78.5 -45.5q21 0 40 10.5
t59 41.5z" />
    <glyph glyph-name="zero.tf.zero" 
d="M323 483q102 0 168 -67.5t66 -172.5q0 -207 -261 -258q-102 0 -168 67.5t-66 172.5t66 167.5t195 90.5zM297 444q-62 0 -95 -55t-33 -137t24 -141l215 274q-40 59 -111 59zM320 23q62 0 95.5 55t33.5 138q0 86 -27 144l-214 -275q38 -62 112 -62z" />
    <glyph glyph-name="dollar.tf" 
d="M541 203q0 -146 -200 -208v-75h-31v67q-5 -2 -15 -4q-115 0 -204 63l-11 151h40l40 -99q62 -71 150 -72v285l-91 47q-60 31 -91.5 67t-31.5 95q0 72 56 121.5t158 71.5v68h31v-64q99 -5 173 -50v-148h-30l-41 108q-46 46 -102 52v-262l64 -33q67 -34 101.5 -76t34.5 -105
zM287 445l23 -12v247q-56 -2 -88.5 -33t-32.5 -80q0 -41 24.5 -69.5t73.5 -52.5zM341 28q50 8 79 41.5t29 83.5q0 87 -108 141v-266z" />
    <glyph glyph-name="cent.tf" 
d="M498 80q-66 -56 -145 -88v-72h-33v66q-92 5 -149 67t-57 166q0 103 59 167.5t152 90.5v69h32v-63q32 -1 70.5 -16.5t61.5 -34.5v-96h-75l-32 99q-21 11 -47 11q-54 0 -90.5 -48.5t-36.5 -135.5q0 -88 44.5 -145.5t118.5 -57.5q57 0 117 44z" />
    <glyph glyph-name="sterling.tf" 
d="M520 159h30l-13 -159l-337 1l-128 -1l-3 22l90 28v289h-85v9l17 23h68v117q0 97 48.5 146.5t171.5 80.5q97 0 138 -47v-121h-37l-31 95q-36 39 -84 39q-53 0 -82 -38.5t-29 -98.5v-173h177v-32h-177v-174q0 -100 -36 -134l247 2z" />
    <glyph glyph-name="florin.tf" 
d="M128 -235v79h90l9 18q15 31 15 116v454h-76v9l15 22h61v11q0 83 50 137l93 99h106v-75h-126l-13 -21q-15 -31 -15 -115v-38h115v-29h-115v-428q0 -84 -51 -141l-92 -98h-66z" />
    <glyph glyph-name="yen.tf" 
d="M554 670l-183 -390v-9h129v-28h-129v-68h129v-28h-130v-115l111 -10l-2 -23l-160 2l-166 -2l-2 23l114 10v115h-126v28h125v68h-125v28h125v1l-198 397l-74 9l3 23l137 -2l137 2l3 -23l-85 -10l159 -339l4 -21l158 360l-92 10l3 23l111 -2l95 2l3 -23z" />
    <glyph glyph-name="Euro.tf" 
d="M387 682q-78 0 -131 -69.5t-64 -184.5h304l-20 -34h-286q-1 -8 -1 -25q0 -33 3 -63h241l-20 -34h-216q18 -105 76 -163t145 -58q82 0 166 56l14 -26q-89 -69 -205 -96q-131 0 -214 76t-100 211h-61v34h58q-1 11 -1 33q0 28 3 55h-60v34h64q42 241 315 288q120 0 204 -64
v-156h-31l-47 126q-49 60 -136 60z" />
    <glyph glyph-name="percent.tf" 
d="M145 357q-54 0 -87.5 47t-33.5 121q0 144 144 180q54 0 88 -46.5t34 -121.5q0 -147 -145 -180zM98 -5l391 710h42l-390 -710h-43zM161 381q25 0 40 37.5t15 100.5q0 69 -17.5 113.5t-47.5 48.5q-25 0 -40 -38.5t-15 -98.5q0 -72 17 -115.5t48 -47.5zM451 -5
q-53 0 -87 46.5t-34 121.5q0 144 144 180q54 0 88 -46.5t34 -122.5q0 -146 -145 -179zM467 19q25 0 40.5 38t15.5 99q0 70 -17.5 114.5t-48.5 48.5q-25 0 -40 -38t-15 -100q0 -71 17 -114.5t48 -47.5z" />
    <glyph glyph-name="perthousand.tf" horiz-adv-x="610" 
d="M128 397q-46 0 -76 42t-30 107q0 128 127 160q48 0 78 -42t30 -108q0 -129 -129 -159zM134 684q-22 0 -35.5 -34t-13.5 -87q0 -64 15.5 -102t42.5 -43q22 0 35.5 34t13.5 88q0 62 -15.5 101t-42.5 43zM462 521h53l-426 -288h-53zM480 303q48 0 78 -41.5t30 -108.5
q0 -128 -128 -158q-50 0 -80 51q-30 -36 -90 -51q-47 0 -76.5 41.5t-29.5 107.5q-1 128 127 159q51 0 80 -51q30 36 89 51zM305 16q22 0 36 34t14 88q-1 62 -16.5 101t-42.5 43q-22 0 -35.5 -33.5t-13.5 -88.5q0 -62 15.5 -101t42.5 -43zM475 16q22 0 35.5 34t13.5 88
q0 61 -16 100t-42 44q-22 0 -35.5 -34t-13.5 -88q0 -63 15 -101.5t43 -42.5z" />
    <glyph glyph-name="Aogonek.ss01" horiz-adv-x="720" 
d="M540 1l-51 -76v-18q0 -67 93 -67v-18q-91 0 -126.5 22.5t-35.5 70.5v20l107 81l-78 228h-248l-74 -212l86 -10l-2 -23l-108 2l-93 -2l-3 23l75 9l242 654l67 26l248 -680l74 -9l-2 -23zM212 274h226l-106 309l-3 27z" />
    <glyph glyph-name="Ccedilla.ss01" horiz-adv-x="690" 
d="M394 -17h-7l-16 -19q30 -3 51.5 -16.5t21.5 -37.5q0 -42 -83 -67l-63 -19h-42l27 35h80q27 14 27 36q0 35 -75 37l48 52q-137 10 -230.5 104t-93.5 250q0 167 99 263t271 116q123 0 234 -65v-151h-33l-47 116q-63 67 -162 67q-108 0 -176 -85t-68 -240q0 -140 69 -240
t193 -100q76 0 140 60l57 130h33l-13 -156q-117 -54 -242 -70z" />
    <glyph glyph-name="Eogonek.ss01" horiz-adv-x="616" 
d="M512 -1l-50 -74v-18q0 -67 93 -67v-18q-91 0 -126.5 22.5t-35.5 70.5v20l86 64l-314 2l-134 -2l-2 23l85 10v636l-85 10l2 23l134 -2l404 2l4 -182h-22l-62 149l-269 2v-289l149 2l42 112h23l-5 -126l5 -130h-23l-42 111l-149 2v-322l278 2l66 154h25l-18 -187h-59z" />
    <glyph glyph-name="Gcommaaccent.ss01" horiz-adv-x="733" 
d="M386 -17q-147 0 -247 95t-100 261t97.5 262t271.5 116q69 0 131.5 -19.5t102.5 -45.5v-151h-30l-48 114q-61 69 -164 69q-112 0 -177.5 -89.5t-65.5 -239.5q0 -89 28.5 -165t86.5 -124t135 -48q84 0 134 56v213l-84 11l2 23l136 -1l112 1l2 -23l-62 -11v-234
q-129 -58 -261 -70zM373 -181l-20 8l39 59l-42 25v39h95v-66z" />
    <glyph glyph-name="Iogonek.ss01" horiz-adv-x="333" 
d="M220 668v-636l85 -9l-3 -24l-118 2l-51 -76v-18q0 -67 93 -67v-18q-91 0 -126.5 22.5t-35.5 70.5v20l87 66l-120 -2l-2 24l85 9v636l-85 10l2 23l136 -2l135 2l3 -23z" />
    <glyph glyph-name="Kcommaaccent.ss01" horiz-adv-x="701" 
d="M31 -1l-2 23l85 10v636l-85 10l2 23l138 -2l125 2l3 -23l-77 -10v-299l14 9l307 290l-81 10l2 23l103 -2l98 2l2 -23l-81 -11l-307 -294l52 3l305 -346l57 -8l-2 -23l-97 2l-75 -2l-290 339l-7 15v-321l77 -10l-3 -23l-125 2zM330 -181l-20 8l39 59l-42 25v39h95v-66z
" />
    <glyph glyph-name="Lcommaaccent.ss01" horiz-adv-x="575" 
d="M31 -1l-2 23l85 10v636l-85 10l2 23l136 -2l135 2l3 -23l-85 -10v-637l252 2l69 156h24l-17 -190l-381 2zM287 -181l-20 8l39 59l-42 25v39h95v-66z" />
    <glyph glyph-name="Ncommaaccent.ss01" horiz-adv-x="716" 
d="M565 -4l-402 607l-9 36v-607l84 -10l-2 -23l-100 2l-105 -2l-2 23l85 10v633l-83 13l2 23l110 -2l75 2l352 -524l11 -30v521l-84 10l2 23l99 -2l105 2l3 -23l-85 -10v-672h-56zM337 -181l-20 8l39 59l-42 25v39h95v-66z" />
    <glyph glyph-name="Eng.ss01" horiz-adv-x="716" 
d="M404 -175v56l79 2l65 84l57 29h-39l-403 607l-9 35v-606l84 -10l-2 -23l-100 2l-105 -2l-2 23l85 10v633l-83 13l2 23l89 -2l95 2l353 -524l11 -30v521l-84 10l3 23l99 -2l104 2l3 -23l-85 -10v-672l-91 -171h-126z" />
    <glyph glyph-name="Rcommaaccent.ss01" horiz-adv-x="667" 
d="M611 32l51 -11l-2 -22l-89 2l-68 -2l-206 322l-5 6h-72v-295l79 -10l-2 -23l-130 2l-136 -2l-2 23l85 10v636l-85 10l2 23l137 -2l186 2q95 0 156.5 -43t61.5 -131q0 -82 -64.5 -129t-167.5 -65l95 -35zM220 356h63q81 0 127 45t46 119t-39.5 113.5t-103.5 40.5l-93 -6
v-312zM326 -89v39h95v-66l-72 -65l-20 8l39 59z" />
    <glyph glyph-name="Scedilla.ss01" horiz-adv-x="545" 
d="M502 203q0 -156 -226 -215l-21 -24q30 -3 51.5 -16.5t21.5 -37.5q0 -42 -83 -67l-63 -19h-42l27 35h80q27 14 27 36q0 35 -75 37l47 51q-110 3 -194 63l-11 151h40l40 -99q63 -72 152 -72q63 0 100 35t37 92q0 87 -109 142l-121 63q-60 31 -91.5 67t-31.5 95
q0 75 60.5 125.5t170.5 71.5q104 0 187 -50v-148h-30l-41 108q-53 53 -125 53q-59 0 -94 -31t-35 -82q0 -41 24.5 -69.5t73.5 -52.5l118 -61q67 -34 101.5 -76t34.5 -105z" />
    <glyph glyph-name="Scommaaccent.ss01" horiz-adv-x="545" 
d="M256 -17q-115 0 -204 63l-11 151h40l40 -99q63 -72 152 -72q63 0 100 35t37 92q0 87 -109 142l-121 63q-60 31 -91.5 67t-31.5 95q0 75 60.5 125.5t170.5 71.5q104 0 187 -50v-148h-30l-41 108q-53 53 -125 53q-59 0 -94 -31t-35 -82q0 -41 24.5 -69.5t73.5 -52.5
l118 -61q67 -34 101.5 -76t34.5 -105q0 -163 -246 -220zM251 -181l-20 8l39 59l-42 25v39h95v-66z" />
    <glyph glyph-name="uni0162.ss01" horiz-adv-x="589" 
d="M295 699l282 2v-189h-25l-58 157h-146v-637l102 -10l-3 -23l-143 2l-32 -37q30 -3 51.5 -16.5t21.5 -37.5q0 -42 -83 -67l-63 -19h-42l27 35h80q27 14 27 36q0 35 -75 37l63 69l-139 -2l-2 23l104 10v637h-146l-59 -157h-24v189z" />
    <glyph glyph-name="uni021A.ss01" horiz-adv-x="589" 
d="M140 -1l-2 23l104 10v637h-146l-59 -157h-24v189l282 -2l282 2v-189h-25l-58 157h-146v-637l102 -10l-3 -23l-152 2zM268 -181l-20 8l39 59l-42 25v39h95v-66z" />
    <glyph glyph-name="Uogonek.ss01" horiz-adv-x="694" 
d="M679 701l3 -23l-83 -10v-426q0 -82 -31 -138.5t-108 -90.5l-59 -88v-18q0 -67 93 -67v-18q-91 0 -126.5 22.5t-35.5 70.5v20l81 61q-18 -6 -53 -13q-263 0 -263 264v421l-84 10l2 23l134 -2l136 2l3 -23l-83 -10v-433q0 -94 45.5 -149.5t131.5 -55.5q77 0 122 56.5
t45 149.5v432l-86 10l3 23l109 -2z" />
    <glyph glyph-name="Aacute.ss02" horiz-adv-x="720" 
d="M335 746l52 104h100l-115 -104h-37zM10 -1l-3 23l75 9l242 654l67 26l248 -680l74 -9l-2 -23l-139 2l-132 -2l-2 23l84 10l-73 212h-248l-74 -212l86 -10l-2 -23l-108 2zM212 274h226l-106 309l-3 27z" />
    <glyph glyph-name="Abreve.ss02" horiz-adv-x="720" 
d="M373 738q-95 0 -146 106l18 12q45 -66 115 -66q65 0 115 66l16 -12q-11 -21 -20.5 -34.5t-35.5 -35t-62 -36.5zM10 -1l-3 23l75 9l242 654l67 26l248 -680l74 -9l-2 -23l-139 2l-132 -2l-2 23l84 10l-73 212h-248l-74 -212l86 -10l-2 -23l-108 2zM212 274h226l-106 309
l-3 27z" />
    <glyph glyph-name="Acircumflex.ss02" horiz-adv-x="720" 
d="M217 744l116 111h52l117 -111h-38l-98 59l-7 6l-6 -6l-98 -59h-38zM10 -1l-3 23l75 9l242 654l67 26l248 -680l74 -9l-2 -23l-139 2l-132 -2l-2 23l84 10l-73 212h-248l-74 -212l86 -10l-2 -23l-108 2zM212 274h226l-106 309l-3 27z" />
    <glyph glyph-name="Adieresis.ss02" horiz-adv-x="720" 
d="M234 760l-24 4l-4 47l8 37l57 5l23 -5l6 -44l-10 -40zM446 760l-23 4l-5 47l9 37l56 5l24 -5l5 -44l-9 -40zM10 -1l-3 23l75 9l242 654l67 26l248 -680l74 -9l-2 -23l-139 2l-132 -2l-2 23l84 10l-73 212h-248l-74 -212l86 -10l-2 -23l-108 2zM212 274h226l-106 309
l-3 27z" />
    <glyph glyph-name="Agrave.ss02" horiz-adv-x="720" 
d="M339 746l-114 104h100l52 -104h-38zM10 -1l-3 23l75 9l242 654l67 26l248 -680l74 -9l-2 -23l-139 2l-132 -2l-2 23l84 10l-73 212h-248l-74 -212l86 -10l-2 -23l-108 2zM212 274h226l-106 309l-3 27z" />
    <glyph glyph-name="Amacron.ss02" horiz-adv-x="720" 
d="M217 783v43h283v-43h-283zM10 -1l-3 23l75 9l242 654l67 26l248 -680l74 -9l-2 -23l-139 2l-132 -2l-2 23l84 10l-73 212h-248l-74 -212l86 -10l-2 -23l-108 2zM212 274h226l-106 309l-3 27z" />
    <glyph glyph-name="Aring.ss02" horiz-adv-x="720" 
d="M359 717q-32 0 -55.5 16.5t-23.5 50.5q0 21 13 35.5t26.5 20t39.5 13.5q32 0 55.5 -17t23.5 -50q0 -16 -5.5 -28t-19 -19.5t-24 -11.5t-30.5 -10zM359 740q20 0 33 12.5t13 32.5t-13 32.5t-33 12.5t-33.5 -13t-13.5 -32t13.5 -32t33.5 -13zM10 -1l-3 23l75 9l242 654
l67 26l248 -680l74 -9l-2 -23l-139 2l-132 -2l-2 23l84 10l-73 212h-248l-74 -212l86 -10l-2 -23l-108 2zM212 274h226l-106 309l-3 27z" />
    <glyph glyph-name="Atilde.ss02" horiz-adv-x="720" 
d="M198 749l30 86l68 19l172 -56l35 58h17l-30 -86l-68 -19l-173 56l-34 -58h-17zM10 -1l-3 23l75 9l242 654l67 26l248 -680l74 -9l-2 -23l-139 2l-132 -2l-2 23l84 10l-73 212h-248l-74 -212l86 -10l-2 -23l-108 2zM212 274h226l-106 309l-3 27z" />
    <glyph glyph-name="AEacute.ss02" horiz-adv-x="985" 
d="M646 746l52 104h100l-115 -104h-37zM8 0l-3 22l75 9l421 670l61 -2l377 2l5 -181h-22l-61 148l-247 2v-319l126 2l42 112h23l-5 -125l5 -130h-23l-42 111l-126 2v-293l255 2l66 153h24l-17 -186l-381 2l-135 -2l-2 23l85 10v290h-204l-178 -290l81 -10l-2 -22l-104 1z
M321 350h188v313z" />
    <glyph glyph-name="Cacute.ss02" horiz-adv-x="690" 
d="M371 746l51 104h100l-114 -104h-37zM394 -17q-147 0 -251 95t-104 260q0 167 99 263t271 116q123 0 234 -65v-151h-33l-47 116q-63 67 -162 67q-108 0 -176 -85t-68 -240q0 -140 69 -240t193 -100q76 0 140 60l57 130h33l-13 -156q-117 -54 -242 -70z" />
    <glyph glyph-name="Ccaron.ss02" horiz-adv-x="690" 
d="M370 747l-116 112h37l99 -60l6 -6l7 6l98 60h37l-115 -112h-53zM394 -17q-147 0 -251 95t-104 260q0 167 99 263t271 116q123 0 234 -65v-151h-33l-47 116q-63 67 -162 67q-108 0 -176 -85t-68 -240q0 -140 69 -240t193 -100q76 0 140 60l57 130h33l-13 -156
q-117 -54 -242 -70z" />
    <glyph glyph-name="Ccircumflex.ss02" horiz-adv-x="690" 
d="M254 744l116 111h52l117 -111h-38l-98 59l-7 6l-6 -6l-98 -59h-38zM394 -17q-147 0 -251 95t-104 260q0 167 99 263t271 116q123 0 234 -65v-151h-33l-47 116q-63 67 -162 67q-108 0 -176 -85t-68 -240q0 -140 69 -240t193 -100q76 0 140 60l57 130h33l-13 -156
q-117 -54 -242 -70z" />
    <glyph glyph-name="Cdotaccent.ss02" horiz-adv-x="690" 
d="M375 755l-24 5l-5 49l9 41l61 4l25 -4l4 -48l-9 -42zM394 -17q-147 0 -251 95t-104 260q0 167 99 263t271 116q123 0 234 -65v-151h-33l-47 116q-63 67 -162 67q-108 0 -176 -85t-68 -240q0 -140 69 -240t193 -100q76 0 140 60l57 130h33l-13 -156q-117 -54 -242 -70z
" />
    <glyph glyph-name="Dcaron.ss02" horiz-adv-x="731" 
d="M301 747l-116 112h37l99 -60l6 -6l7 6l98 60h37l-115 -112h-53zM31 -1l-2 23l89 10v636l-89 10l2 23l138 -2l189 2q156 0 245.5 -88t89.5 -247q0 -161 -86.5 -258t-253.5 -109l-185 2zM346 27q103 0 166.5 91t63.5 240q0 143 -63 229.5t-187 86.5l-102 -6v-633z" />
    <glyph glyph-name="Eacute.ss02" horiz-adv-x="616" 
d="M308 746l52 104h100l-115 -104h-37zM31 -1l-2 23l85 10v636l-85 10l2 23l134 -2l404 2l4 -182h-22l-62 149l-269 2v-289l149 2l42 112h23l-5 -126l5 -130h-23l-42 111l-149 2v-322l278 2l66 154h25l-18 -187l-406 2z" />
    <glyph glyph-name="Ebreve.ss02" horiz-adv-x="616" 
d="M346 738q-95 0 -146 106l18 12q45 -66 115 -66q65 0 115 66l16 -12q-11 -21 -20.5 -34.5t-35.5 -35t-62 -36.5zM31 -1l-2 23l85 10v636l-85 10l2 23l134 -2l404 2l4 -182h-22l-62 149l-269 2v-289l149 2l42 112h23l-5 -126l5 -130h-23l-42 111l-149 2v-322l278 2l66 154
h25l-18 -187l-406 2z" />
    <glyph glyph-name="Ecaron.ss02" horiz-adv-x="616" 
d="M306 747l-116 112h37l99 -60l6 -6l7 6l98 60h37l-115 -112h-53zM31 -1l-2 23l85 10v636l-85 10l2 23l134 -2l404 2l4 -182h-22l-62 149l-269 2v-289l149 2l42 112h23l-5 -126l5 -130h-23l-42 111l-149 2v-322l278 2l66 154h25l-18 -187l-406 2z" />
    <glyph glyph-name="Ecircumflex.ss02" horiz-adv-x="616" 
d="M190 744l116 111h52l117 -111h-38l-98 59l-7 6l-6 -6l-98 -59h-38zM31 -1l-2 23l85 10v636l-85 10l2 23l134 -2l404 2l4 -182h-22l-62 149l-269 2v-289l149 2l42 112h23l-5 -126l5 -130h-23l-42 111l-149 2v-322l278 2l66 154h25l-18 -187l-406 2z" />
    <glyph glyph-name="Edieresis.ss02" horiz-adv-x="616" 
d="M207 760l-24 4l-4 47l8 37l57 5l23 -5l6 -44l-10 -40zM419 760l-23 4l-5 47l9 37l56 5l24 -5l5 -44l-9 -40zM31 -1l-2 23l85 10v636l-85 10l2 23l134 -2l404 2l4 -182h-22l-62 149l-269 2v-289l149 2l42 112h23l-5 -126l5 -130h-23l-42 111l-149 2v-322l278 2l66 154h25
l-18 -187l-406 2z" />
    <glyph glyph-name="Edotaccent.ss02" horiz-adv-x="616" 
d="M311 755l-24 5l-5 49l9 41l61 4l25 -4l4 -48l-9 -42zM31 -1l-2 23l85 10v636l-85 10l2 23l134 -2l404 2l4 -182h-22l-62 149l-269 2v-289l149 2l42 112h23l-5 -126l5 -130h-23l-42 111l-149 2v-322l278 2l66 154h25l-18 -187l-406 2z" />
    <glyph glyph-name="Egrave.ss02" horiz-adv-x="616" 
d="M312 746l-114 104h100l52 -104h-38zM31 -1l-2 23l85 10v636l-85 10l2 23l134 -2l404 2l4 -182h-22l-62 149l-269 2v-289l149 2l42 112h23l-5 -126l5 -130h-23l-42 111l-149 2v-322l278 2l66 154h25l-18 -187l-406 2z" />
    <glyph glyph-name="Emacron.ss02" horiz-adv-x="616" 
d="M190 783v43h283v-43h-283zM31 -1l-2 23l85 10v636l-85 10l2 23l134 -2l404 2l4 -182h-22l-62 149l-269 2v-289l149 2l42 112h23l-5 -126l5 -130h-23l-42 111l-149 2v-322l278 2l66 154h25l-18 -187l-406 2z" />
    <glyph glyph-name="Gbreve.ss02" horiz-adv-x="733" 
d="M421 738q-95 0 -146 106l18 12q45 -66 115 -66q65 0 115 66l16 -12q-11 -21 -20.5 -34.5t-35.5 -35t-62 -36.5zM386 -17q-147 0 -247 95t-100 261t97.5 262t271.5 116q69 0 131.5 -19.5t102.5 -45.5v-151h-30l-48 114q-61 69 -164 69q-112 0 -177.5 -89.5t-65.5 -239.5
q0 -89 28.5 -165t86.5 -124t135 -48q84 0 134 56v213l-84 11l2 23l136 -1l112 1l2 -23l-62 -11v-234q-129 -58 -261 -70z" />
    <glyph glyph-name="Gcircumflex.ss02" horiz-adv-x="733" 
d="M265 744l116 111h52l117 -111h-38l-98 59l-7 6l-6 -6l-98 -59h-38zM386 -17q-147 0 -247 95t-100 261t97.5 262t271.5 116q69 0 131.5 -19.5t102.5 -45.5v-151h-30l-48 114q-61 69 -164 69q-112 0 -177.5 -89.5t-65.5 -239.5q0 -89 28.5 -165t86.5 -124t135 -48
q84 0 134 56v213l-84 11l2 23l136 -1l112 1l2 -23l-62 -11v-234q-129 -58 -261 -70z" />
    <glyph glyph-name="Gdotaccent.ss02" horiz-adv-x="733" 
d="M386 755l-24 5l-5 49l9 41l61 4l25 -4l4 -48l-9 -42zM386 -17q-147 0 -247 95t-100 261t97.5 262t271.5 116q69 0 131.5 -19.5t102.5 -45.5v-151h-30l-48 114q-61 69 -164 69q-112 0 -177.5 -89.5t-65.5 -239.5q0 -89 28.5 -165t86.5 -124t135 -48q84 0 134 56v213
l-84 11l2 23l136 -1l112 1l2 -23l-62 -11v-234q-129 -58 -261 -70z" />
    <glyph glyph-name="Hcircumflex.ss02" horiz-adv-x="754" 
d="M235 744l116 111h52l117 -111h-38l-98 59l-7 6l-6 -6l-98 -59h-38zM31 -1l-2 23l85 10v636l-85 10l2 23l136 -2l132 2l2 -23l-81 -10v-288h317v288l-84 10l2 23l135 -2l132 2l3 -23l-82 -10v-636l82 -10l-3 -23l-132 2l-135 -2l-2 23l84 10v315h-317v-315l81 -10l-2 -23
l-132 2z" />
    <glyph glyph-name="Iacute.ss02" horiz-adv-x="333" 
d="M143 746l52 104h100l-115 -104h-37zM31 -1l-2 24l85 9v636l-85 10l2 23l136 -2l135 2l3 -23l-85 -10v-636l85 -9l-3 -24l-135 2z" />
    <glyph glyph-name="Ibreve.ss02" horiz-adv-x="333" 
d="M181 738q-95 0 -146 106l18 12q45 -66 115 -66q65 0 115 66l16 -12q-11 -21 -20.5 -34.5t-35.5 -35t-62 -36.5zM31 -1l-2 24l85 9v636l-85 10l2 23l136 -2l135 2l3 -23l-85 -10v-636l85 -9l-3 -24l-135 2z" />
    <glyph glyph-name="Icircumflex.ss02" horiz-adv-x="333" 
d="M25 744l116 111h52l117 -111h-38l-98 59l-7 6l-6 -6l-98 -59h-38zM31 -1l-2 24l85 9v636l-85 10l2 23l136 -2l135 2l3 -23l-85 -10v-636l85 -9l-3 -24l-135 2z" />
    <glyph glyph-name="Idieresis.ss02" horiz-adv-x="333" 
d="M42 760l-24 4l-4 47l8 37l57 5l23 -5l6 -44l-10 -40zM254 760l-23 4l-5 47l9 37l56 5l24 -5l5 -44l-9 -40zM31 -1l-2 24l85 9v636l-85 10l2 23l136 -2l135 2l3 -23l-85 -10v-636l85 -9l-3 -24l-135 2z" />
    <glyph glyph-name="Idotaccent.ss02" horiz-adv-x="333" 
d="M146 755l-24 5l-5 49l9 41l61 4l25 -4l4 -48l-9 -42zM31 -1l-2 24l85 9v636l-85 10l2 23l136 -2l135 2l3 -23l-85 -10v-636l85 -9l-3 -24l-135 2z" />
    <glyph glyph-name="Igrave.ss02" horiz-adv-x="333" 
d="M147 746l-114 104h100l52 -104h-38zM31 -1l-2 24l85 9v636l-85 10l2 23l136 -2l135 2l3 -23l-85 -10v-636l85 -9l-3 -24l-135 2z" />
    <glyph glyph-name="Imacron.ss02" horiz-adv-x="333" 
d="M25 783v43h283v-43h-283zM31 -1l-2 24l85 9v636l-85 10l2 23l136 -2l135 2l3 -23l-85 -10v-636l85 -9l-3 -24l-135 2z" />
    <glyph glyph-name="Itilde.ss02" horiz-adv-x="333" 
d="M6 749l30 86l68 19l172 -56l35 58h17l-30 -86l-68 -19l-173 56l-34 -58h-17zM31 -1l-2 24l85 9v636l-85 10l2 23l136 -2l135 2l3 -23l-85 -10v-636l85 -9l-3 -24l-135 2z" />
    <glyph glyph-name="Jcircumflex.ss02" horiz-adv-x="340" 
d="M28 744l116 111h52l117 -111h-38l-98 59l-7 6l-6 -6l-98 -59h-38zM1 -175v91h110l5 21q12 35 12 155v576l-105 10l2 23l156 -2l132 2l3 -23l-82 -10v-562q0 -62 -15 -101t-46 -74l-94 -106h-78z" />
    <glyph glyph-name="Lacute.ss02" horiz-adv-x="575" 
d="M151 746l52 104h100l-115 -104h-37zM31 -1l-2 23l85 10v636l-85 10l2 23l136 -2l135 2l3 -23l-85 -10v-637l252 2l69 156h24l-17 -190l-381 2z" />
    <glyph glyph-name="Nacute.ss02" horiz-adv-x="716" 
d="M346 746l52 104h100l-115 -104h-37zM565 -4l-402 607l-9 36v-607l84 -10l-2 -23l-100 2l-105 -2l-2 23l85 10v633l-83 13l2 23l110 -2l75 2l352 -524l11 -30v521l-84 10l2 23l99 -2l105 2l3 -23l-85 -10v-672h-56z" />
    <glyph glyph-name="Ncaron.ss02" horiz-adv-x="716" 
d="M344 747l-116 112h37l99 -60l6 -6l7 6l98 60h37l-115 -112h-53zM565 -4l-402 607l-9 36v-607l84 -10l-2 -23l-100 2l-105 -2l-2 23l85 10v633l-83 13l2 23l110 -2l75 2l352 -524l11 -30v521l-84 10l2 23l99 -2l105 2l3 -23l-85 -10v-672h-56z" />
    <glyph glyph-name="Ntilde.ss02" horiz-adv-x="716" 
d="M209 749l30 86l68 19l172 -56l35 58h17l-30 -86l-68 -19l-173 56l-34 -58h-17zM565 -4l-402 607l-9 36v-607l84 -10l-2 -23l-100 2l-105 -2l-2 23l85 10v633l-83 13l2 23l110 -2l75 2l352 -524l11 -30v521l-84 10l2 23l99 -2l105 2l3 -23l-85 -10v-672h-56z" />
    <glyph glyph-name="Oacute.ss02" horiz-adv-x="771" 
d="M364 746l52 104h100l-115 -104h-37zM375 -17q-148 0 -242 100t-94 252q0 164 87.5 258.5t268.5 123.5q149 0 243 -100t94 -252q0 -164 -87.5 -258.5t-269.5 -123.5zM403 22q102 0 156.5 87t54.5 224q0 91 -27 168t-84.5 127t-134.5 50q-101 0 -156 -87t-55 -224
q0 -143 65.5 -244t180.5 -101z" />
    <glyph glyph-name="Obreve.ss02" horiz-adv-x="771" 
d="M402 738q-95 0 -146 106l18 12q45 -66 115 -66q65 0 115 66l16 -12q-11 -21 -20.5 -34.5t-35.5 -35t-62 -36.5zM375 -17q-148 0 -242 100t-94 252q0 164 87.5 258.5t268.5 123.5q149 0 243 -100t94 -252q0 -164 -87.5 -258.5t-269.5 -123.5zM403 22q102 0 156.5 87
t54.5 224q0 91 -27 168t-84.5 127t-134.5 50q-101 0 -156 -87t-55 -224q0 -143 65.5 -244t180.5 -101z" />
    <glyph glyph-name="Ocircumflex.ss02" horiz-adv-x="771" 
d="M246 744l116 111h52l117 -111h-38l-98 59l-7 6l-6 -6l-98 -59h-38zM375 -17q-148 0 -242 100t-94 252q0 164 87.5 258.5t268.5 123.5q149 0 243 -100t94 -252q0 -164 -87.5 -258.5t-269.5 -123.5zM403 22q102 0 156.5 87t54.5 224q0 91 -27 168t-84.5 127t-134.5 50
q-101 0 -156 -87t-55 -224q0 -143 65.5 -244t180.5 -101z" />
    <glyph glyph-name="Odieresis.ss02" horiz-adv-x="771" 
d="M263 760l-24 4l-4 47l8 37l57 5l23 -5l6 -44l-10 -40zM475 760l-23 4l-5 47l9 37l56 5l24 -5l5 -44l-9 -40zM375 -17q-148 0 -242 100t-94 252q0 164 87.5 258.5t268.5 123.5q149 0 243 -100t94 -252q0 -164 -87.5 -258.5t-269.5 -123.5zM403 22q102 0 156.5 87t54.5 224
q0 91 -27 168t-84.5 127t-134.5 50q-101 0 -156 -87t-55 -224q0 -143 65.5 -244t180.5 -101z" />
    <glyph glyph-name="Ograve.ss02" horiz-adv-x="771" 
d="M368 746l-114 104h100l52 -104h-38zM375 -17q-148 0 -242 100t-94 252q0 164 87.5 258.5t268.5 123.5q149 0 243 -100t94 -252q0 -164 -87.5 -258.5t-269.5 -123.5zM403 22q102 0 156.5 87t54.5 224q0 91 -27 168t-84.5 127t-134.5 50q-101 0 -156 -87t-55 -224
q0 -143 65.5 -244t180.5 -101z" />
    <glyph glyph-name="Ohungarumlaut.ss02" horiz-adv-x="771" 
d="M286 750l62 100h106l-131 -100h-37zM448 750l63 100h106l-131 -100h-38zM375 -17q-148 0 -242 100t-94 252q0 164 87.5 258.5t268.5 123.5q149 0 243 -100t94 -252q0 -164 -87.5 -258.5t-269.5 -123.5zM403 22q102 0 156.5 87t54.5 224q0 91 -27 168t-84.5 127t-134.5 50
q-101 0 -156 -87t-55 -224q0 -143 65.5 -244t180.5 -101z" />
    <glyph glyph-name="Omacron.ss02" horiz-adv-x="771" 
d="M246 783v43h283v-43h-283zM375 -17q-148 0 -242 100t-94 252q0 164 87.5 258.5t268.5 123.5q149 0 243 -100t94 -252q0 -164 -87.5 -258.5t-269.5 -123.5zM403 22q102 0 156.5 87t54.5 224q0 91 -27 168t-84.5 127t-134.5 50q-101 0 -156 -87t-55 -224q0 -143 65.5 -244
t180.5 -101z" />
    <glyph glyph-name="Oslashacute.ss02" horiz-adv-x="771" 
d="M514 850l-115 -104h-37l52 104h100zM627 628q105 -102 105 -263q0 -164 -87.5 -258.5t-269.5 -123.5q-117 0 -203 65l-50 -63h-40l66 83q-109 101 -109 267q0 164 87.5 258.5t268.5 123.5q121 0 209 -69l53 67h38zM157 367q0 -130 52 -221l339 431q-68 101 -180 101
q-101 0 -156 -87t-55 -224zM403 22q102 0 156.5 87t54.5 224q0 123 -49 216l-339 -431q67 -96 177 -96z" />
    <glyph glyph-name="Otilde.ss02" horiz-adv-x="771" 
d="M227 749l30 86l68 19l172 -56l35 58h17l-30 -86l-68 -19l-173 56l-34 -58h-17zM375 -17q-148 0 -242 100t-94 252q0 164 87.5 258.5t268.5 123.5q149 0 243 -100t94 -252q0 -164 -87.5 -258.5t-269.5 -123.5zM403 22q102 0 156.5 87t54.5 224q0 91 -27 168t-84.5 127
t-134.5 50q-101 0 -156 -87t-55 -224q0 -143 65.5 -244t180.5 -101z" />
    <glyph glyph-name="Racute.ss02" horiz-adv-x="667" 
d="M433 850l-115 -104h-37l52 104h100zM611 32l51 -11l-2 -22l-89 2l-68 -2l-206 322l-5 6h-72v-295l79 -10l-2 -23l-130 2l-136 -2l-2 23l85 10v636l-85 10l2 23l137 -2l186 2q95 0 156.5 -43t61.5 -131q0 -82 -64.5 -129t-167.5 -65l95 -35zM220 356h63q81 0 127 45
t46 119t-39.5 113.5t-103.5 40.5l-93 -6v-312z" />
    <glyph glyph-name="Rcaron.ss02" horiz-adv-x="667" 
d="M332 747h-53l-116 112h37l99 -60l6 -6l7 6l98 60h37zM611 32l51 -11l-2 -22l-89 2l-68 -2l-206 322l-5 6h-72v-295l79 -10l-2 -23l-130 2l-136 -2l-2 23l85 10v636l-85 10l2 23l137 -2l186 2q95 0 156.5 -43t61.5 -131q0 -82 -64.5 -129t-167.5 -65l95 -35zM220 356h63
q81 0 127 45t46 119t-39.5 113.5t-103.5 40.5l-93 -6v-312z" />
    <glyph glyph-name="Sacute.ss02" horiz-adv-x="545" 
d="M267 746l52 104h100l-115 -104h-37zM256 -17q-115 0 -204 63l-11 151h40l40 -99q63 -72 152 -72q63 0 100 35t37 92q0 87 -109 142l-121 63q-60 31 -91.5 67t-31.5 95q0 75 60.5 125.5t170.5 71.5q104 0 187 -50v-148h-30l-41 108q-53 53 -125 53q-59 0 -94 -31t-35 -82
q0 -41 24.5 -69.5t73.5 -52.5l118 -61q67 -34 101.5 -76t34.5 -105q0 -163 -246 -220z" />
    <glyph glyph-name="Scaron.ss02" horiz-adv-x="545" 
d="M265 747l-116 112h37l99 -60l6 -6l7 6l98 60h37l-115 -112h-53zM256 -17q-115 0 -204 63l-11 151h40l40 -99q63 -72 152 -72q63 0 100 35t37 92q0 87 -109 142l-121 63q-60 31 -91.5 67t-31.5 95q0 75 60.5 125.5t170.5 71.5q104 0 187 -50v-148h-30l-41 108
q-53 53 -125 53q-59 0 -94 -31t-35 -82q0 -41 24.5 -69.5t73.5 -52.5l118 -61q67 -34 101.5 -76t34.5 -105q0 -163 -246 -220z" />
    <glyph glyph-name="Scircumflex.ss02" horiz-adv-x="545" 
d="M149 744l116 111h52l117 -111h-38l-98 59l-7 6l-6 -6l-98 -59h-38zM256 -17q-115 0 -204 63l-11 151h40l40 -99q63 -72 152 -72q63 0 100 35t37 92q0 87 -109 142l-121 63q-60 31 -91.5 67t-31.5 95q0 75 60.5 125.5t170.5 71.5q104 0 187 -50v-148h-30l-41 108
q-53 53 -125 53q-59 0 -94 -31t-35 -82q0 -41 24.5 -69.5t73.5 -52.5l118 -61q67 -34 101.5 -76t34.5 -105q0 -163 -246 -220z" />
    <glyph glyph-name="Tcaron.ss02" horiz-adv-x="589" 
d="M269 747l-116 112h37l99 -60l6 -6l7 6l98 60h37l-115 -112h-53zM140 -1l-2 23l104 10v637h-146l-59 -157h-24v189l282 -2l282 2v-189h-25l-58 157h-146v-637l102 -10l-3 -23l-152 2z" />
    <glyph glyph-name="Uacute.ss02" horiz-adv-x="694" 
d="M347 746l52 104h100l-115 -104h-37zM360 -17q-263 0 -263 264v421l-84 10l2 23l134 -2l136 2l3 -23l-83 -10v-433q0 -94 45.5 -149.5t131.5 -55.5q77 0 122 56.5t45 149.5v432l-86 10l3 23l109 -2l104 2l3 -23l-83 -10v-426q0 -104 -52 -168t-187 -91z" />
    <glyph glyph-name="Ubreve.ss02" horiz-adv-x="694" 
d="M385 738q-95 0 -146 106l18 12q45 -66 115 -66q65 0 115 66l16 -12q-11 -21 -20.5 -34.5t-35.5 -35t-62 -36.5zM360 -17q-263 0 -263 264v421l-84 10l2 23l134 -2l136 2l3 -23l-83 -10v-433q0 -94 45.5 -149.5t131.5 -55.5q77 0 122 56.5t45 149.5v432l-86 10l3 23
l109 -2l104 2l3 -23l-83 -10v-426q0 -104 -52 -168t-187 -91z" />
    <glyph glyph-name="Ucircumflex.ss02" horiz-adv-x="694" 
d="M229 744l116 111h52l117 -111h-38l-98 59l-7 6l-6 -6l-98 -59h-38zM360 -17q-263 0 -263 264v421l-84 10l2 23l134 -2l136 2l3 -23l-83 -10v-433q0 -94 45.5 -149.5t131.5 -55.5q77 0 122 56.5t45 149.5v432l-86 10l3 23l109 -2l104 2l3 -23l-83 -10v-426
q0 -104 -52 -168t-187 -91z" />
    <glyph glyph-name="Udieresis.ss02" horiz-adv-x="694" 
d="M246 760l-24 4l-4 47l8 37l57 5l23 -5l6 -44l-10 -40zM458 760l-23 4l-5 47l9 37l56 5l24 -5l5 -44l-9 -40zM360 -17q-263 0 -263 264v421l-84 10l2 23l134 -2l136 2l3 -23l-83 -10v-433q0 -94 45.5 -149.5t131.5 -55.5q77 0 122 56.5t45 149.5v432l-86 10l3 23l109 -2
l104 2l3 -23l-83 -10v-426q0 -104 -52 -168t-187 -91z" />
    <glyph glyph-name="Ugrave.ss02" horiz-adv-x="694" 
d="M351 746l-114 104h100l52 -104h-38zM360 -17q-263 0 -263 264v421l-84 10l2 23l134 -2l136 2l3 -23l-83 -10v-433q0 -94 45.5 -149.5t131.5 -55.5q77 0 122 56.5t45 149.5v432l-86 10l3 23l109 -2l104 2l3 -23l-83 -10v-426q0 -104 -52 -168t-187 -91z" />
    <glyph glyph-name="Uhungarumlaut.ss02" horiz-adv-x="694" 
d="M269 750l62 100h106l-131 -100h-37zM431 750l63 100h106l-131 -100h-38zM360 -17q-263 0 -263 264v421l-84 10l2 23l134 -2l136 2l3 -23l-83 -10v-433q0 -94 45.5 -149.5t131.5 -55.5q77 0 122 56.5t45 149.5v432l-86 10l3 23l109 -2l104 2l3 -23l-83 -10v-426
q0 -104 -52 -168t-187 -91z" />
    <glyph glyph-name="Umacron.ss02" horiz-adv-x="694" 
d="M229 783v43h283v-43h-283zM360 -17q-263 0 -263 264v421l-84 10l2 23l134 -2l136 2l3 -23l-83 -10v-433q0 -94 45.5 -149.5t131.5 -55.5q77 0 122 56.5t45 149.5v432l-86 10l3 23l109 -2l104 2l3 -23l-83 -10v-426q0 -104 -52 -168t-187 -91z" />
    <glyph glyph-name="Uring.ss02" horiz-adv-x="694" 
d="M371 717q-32 0 -55.5 16.5t-23.5 50.5q0 21 13 35.5t26.5 20t39.5 13.5q32 0 55.5 -17t23.5 -50q0 -16 -5.5 -28t-19 -19.5t-24 -11.5t-30.5 -10zM371 740q20 0 33 12.5t13 32.5t-13 32.5t-33 12.5t-33.5 -13t-13.5 -32t13.5 -32t33.5 -13zM360 -17q-263 0 -263 264v421
l-84 10l2 23l134 -2l136 2l3 -23l-83 -10v-433q0 -94 45.5 -149.5t131.5 -55.5q77 0 122 56.5t45 149.5v432l-86 10l3 23l109 -2l104 2l3 -23l-83 -10v-426q0 -104 -52 -168t-187 -91z" />
    <glyph glyph-name="Utilde.ss02" horiz-adv-x="694" 
d="M210 749l30 86l68 19l172 -56l35 58h17l-30 -86l-68 -19l-173 56l-34 -58h-17zM360 -17q-263 0 -263 264v421l-84 10l2 23l134 -2l136 2l3 -23l-83 -10v-433q0 -94 45.5 -149.5t131.5 -55.5q77 0 122 56.5t45 149.5v432l-86 10l3 23l109 -2l104 2l3 -23l-83 -10v-426
q0 -104 -52 -168t-187 -91z" />
    <glyph glyph-name="Wacute.ss02" horiz-adv-x="994" 
d="M477 746l52 104h100l-115 -104h-37zM292 -10l-222 679l-60 9l2 23l123 -2l128 2l3 -23l-83 -10l164 -523l1 -29l127 417l-44 136l-62 9l2 23l126 -2l127 2l2 -23l-83 -10l165 -523l1 -29l170 553l-87 9l3 23l104 -2l83 2l2 -23l-62 -9l-210 -660l-59 -19l-153 464l-1 30
l-148 -475z" />
    <glyph glyph-name="Wcircumflex.ss02" horiz-adv-x="994" 
d="M359 744l116 111h52l117 -111h-38l-98 59l-7 6l-6 -6l-98 -59h-38zM292 -10l-222 679l-60 9l2 23l123 -2l128 2l3 -23l-83 -10l164 -523l1 -29l127 417l-44 136l-62 9l2 23l126 -2l127 2l2 -23l-83 -10l165 -523l1 -29l170 553l-87 9l3 23l104 -2l83 2l2 -23l-62 -9
l-210 -660l-59 -19l-153 464l-1 30l-148 -475z" />
    <glyph glyph-name="Wdieresis.ss02" horiz-adv-x="994" 
d="M376 760l-24 4l-4 47l8 37l57 5l23 -5l6 -44l-10 -40zM588 760l-23 4l-5 47l9 37l56 5l24 -5l5 -44l-9 -40zM292 -10l-222 679l-60 9l2 23l123 -2l128 2l3 -23l-83 -10l164 -523l1 -29l127 417l-44 136l-62 9l2 23l126 -2l127 2l2 -23l-83 -10l165 -523l1 -29l170 553
l-87 9l3 23l104 -2l83 2l2 -23l-62 -9l-210 -660l-59 -19l-153 464l-1 30l-148 -475z" />
    <glyph glyph-name="Wgrave.ss02" horiz-adv-x="994" 
d="M481 746l-114 104h100l52 -104h-38zM292 -10l-222 679l-60 9l2 23l123 -2l128 2l3 -23l-83 -10l164 -523l1 -29l127 417l-44 136l-62 9l2 23l126 -2l127 2l2 -23l-83 -10l165 -523l1 -29l170 553l-87 9l3 23l104 -2l83 2l2 -23l-62 -9l-210 -660l-59 -19l-153 464l-1 30
l-148 -475z" />
    <glyph glyph-name="Yacute.ss02" horiz-adv-x="700" 
d="M360 746l52 104h100l-115 -104h-37zM191 -1l-2 23l113 10v242l-223 396l-74 8l3 23l137 -2l138 2l2 -23l-86 -9l186 -333l3 -20l186 353l-91 9l3 23l112 -2l94 2l3 -22l-75 -9l-212 -390v-248l112 -10l-3 -23l-160 2z" />
    <glyph glyph-name="Ycircumflex.ss02" horiz-adv-x="700" 
d="M242 744l116 111h52l117 -111h-38l-98 59l-7 6l-6 -6l-98 -59h-38zM191 -1l-2 23l113 10v242l-223 396l-74 8l3 23l137 -2l138 2l2 -23l-86 -9l186 -333l3 -20l186 353l-91 9l3 23l112 -2l94 2l3 -22l-75 -9l-212 -390v-248l112 -10l-3 -23l-160 2z" />
    <glyph glyph-name="Ydieresis.ss02" horiz-adv-x="700" 
d="M259 760l-24 4l-4 47l8 37l57 5l23 -5l6 -44l-10 -40zM471 760l-23 4l-5 47l9 37l56 5l24 -5l5 -44l-9 -40zM191 -1l-2 23l113 10v242l-223 396l-74 8l3 23l137 -2l138 2l2 -23l-86 -9l186 -333l3 -20l186 353l-91 9l3 23l112 -2l94 2l3 -22l-75 -9l-212 -390v-248
l112 -10l-3 -23l-160 2z" />
    <glyph glyph-name="Ygrave.ss02" horiz-adv-x="700" 
d="M364 746l-114 104h100l52 -104h-38zM191 -1l-2 23l113 10v242l-223 396l-74 8l3 23l137 -2l138 2l2 -23l-86 -9l186 -333l3 -20l186 353l-91 9l3 23l112 -2l94 2l3 -22l-75 -9l-212 -390v-248l112 -10l-3 -23l-160 2z" />
    <glyph glyph-name="Zacute.ss02" horiz-adv-x="571" 
d="M261 746l52 104h100l-115 -104h-37zM24 0l-5 29l388 624l20 17l-287 -2l-63 -153h-28v185h486l5 -26l-389 -626l-20 -18l306 2l77 160h29l-18 -192h-501z" />
    <glyph glyph-name="Zcaron.ss02" horiz-adv-x="571" 
d="M259 747l-116 112h37l99 -60l6 -6l7 6l98 60h37l-115 -112h-53zM24 0l-5 29l388 624l20 17l-287 -2l-63 -153h-28v185h486l5 -26l-389 -626l-20 -18l306 2l77 160h29l-18 -192h-501z" />
    <glyph glyph-name="Zdotaccent.ss02" horiz-adv-x="571" 
d="M264 755l-24 5l-5 49l9 41l61 4l25 -4l4 -48l-9 -42zM24 0l-5 29l388 624l20 17l-287 -2l-63 -153h-28v185h486l5 -26l-389 -626l-20 -18l306 2l77 160h29l-18 -192h-501z" />
    <glyph glyph-name="aogonek.ss01" horiz-adv-x="467" 
d="M306 -93q0 -67 93 -67v-18q-91 0 -126.5 22.5t-35.5 70.5v20l85 64l-23 77l-129 -91q-63 0 -102 32.5t-39 90.5q0 56 45 98l220 72v59q0 26 -2 40.5t-8.5 30t-22 22t-40.5 6.5q-27 0 -70 -15l-20 -94h-86v75l184 81q95 0 128 -33t33 -120v-207q0 -46 17 -83l52 3l3 -22
l-105 -21l-51 -75v-18zM294 100v154l-134 -54q-33 -30 -33 -74q0 -37 18 -57t46 -20q27 0 70 27z" />
    <glyph glyph-name="ccedilla.ss01" horiz-adv-x="445" 
d="M238 -36q30 -3 51.5 -16.5t21.5 -37.5q0 -42 -83 -67l-63 -19h-42l27 35h80q27 14 27 36q0 35 -75 37l50 54q-88 9 -142 70.5t-54 162.5q0 111 68 177t170 87q33 0 73 -15.5t64 -35.5v-96h-75l-32 99q-21 11 -47 11q-54 0 -90.5 -48.5t-36.5 -135.5q0 -88 44.5 -145.5
t118.5 -57.5q57 0 117 44l10 -23q-71 -59 -161 -95h-3z" />
    <glyph glyph-name="eogonek.ss01" horiz-adv-x="469" 
d="M258 -93q0 -67 93 -67v-18q-91 0 -126.5 22.5t-35.5 70.5v20l67 50q-93 2 -157.5 65t-64.5 171t60 173.5t163 88.5q90 0 132.5 -49.5t42.5 -134.5v-36h-306q2 -94 48 -148.5t125 -54.5q59 0 125 43l11 -23q-55 -44 -123 -75l-54 -80v-18zM235 445q-48 0 -76.5 -40.5
t-32.5 -115.5l203 5v8q0 70 -20 106.5t-74 36.5z" />
    <glyph glyph-name="g.ss01" horiz-adv-x="506" 
d="M231 -183q-209 0 -209 124v17l112 69q-48 13 -66 38t-18 62v8l99 61q-46 15 -72.5 47.5t-26.5 75.5q0 117 192 164q53 0 94.5 -19t61.5 -51l49 74h52v-87h-74l-16 -10q9 -25 9 -43q0 -60 -46.5 -100t-144.5 -64q-27 0 -53 6l-46 -41q0 -21 14.5 -33t37.5 -12h181
q56 0 86 -26t30 -70q0 -57 -67.5 -108.5t-178.5 -81.5zM240 216q40 0 61.5 28t21.5 78q0 52 -22 90t-73 38q-40 0 -61.5 -28.5t-21.5 -78.5q0 -51 22.5 -89t72.5 -38zM239 -132q68 0 113.5 30.5t45.5 72.5q0 27 -19.5 39t-63.5 12h-158q-48 -40 -48 -74q0 -36 34.5 -58.5
t95.5 -21.5z" />
    <glyph glyph-name="gbreve.ss01" horiz-adv-x="506" 
d="M265 561q-54 0 -96.5 37t-60.5 89l19 14q49 -74 124 -74q23 0 42 6t34.5 20t23 22.5t20.5 25.5l20 -13q-37 -81 -126 -127zM231 -183q-209 0 -209 124v17l112 69q-48 13 -66 38t-18 62v8l99 61q-46 15 -72.5 47.5t-26.5 75.5q0 117 192 164q53 0 94.5 -19t61.5 -51l49 74
h52v-87h-74l-16 -10q9 -25 9 -43q0 -60 -46.5 -100t-144.5 -64q-27 0 -53 6l-46 -41q0 -21 14.5 -33t37.5 -12h181q56 0 86 -26t30 -70q0 -57 -67.5 -108.5t-178.5 -81.5zM240 216q40 0 61.5 28t21.5 78q0 52 -22 90t-73 38q-40 0 -61.5 -28.5t-21.5 -78.5q0 -51 22.5 -89
t72.5 -38zM239 -132q68 0 113.5 30.5t45.5 72.5q0 27 -19.5 39t-63.5 12h-158q-48 -40 -48 -74q0 -36 34.5 -58.5t95.5 -21.5z" />
    <glyph glyph-name="gcircumflex.ss01" horiz-adv-x="506" 
d="M113 548l116 162h47l117 -162h-32l-99 84l-9 13l-9 -13l-99 -84h-32zM231 -183q-209 0 -209 124v17l112 69q-48 13 -66 38t-18 62v8l99 61q-46 15 -72.5 47.5t-26.5 75.5q0 117 192 164q53 0 94.5 -19t61.5 -51l49 74h52v-87h-74l-16 -10q9 -25 9 -43q0 -60 -46.5 -100
t-144.5 -64q-27 0 -53 6l-46 -41q0 -21 14.5 -33t37.5 -12h181q56 0 86 -26t30 -70q0 -57 -67.5 -108.5t-178.5 -81.5zM240 216q40 0 61.5 28t21.5 78q0 52 -22 90t-73 38q-40 0 -61.5 -28.5t-21.5 -78.5q0 -51 22.5 -89t72.5 -38zM239 -132q68 0 113.5 30.5t45.5 72.5
q0 27 -19.5 39t-63.5 12h-158q-48 -40 -48 -74q0 -36 34.5 -58.5t95.5 -21.5z" />
    <glyph glyph-name="gcommaaccent.ss01" horiz-adv-x="506" 
d="M202 548v73l78 94l24 -6l-38 -85l33 -32v-44h-97zM231 -183q-209 0 -209 124v17l112 69q-48 13 -66 38t-18 62v8l99 61q-46 15 -72.5 47.5t-26.5 75.5q0 117 192 164q53 0 94.5 -19t61.5 -51l49 74h52v-87h-74l-16 -10q9 -25 9 -43q0 -60 -46.5 -100t-144.5 -64
q-27 0 -53 6l-46 -41q0 -21 14.5 -33t37.5 -12h181q56 0 86 -26t30 -70q0 -57 -67.5 -108.5t-178.5 -81.5zM240 216q40 0 61.5 28t21.5 78q0 52 -22 90t-73 38q-40 0 -61.5 -28.5t-21.5 -78.5q0 -51 22.5 -89t72.5 -38zM239 -132q68 0 113.5 30.5t45.5 72.5q0 27 -19.5 39
t-63.5 12h-158q-48 -40 -48 -74q0 -36 34.5 -58.5t95.5 -21.5z" />
    <glyph glyph-name="gdotaccent.ss01" horiz-adv-x="506" 
d="M229 583l-26 6l-6 54l9 44l70 5l27 -5l5 -53l-11 -45zM231 -183q-209 0 -209 124v17l112 69q-48 13 -66 38t-18 62v8l99 61q-46 15 -72.5 47.5t-26.5 75.5q0 117 192 164q53 0 94.5 -19t61.5 -51l49 74h52v-87h-74l-16 -10q9 -25 9 -43q0 -60 -46.5 -100t-144.5 -64
q-27 0 -53 6l-46 -41q0 -21 14.5 -33t37.5 -12h181q56 0 86 -26t30 -70q0 -57 -67.5 -108.5t-178.5 -81.5zM240 216q40 0 61.5 28t21.5 78q0 52 -22 90t-73 38q-40 0 -61.5 -28.5t-21.5 -78.5q0 -51 22.5 -89t72.5 -38zM239 -132q68 0 113.5 30.5t45.5 72.5q0 27 -19.5 39
t-63.5 12h-158q-48 -40 -48 -74q0 -36 34.5 -58.5t95.5 -21.5z" />
    <glyph glyph-name="ij.ss01" horiz-adv-x="549" 
d="M121 586l-26 5l-6 55l10 46l70 5l27 -5l5 -53l-10 -48zM408 586l-26 5l-6 55l10 46l70 5l27 -5l5 -53l-10 -48zM37 -1l-3 23l66 8v396l-67 -10l-3 22l135 35l30 2v-445l69 -8l-3 -23l-112 2zM264 -176v88h102l6 18q13 39 13 107v389l-67 -10l-3 22l135 35l30 2v-417
q0 -43 -12 -71t-40 -59l-90 -104h-74z" />
    <glyph glyph-name="iogonek.ss01" horiz-adv-x="284" 
d="M121 586l-26 5l-6 55l10 46l70 5l27 -5l5 -53l-10 -48zM166 1l-51 -76v-18q0 -67 93 -67v-18q-91 0 -126.5 22.5t-35.5 70.5v20l87 66l-96 -2l-3 23l66 8v396l-67 -10l-3 22l135 35l30 2v-445l69 -8l-3 -23z" />
    <glyph glyph-name="j.ss01" horiz-adv-x="265" 
d="M124 586l-26 5l-6 55l10 46l70 5l27 -5l5 -53l-10 -48zM-20 -176v88h102l6 18q13 39 13 107v389l-67 -10l-3 22l135 35l30 2v-417q0 -43 -12 -71t-40 -59l-90 -104h-74z" />
    <glyph glyph-name="uni0237.ss01" horiz-adv-x="265" 
d="M-20 -176v88h102l6 18q13 39 13 107v389l-67 -10l-3 22l135 35l30 2v-417q0 -43 -12 -71t-40 -59l-90 -104h-74z" />
    <glyph glyph-name="kcommaaccent.ss01" horiz-adv-x="543" 
d="M36 -1l-3 23l66 8v634l-65 -7l-4 23l134 32l30 2v-448l14 6l196 166l-51 8v23l83 -2l78 2l2 -23l-61 -8l-208 -169h47l200 -239l44 -8l-3 -23l-86 2l-60 -2l-189 242l-6 13v-224l59 -8l-3 -23l-101 2zM260 -181l-20 8l39 59l-42 25v39h95v-66z" />
    <glyph glyph-name="lcommaaccent.ss01" horiz-adv-x="277" 
d="M36 -1l-3 23l66 8v634l-66 -7l-3 23l134 32l30 2v-684l68 -8l-2 -23l-112 2zM116 -181l-20 8l39 59l-42 25v39h95v-66z" />
    <glyph glyph-name="ncommaaccent.ss01" horiz-adv-x="581" 
d="M37 -1l-3 23l67 8v396l-68 -11l-3 23l135 35l27 1l2 -96l165 105q79 0 105 -34t26 -120v-299l74 -8l-2 -23l-116 2l-98 -2l-2 23l48 8v305q0 78 -63 78q-17 0 -36.5 -7.5t-28.5 -12.5t-37 -23l-34 -21v-319l51 -8l-2 -23l-94 2zM268 -181l-20 8l39 59l-42 25v39h95v-66z
" />
    <glyph glyph-name="eng.ss01" horiz-adv-x="534" 
d="M273 -175v89h103l6 18q12 43 12 109v294q0 78 -63 78q-17 0 -36.5 -7.5t-28.5 -12.5t-37 -23l-34 -21v-319l51 -8l-2 -23l-95 2l-112 -2l-3 23l67 8v396l-68 -11l-3 23l135 35l27 1l2 -96l165 105q79 0 105 -34t26 -120v-275q0 -27 -9 -51.5t-19.5 -38.5t-32.5 -41
l-80 -98h-76z" />
    <glyph glyph-name="p.ss01" horiz-adv-x="540" 
d="M21 -171l-2 23l66 8v567l-67 -11l-3 22l133 35l27 1l4 -89l136 98q87 0 139 -62t52 -162q0 -229 -237 -274q-52 0 -89 25v-150l101 -8l-3 -23l-142 2zM277 20q58 0 93 54.5t35 147.5q0 86 -30 138.5t-80 52.5q-32 0 -91 -41l-24 -17v-285q33 -50 97 -50z" />
    <glyph glyph-name="thorn.ss01" horiz-adv-x="541" 
d="M22 -171l-3 23l67 8v806l-67 -10l-3 22l135 34l30 1v-327l135 97q86 0 138.5 -62t52.5 -162q0 -229 -238 -274q-51 0 -88 25v-150l100 -8l-2 -23l-144 2zM278 20q57 0 92 55t35 147q0 86 -29.5 138.5t-79.5 52.5q-15 0 -31 -6t-26.5 -12.5t-33.5 -22.5l-24 -17v-285
q33 -50 97 -50z" />
    <glyph glyph-name="q.ss01" horiz-adv-x="528" 
d="M263 -171l-3 23l100 8v215l-129 -90q-86 0 -141.5 61.5t-55.5 164.5q0 113 66.5 184.5t179.5 87.5q65 0 132 -37l29 33h14v-619l68 -8l-3 -23l-113 2zM251 56q32 0 71 24l38 26v286q-25 57 -88 57q-61 0 -99 -53t-38 -149q0 -84 31 -137.5t85 -53.5z" />
    <glyph glyph-name="rcommaaccent.ss01" horiz-adv-x="385" 
d="M37 -1l-3 23l67 8v396l-68 -11l-3 23l133 35l25 1l3 -144l106 148h73v-101h-95q-11 -3 -70 -70l-10 -12v-263l97 -8l-3 -25l-140 2zM130 -181l-20 8l39 59l-42 25v39h95v-66z" />
    <glyph glyph-name="scedilla.ss01" horiz-adv-x="403" 
d="M370 133q0 -56 -42 -90.5t-125 -55.5l-20 -23q30 -3 51.5 -16.5t21.5 -37.5q0 -42 -83 -67l-63 -19h-42l27 35h80q27 14 27 36q0 35 -75 37l49 54q-67 5 -136 42l-9 123h36l43 -94q43 -36 90 -36q39 0 60.5 20.5t21.5 51.5q0 32 -16.5 50.5t-60.5 43.5l-79 46
q-83 47 -83 115q0 49 42 81.5t127 53.5q80 0 144 -40v-114h-32l-37 90q-35 30 -84 30q-32 0 -53.5 -17t-21.5 -45q0 -27 17.5 -44.5t56.5 -39.5l81 -46q47 -26 67 -54.5t20 -69.5z" />
    <glyph glyph-name="scommaaccent.ss01" horiz-adv-x="403" 
d="M193 -15q-74 0 -153 43l-9 123h36l43 -94q43 -36 90 -36q39 0 60.5 20.5t21.5 51.5q0 32 -16.5 50.5t-60.5 43.5l-79 46q-83 47 -83 115q0 49 42 81.5t127 53.5q80 0 144 -40v-114h-32l-37 90q-35 30 -84 30q-32 0 -53.5 -17t-21.5 -45q0 -27 17.5 -44.5t56.5 -39.5
l81 -46q47 -26 67 -54.5t20 -69.5q0 -57 -44.5 -92.5t-132.5 -55.5zM179 -181l-20 8l39 59l-42 25v39h95v-66z" />
    <glyph glyph-name="uni0163.ss01" horiz-adv-x="344" 
d="M182 -36q30 -3 51.5 -16.5t21.5 -37.5q0 -42 -83 -67l-63 -19h-42l27 35h80q27 14 27 36q0 35 -75 37l51 56q-87 15 -87 127v317h-85v8l18 23h69v71l79 59h14v-134h145v-27h-145v-316q0 -30 16 -47t41 -17q37 0 84 25l11 -22l-128 -70h-9z" />
    <glyph glyph-name="uni021B.ss01" horiz-adv-x="344" 
d="M209 -15q-119 0 -119 130v317h-85v8l18 23h69v71l79 59h14v-134h145v-27h-145v-316q0 -30 16 -47t41 -17q37 0 84 25l11 -22zM178 -181l-20 8l39 59l-42 25v39h95v-66z" />
    <glyph glyph-name="uogonek.ss01" horiz-adv-x="556" 
d="M370 -93q0 -67 93 -67v-18q-91 0 -126.5 22.5t-35.5 70.5v20l92 69l-20 80l-157 -99q-82 0 -108.5 34.5t-26.5 119.5v287l-67 -6l-3 24l135 27l31 2v-339q0 -79 64 -79q35 0 97 41l33 19v311l-63 -6l-3 24l130 27l30 2v-344q0 -48 13 -89l51 3l3 -23l-113 -22l-49 -73
v-18z" />
    <glyph glyph-name="y.ss01" horiz-adv-x="536" 
d="M87 -175v97h101l106 127l-70 -24l-162 413l-57 8l3 23l112 -2l106 2l2 -23l-61 -8l125 -325l4 -37l129 362l-58 8l3 23l82 -2l77 2l2 -23l-61 -8l-151 -391l-119 -222h-113z" />
    <glyph glyph-name="yacute.ss01" horiz-adv-x="536" 
d="M278 548l53 162h102l-128 -162h-27zM87 -175v97h101l106 127l-70 -24l-162 413l-57 8l3 23l112 -2l106 2l2 -23l-61 -8l125 -325l4 -37l129 362l-58 8l3 23l82 -2l77 2l2 -23l-61 -8l-151 -391l-119 -222h-113z" />
    <glyph glyph-name="ycircumflex.ss01" horiz-adv-x="536" 
d="M150 548l116 162h47l117 -162h-32l-99 84l-9 13l-9 -13l-99 -84h-32zM87 -175v97h101l106 127l-70 -24l-162 413l-57 8l3 23l112 -2l106 2l2 -23l-61 -8l125 -325l4 -37l129 362l-58 8l3 23l82 -2l77 2l2 -23l-61 -8l-151 -391l-119 -222h-113z" />
    <glyph glyph-name="ydieresis.ss01" horiz-adv-x="536" 
d="M183 583l-24 5l-4 47l8 39l59 5l23 -5l6 -46l-10 -40zM358 583l-24 5l-5 47l9 39l58 5l24 -5l6 -46l-10 -40zM87 -175v97h101l106 127l-70 -24l-162 413l-57 8l3 23l112 -2l106 2l2 -23l-61 -8l125 -325l4 -37l129 362l-58 8l3 23l82 -2l77 2l2 -23l-61 -8l-151 -391
l-119 -222h-113z" />
    <glyph glyph-name="ygrave.ss01" horiz-adv-x="536" 
d="M282 548l-128 162h102l53 -162h-27zM87 -175v97h101l106 127l-70 -24l-162 413l-57 8l3 23l112 -2l106 2l2 -23l-61 -8l125 -325l4 -37l129 362l-58 8l3 23l82 -2l77 2l2 -23l-61 -8l-151 -391l-119 -222h-113z" />
    <glyph glyph-name="hcircumflex.ss02" horiz-adv-x="579" 
d="M1 744l116 111h52l117 -111h-38l-98 59l-7 6l-6 -6l-98 -59h-38zM36 -1l-3 23l66 8v634l-66 -6l-3 22l134 32l30 2v-335l164 104q81 0 106 -38t25 -122v-293l73 -8l-2 -23l-117 2l-96 -2l-2 23l48 8v305q0 78 -62 78q-16 0 -35.5 -7t-30 -13t-37.5 -23l-34 -21v-319
l51 -8l-2 -23l-95 2z" />
    <glyph glyph-name="lacute.ss02" horiz-adv-x="277" 
d="M120 746l52 104h100l-115 -104h-37zM36 -1l-3 23l66 8v634l-66 -7l-3 23l134 32l30 2v-684l68 -8l-2 -23l-112 2z" />
    <glyph glyph-name="f_f_j.ss01.liga" horiz-adv-x="852" 
d="M573 -182v88h102l6 18q13 39 13 108v383l3 20l-18 -3h-183v-402l95 -7l-3 -24l-137 2l-105 -2l-2 23l57 8v402h-205v-402l94 -7l-2 -24l-139 2l-113 -2l-2 23l67 8v402h-76v9l15 22h61v3q0 46 13 76t41 60l88 95h164l-72 -78h-113l-11 -18q-15 -31 -15 -113v-27h205v13
q0 84 50 137l93 99h250v-101h-18l-77 23h-177l-11 -18q-15 -31 -15 -115v-38h184l79 12l30 2v-423q0 -43 -12 -71.5t-40 -59.5l-90 -103h-74z" />
    <glyph glyph-name="f_j.ss01.liga" horiz-adv-x="552" 
d="M273 -175v85h102l6 19q13 39 13 108v378l3 20l-18 -3h-183v-402l93 -7l-2 -24l-138 2l-113 -2l-2 23l67 8v402h-76v9l15 22h61v11q0 84 50 137l92 99h251v-101h-18l-77 23h-177l-11 -18q-15 -31 -15 -115v-38h184l79 12l30 2v-417q0 -42 -12 -70t-40 -59l-90 -104h-74z
" />
    <glyph glyph-name="f_y.ss01.liga" horiz-adv-x="817" 
d="M368 -175v97h101l105 127l-71 -23l-165 413h-142v-409l110 -6l-2 -25l-153 2l-114 -2l-3 23l68 8v404h-77v9l15 22h62v11q0 46 11 76t38 59l93 99h116v-78h-138l-11 -19q-15 -31 -15 -114v-31h307l3 -22l-61 -8l127 -324l4 -38l130 362l-57 8l2 23l83 -2l76 2l2 -23
l-61 -8l-151 -391l-118 -222h-114z" />
    <glyph glyph-name="g_g.ss01.liga" horiz-adv-x="974" 
d="M217 -178q-198 0 -198 120v17l112 71q-48 14 -66 38t-18 61v11l100 57q-102 37 -102 118q0 120 194 168q53 0 94.5 -20.5t62.5 -55.5l53 76h46l-9 -88h-59l-19 -12q10 -16 10 -37q0 -59 -46.5 -97.5t-146.5 -64.5q-31 0 -53 6l-47 -36q0 -49 51 -49h161q58 0 88.5 -26.5
t30.5 -67.5q0 -58 -64.5 -108t-174.5 -81zM703 -178q-200 0 -200 120v17l106 71q-54 14 -73 37.5t-19 61.5v11l99 57q-48 17 -75 47.5t-27 70.5q0 120 193 168q53 0 94.5 -20t62.5 -56l54 76h50v-88h-72l-19 -12q10 -18 10 -37q-1 -59 -47 -97.5t-147 -64.5q-28 0 -52 6
l-47 -36q0 -49 52 -49h182q58 0 88.5 -26.5t30.5 -67.5q0 -58 -66 -108t-178 -81zM240 217q40 0 61.5 26t21.5 72q0 55 -23.5 95t-76.5 40q-40 0 -61.5 -29t-21.5 -80q0 -49 23.5 -86.5t76.5 -37.5zM709 217q39 0 60.5 26t21.5 72q0 55 -23 95t-76 40q-40 0 -61.5 -29
t-21.5 -81q0 -49 23 -86t77 -37zM225 -127q63 0 108 29.5t45 70.5q0 52 -87 52h-137q-48 -33 -48 -76q0 -34 32 -55t87 -21zM712 -127q65 0 111 29.5t46 70.5q0 52 -87 52h-150q-43 -36 -43 -76q0 -34 33 -55t90 -21z" />
    <glyph glyph-name="k_y.ss01.liga" horiz-adv-x="991" 
d="M543 -175v95h99l105 129l-71 -24l-164 412h-56l-209 -168h47l199 -239l44 -8l-3 -23l-84 2l-61 -2l-189 242l-6 13v-224l59 -8l-3 -23l-104 2l-110 -2l-3 23l66 8v634l-65 -6l-4 22l134 32l30 2v-447l14 6l195 165l-50 9v21h323l3 -22l-61 -8l127 -324l4 -38l130 362
l-58 8l3 23l83 -2l76 2l2 -23l-61 -8l-151 -391l-118 -222h-112z" />
    <glyph glyph-name="t_y.ss01.liga" horiz-adv-x="796" 
d="M347 -175v97h98l108 128l-70 -26l-166 416h-131v-324q0 -64 57 -64q37 0 84 25l11 -22l-128 -70q-70 0 -94.5 30.5t-24.5 96.5v323h-85v8l18 23h69v67l79 60h14v-125h296l2 -22l-61 -8l127 -323l4 -37l130 360l-57 8l2 23l85 -2l74 2l2 -23l-61 -8l-151 -391l-117 -222
h-114z" />
    <glyph glyph-name="a.sc" horiz-adv-x="616" 
d="M24 -1l-2 21l57 7l193 468l67 24l198 -493l58 -6l-2 -21l-118 2l-109 -2l-2 21l66 7l-57 147h-198l-58 -147l68 -7l-2 -21l-86 2zM184 199h180l-84 220l-2 20z" />
    <glyph glyph-name="aacute.sc" horiz-adv-x="616" 
d="M294 562l54 148h100l-126 -148h-28zM24 -1l-2 21l57 7l193 468l67 24l198 -493l58 -6l-2 -21l-118 2l-109 -2l-2 21l66 7l-57 147h-198l-58 -147l68 -7l-2 -21l-86 2zM184 199h180l-84 220l-2 20z" />
    <glyph glyph-name="abreve.sc" horiz-adv-x="616" 
d="M319 562q-58 0 -99 39t-57 87l19 13q49 -73 123 -73q29 0 54.5 13.5t37 26t27.5 34.5l20 -14q-35 -78 -125 -126zM24 -1l-2 21l57 7l193 468l67 24l198 -493l58 -6l-2 -21l-118 2l-109 -2l-2 21l66 7l-57 147h-198l-58 -147l68 -7l-2 -21l-86 2zM184 199h180l-84 220
l-2 20z" />
    <glyph glyph-name="acircumflex.sc" horiz-adv-x="616" 
d="M169 562l115 149h47l116 -149h-32l-98 71l-9 10l-9 -10l-98 -71h-32zM24 -1l-2 21l57 7l193 468l67 24l198 -493l58 -6l-2 -21l-118 2l-109 -2l-2 21l66 7l-57 147h-198l-58 -147l68 -7l-2 -21l-86 2zM184 199h180l-84 220l-2 20z" />
    <glyph glyph-name="adieresis.sc" horiz-adv-x="616" 
d="M202 586l-24 5l-5 47l9 39l58 5l24 -5l5 -46l-9 -40zM377 586l-24 5l-5 47l9 39l58 5l24 -5l5 -46l-10 -40zM24 -1l-2 21l57 7l193 468l67 24l198 -493l58 -6l-2 -21l-118 2l-109 -2l-2 21l66 7l-57 147h-198l-58 -147l68 -7l-2 -21l-86 2zM184 199h180l-84 220l-2 20z
" />
    <glyph glyph-name="agrave.sc" horiz-adv-x="616" 
d="M294 562l-127 148h101l54 -148h-28zM24 -1l-2 21l57 7l193 468l67 24l198 -493l58 -6l-2 -21l-118 2l-109 -2l-2 21l66 7l-57 147h-198l-58 -147l68 -7l-2 -21l-86 2zM184 199h180l-84 220l-2 20z" />
    <glyph glyph-name="amacron.sc" horiz-adv-x="616" 
d="M166 616v47h283v-47h-283zM24 -1l-2 21l57 7l193 468l67 24l198 -493l58 -6l-2 -21l-118 2l-109 -2l-2 21l66 7l-57 147h-198l-58 -147l68 -7l-2 -21l-86 2zM184 199h180l-84 220l-2 20z" />
    <glyph glyph-name="aogonek.sc" horiz-adv-x="616" 
d="M457 1l-58 -115v-43q0 -67 110 -67v-20q-97 0 -139.5 25t-42.5 76v44l108 112l-62 161h-198l-58 -147l68 -7l-2 -21l-86 2l-73 -2l-2 21l57 7l193 468l67 24l198 -493l58 -6l-2 -20zM184 199h180l-84 220l-2 20z" />
    <glyph glyph-name="aring.sc" horiz-adv-x="616" 
d="M307 547q-44 0 -73.5 21.5t-29.5 67.5q0 22 7 37.5t24.5 26t30 15.5t39.5 14q45 0 74.5 -21t29.5 -68q0 -22 -7 -37.5t-25 -26.5t-30 -15.5t-40 -13.5zM306 576q28 0 46.5 17.5t18.5 44.5t-18.5 44.5t-46.5 17.5t-46 -17t-18 -45t18 -45t46 -17zM24 -1l-2 21l57 7
l193 468l67 24l198 -493l58 -6l-2 -21l-118 2l-109 -2l-2 21l66 7l-57 147h-198l-58 -147l68 -7l-2 -21l-86 2zM184 199h180l-84 220l-2 20z" />
    <glyph glyph-name="atilde.sc" horiz-adv-x="616" 
d="M376 573l-179 67l-29 -67h-19l26 99l65 20l178 -66l30 66h19l-27 -102zM24 -1l-2 21l57 7l193 468l67 24l198 -493l58 -6l-2 -21l-118 2l-109 -2l-2 21l66 7l-57 147h-198l-58 -147l68 -7l-2 -21l-86 2zM184 199h180l-84 220l-2 20z" />
    <glyph glyph-name="ae.sc" horiz-adv-x="836" 
d="M22 0l-2 20l58 6l342 484l54 -1l310 1l4 -134h-20l-51 107l-195 1v-227l99 2l34 83h21l-4 -95l4 -98h-21l-34 82l-99 2v-208l201 1l55 111h21l-14 -138l-312 1l-110 -1l-2 21l65 7v206h-165l-142 -206l64 -7l-2 -20l-84 1zM275 256h151v222z" />
    <glyph glyph-name="aeacute.sc" horiz-adv-x="836" 
d="M545 562l54 148h100l-126 -148h-28zM22 0l-2 20l58 6l342 484l54 -1l310 1l4 -134h-20l-51 107l-195 1v-227l99 2l34 83h21l-4 -95l4 -98h-21l-34 82l-99 2v-208l201 1l55 111h21l-14 -138l-312 1l-110 -1l-2 21l65 7v206h-165l-142 -206l64 -7l-2 -20l-84 1zM275 256
h151v222z" />
    <glyph glyph-name="b.sc" horiz-adv-x="548" 
d="M41 -1l-2 21l65 7v455l-65 7l2 21l109 -1l167 1q74 0 114.5 -33.5t40.5 -79.5q0 -48 -43 -82.5t-110 -42.5q90 -3 137 -37.5t47 -88.5q0 -66 -57 -102.5t-157 -44.5l-142 2zM201 280h68q48 0 76 31.5t28 80.5q0 44 -25 69.5t-72 25.5l-75 -5v-202zM268 22q70 0 102.5 35
t32.5 87t-34 82.5t-89 30.5h-79v-230z" />
    <glyph glyph-name="c.sc" horiz-adv-x="594" 
d="M338 -12q-122 0 -207 68t-85 188q0 123 80.5 192t224.5 85q106 0 190 -44v-122h-29l-40 90q-48 48 -127 48q-84 0 -137.5 -60.5t-53.5 -171.5q0 -104 53 -173.5t150 -69.5q66 0 113 43l47 101h29l-9 -125q-92 -37 -199 -49z" />
    <glyph glyph-name="cacute.sc" horiz-adv-x="594" 
d="M327 562l54 148h100l-126 -148h-28zM338 -12q-122 0 -207 68t-85 188q0 123 80.5 192t224.5 85q106 0 190 -44v-122h-29l-40 90q-48 48 -127 48q-84 0 -137.5 -60.5t-53.5 -171.5q0 -104 53 -173.5t150 -69.5q66 0 113 43l47 101h29l-9 -125q-92 -37 -199 -49z" />
    <glyph glyph-name="ccaron.sc" horiz-adv-x="594" 
d="M202 711h32l98 -71l9 -10l9 10l98 71h32l-116 -149h-46zM338 -12q-122 0 -207 68t-85 188q0 123 80.5 192t224.5 85q106 0 190 -44v-122h-29l-40 90q-48 48 -127 48q-84 0 -137.5 -60.5t-53.5 -171.5q0 -104 53 -173.5t150 -69.5q66 0 113 43l47 101h29l-9 -125
q-92 -37 -199 -49z" />
    <glyph glyph-name="ccedilla.sc" horiz-adv-x="594" 
d="M338 -12h-1l-24 -36q35 -2 58.5 -22t23.5 -53q0 -65 -89 -98l-62 -22h-42l28 39h75q30 19 30 63q0 29 -21 43t-51 16l49 71q-113 7 -189.5 74t-76.5 181q0 123 80.5 192t224.5 85q106 0 190 -44v-122h-29l-40 90q-48 48 -127 48q-84 0 -137.5 -60.5t-53.5 -171.5
q0 -104 53 -173.5t150 -69.5q66 0 113 43l47 101h29l-9 -125q-92 -37 -199 -49z" />
    <glyph glyph-name="ccircumflex.sc" horiz-adv-x="594" 
d="M202 562l115 149h47l116 -149h-32l-98 71l-9 10l-9 -10l-98 -71h-32zM338 -12q-122 0 -207 68t-85 188q0 123 80.5 192t224.5 85q106 0 190 -44v-122h-29l-40 90q-48 48 -127 48q-84 0 -137.5 -60.5t-53.5 -171.5q0 -104 53 -173.5t150 -69.5q66 0 113 43l47 101h29
l-9 -125q-92 -37 -199 -49z" />
    <glyph glyph-name="cdotaccent.sc" horiz-adv-x="573" 
d="M313 565l-24 4l-4 46l8 38l57 4l24 -5l4 -45l-8 -38zM325 -12q-121 0 -205 67t-84 186q0 123 79.5 192t222.5 87q106 0 190 -41v-132h-30l-39 91q-46 50 -126 50q-83 0 -136 -60t-53 -168q0 -104 52.5 -171.5t148.5 -67.5q65 0 112 47l47 101h29l-10 -134
q-85 -34 -198 -47z" />
    <glyph glyph-name="d.sc" horiz-adv-x="628" 
d="M41 -1l-2 21l68 7v455l-68 7l2 21l267 -1q128 1 201 -63t73 -179q0 -116 -70.5 -187t-206.5 -81l-154 2zM297 23q80 -1 130 65.5t50 171.5q0 103 -50 165.5t-146 61.5l-77 -5v-454z" />
    <glyph glyph-name="eth.sc" horiz-adv-x="608" 
d="M308 509q128 1 201 -63t73 -179q0 -116 -70.5 -187t-206.5 -81l-154 2l-110 -2l-2 21l68 7v224h-71v26h71v205l-68 7l2 21zM297 23q80 -1 130 65.5t50 171.5q0 103 -50 165.5t-146 61.5l-77 -5v-205h91v-26h-91v-223z" />
    <glyph glyph-name="dcaron.sc" horiz-adv-x="628" 
d="M143 711h32l98 -71l9 -10l9 10l98 71h32l-116 -149h-46zM41 -1l-2 21l68 7v455l-68 7l2 21l267 -1q128 1 201 -63t73 -179q0 -116 -70.5 -187t-206.5 -81l-154 2zM297 23q80 -1 130 65.5t50 171.5q0 103 -50 165.5t-146 61.5l-77 -5v-454z" />
    <glyph glyph-name="dcroat.sc" horiz-adv-x="608" 
d="M308 509q128 1 201 -63t73 -179q0 -116 -70.5 -187t-206.5 -81l-154 2l-110 -2l-2 21l68 7v224h-71v26h71v205l-68 7l2 21zM297 23q80 -1 130 65.5t50 171.5q0 103 -50 165.5t-146 61.5l-77 -5v-205h91v-26h-91v-223z" />
    <glyph glyph-name="e.sc" horiz-adv-x="533" 
d="M41 -1l-2 21l65 7v455l-65 7l2 21l109 -1l331 1l3 -136h-20l-52 109l-211 1v-205l115 1l34 83h21l-4 -95l4 -97h-21l-34 82l-115 1v-229l218 1l55 113h22l-14 -140l-332 2z" />
    <glyph glyph-name="eacute.sc" horiz-adv-x="533" 
d="M273 562l54 148h100l-126 -148h-28zM41 -1l-2 21l65 7v455l-65 7l2 21l109 -1l331 1l3 -136h-20l-52 109l-211 1v-205l115 1l34 83h21l-4 -95l4 -97h-21l-34 82l-115 1v-229l218 1l55 113h22l-14 -140l-332 2z" />
    <glyph glyph-name="ebreve.sc" horiz-adv-x="533" 
d="M298 562q-58 0 -99 39t-57 87l19 13q49 -73 123 -73q29 0 54.5 13.5t37 26t27.5 34.5l20 -14q-35 -78 -125 -126zM41 -1l-2 21l65 7v455l-65 7l2 21l109 -1l331 1l3 -136h-20l-52 109l-211 1v-205l115 1l34 83h21l-4 -95l4 -97h-21l-34 82l-115 1v-229l218 1l55 113h22
l-14 -140l-332 2z" />
    <glyph glyph-name="ecaron.sc" horiz-adv-x="533" 
d="M148 711h32l98 -71l9 -10l9 10l98 71h32l-116 -149h-46zM41 -1l-2 21l65 7v455l-65 7l2 21l109 -1l331 1l3 -136h-20l-52 109l-211 1v-205l115 1l34 83h21l-4 -95l4 -97h-21l-34 82l-115 1v-229l218 1l55 113h22l-14 -140l-332 2z" />
    <glyph glyph-name="ecircumflex.sc" horiz-adv-x="533" 
d="M148 562l115 149h47l116 -149h-32l-98 71l-9 10l-9 -10l-98 -71h-32zM41 -1l-2 21l65 7v455l-65 7l2 21l109 -1l331 1l3 -136h-20l-52 109l-211 1v-205l115 1l34 83h21l-4 -95l4 -97h-21l-34 82l-115 1v-229l218 1l55 113h22l-14 -140l-332 2z" />
    <glyph glyph-name="edieresis.sc" horiz-adv-x="533" 
d="M181 586l-24 5l-5 47l9 39l58 5l24 -5l5 -46l-9 -40zM356 586l-24 5l-5 47l9 39l58 5l24 -5l5 -46l-10 -40zM41 -1l-2 21l65 7v455l-65 7l2 21l109 -1l331 1l3 -136h-20l-52 109l-211 1v-205l115 1l34 83h21l-4 -95l4 -97h-21l-34 82l-115 1v-229l218 1l55 113h22
l-14 -140l-332 2z" />
    </font>
</defs>
</svg>
